<svg width="133" height="66" viewBox="0 0 133 66" fill="none" xmlns="http://www.w3.org/2000/svg">
<path d="M82.6353 29.6966C83.3366 29.502 84.1113 29.5206 84.7859 29.8086C85.2206 30.01 85.6259 30.438 85.5779 30.95C85.5113 31.4313 85.2459 31.866 84.9153 32.2126C84.7273 32.422 84.4073 32.4073 84.1593 32.3353C83.8459 31.978 83.6779 31.4046 83.1433 31.322C82.6526 31.334 82.1286 31.5713 81.9299 32.0446C81.6659 32.6513 81.7006 33.4086 82.1086 33.9446C82.5499 34.578 83.1659 35.1566 83.2659 35.9606C83.3833 37.2713 82.8339 38.6766 81.7139 39.4153C80.8059 40.022 79.6766 40.3833 78.5819 40.2006C77.8366 40.0513 77.0633 39.6473 76.7566 38.914C76.4686 38.326 76.8699 37.7126 77.1006 37.178C77.2339 36.8926 77.4726 36.3886 77.8633 36.6366C78.3659 37.1326 78.8673 37.6953 79.5846 37.8673C80.0046 38.0113 80.6046 37.8033 80.6953 37.3326C80.7126 36.8153 80.2699 36.4606 80.0153 36.0566C79.3366 35.142 79.3073 33.894 79.6793 32.8513C80.1686 31.4593 81.2086 30.182 82.6353 29.6966ZM95.0193 27.6073C95.5566 27.3473 96.2886 27.27 96.7499 27.722C97.0699 27.9806 97.1233 28.414 97.3419 28.7406C97.7446 29.0633 98.3433 29.1286 98.6313 29.5966C98.7099 29.9206 98.5726 30.238 98.4219 30.518C97.7913 31.598 97.1646 32.6913 96.7099 33.8606C96.6273 34.1433 96.5073 34.5606 96.8299 34.7393C97.1873 34.8073 97.4379 34.5086 97.6753 34.2966C98.2593 33.746 98.6619 33.0486 99.1006 32.386C99.2633 32.1086 99.6073 32.0086 99.9086 32.098C100.109 32.23 100.139 32.478 100.045 32.6873C99.6633 33.758 98.9646 34.6726 98.2433 35.5366C97.5913 36.2646 96.8486 36.974 95.8966 37.278C95.4393 37.4286 94.8979 37.4713 94.4873 37.1766C94.1179 36.9233 94.0553 36.446 93.9259 36.0526C93.2193 36.6993 92.6286 37.5166 91.7299 37.9166C91.0406 38.254 90.0673 38.2166 89.5766 37.558C89.1659 37.054 89.1486 36.378 89.1766 35.7593C88.4193 36.854 87.5793 37.9206 86.5046 38.7206C86.0099 39.0993 85.3299 39.318 84.7273 39.086C84.1339 38.8073 83.9713 38.0806 84.0206 37.482C84.1033 36.114 84.7286 34.8606 85.2966 33.6393C85.9699 32.1566 86.9046 30.7913 87.3926 29.226C87.9179 28.6033 89.0179 28.3513 89.6593 28.9486C89.9779 29.2233 89.9419 29.7086 89.8193 30.07C88.9339 31.826 87.8526 33.4806 87.0379 35.2726C86.9153 35.5353 86.8953 35.826 86.8713 36.11C87.4046 36.0726 87.7553 35.6033 88.0859 35.2366C89.5446 33.4046 90.8366 31.438 92.3979 29.69C93.1659 28.878 94.0046 28.0966 95.0193 27.6073ZM95.1206 29.8726C93.7939 31.0686 92.8939 32.654 92.1366 34.2513C91.9339 34.7593 91.5619 35.342 91.8886 35.878C92.6966 35.674 93.1939 34.946 93.6899 34.334C94.5953 33.09 95.3499 31.7313 95.9286 30.306C95.9966 30.0486 96.1886 29.6753 95.9193 29.4793C95.6006 29.4486 95.3473 29.686 95.1206 29.8726ZM56.1099 25.426C56.6833 25.154 57.5473 25.254 57.8246 25.894C58.2539 26.9873 57.2619 28.1833 56.1833 28.3406C55.6006 28.458 54.9459 28.1046 54.8179 27.506C54.6606 26.614 55.3046 25.7486 56.1099 25.426ZM89.9753 24.2446C90.5953 23.9526 91.5033 24.1486 91.7073 24.8713C92.0286 26.1446 90.6606 27.434 89.4059 27.1446C88.9726 27.0233 88.6286 26.606 88.6299 26.1486C88.5819 25.3046 89.2153 24.5406 89.9753 24.2446ZM77.4393 19.534C77.8033 19.2273 78.2153 18.8126 78.7326 18.8966C79.0673 19.0233 79.1486 19.3966 79.3006 19.6806C79.4526 20.0446 79.7379 20.3246 79.9433 20.6553C80.2006 21.1086 80.0433 21.642 79.9086 22.1086C79.4553 23.4873 78.8313 24.802 78.3553 26.1726C77.8793 27.6633 77.5739 29.2033 77.1659 30.7126C77.9486 30.6393 78.8259 30.39 79.5513 30.8086C79.7406 31.3326 79.5619 32.0966 78.9726 32.282C78.2273 32.558 77.4206 32.6046 76.6739 32.8766C76.2393 35.01 75.9873 37.1726 75.7366 39.334C75.6939 39.7966 75.6979 40.2713 75.5446 40.7153C75.3206 41.374 74.4299 41.5953 73.8553 41.2793C73.3699 40.9846 73.1553 40.4153 73.0699 39.882C72.9726 39.162 73.0246 38.4313 73.1126 37.7126C73.3153 36.2926 73.6286 34.8913 73.9606 33.4966C72.6819 33.8473 71.4019 34.1966 70.1473 34.6246C68.4366 37.954 66.8139 41.3486 65.6259 44.9046C65.3846 45.6006 65.3739 46.5913 64.5886 46.9153C63.3979 47.1406 62.3073 45.782 62.7073 44.6446C63.7113 41.634 65.0833 38.7606 66.5073 35.93C65.4953 36.3473 64.5086 36.83 63.5593 37.3793C63.2433 37.5886 62.7953 37.5846 62.5059 37.33C61.9459 36.8953 62.0513 36.0833 62.1299 35.4646C62.4366 34.798 63.2086 34.6193 63.8166 34.3326C65.2699 33.674 66.7993 33.2006 68.3046 32.6913C70.0286 29.774 71.7846 26.87 73.7326 24.0953C74.8739 22.5033 76.0113 20.886 77.4393 19.534ZM71.6793 31.8073C72.6246 31.5953 73.5699 31.382 74.5233 31.2073C75.2166 28.574 76.0099 25.9673 76.9619 23.4153C75.0299 26.1006 73.3099 28.9313 71.6793 31.8073ZM50.2619 19.4353C50.5899 19.1753 50.9513 18.834 51.4033 18.8886C51.7886 19.01 51.8819 19.4433 52.0539 19.7566C52.3006 20.286 52.8966 20.69 52.7966 21.3406C52.6233 22.518 52.0273 23.5766 51.6379 24.6913C50.7993 26.6166 50.4046 28.6873 49.8873 30.7126C51.4446 30.4593 53.0073 30.2126 54.5793 30.07C55.3139 29.97 55.9873 30.77 55.6393 31.4646C54.8193 33.0833 53.9139 34.6686 53.2299 36.354C53.0953 36.6713 53.0393 37.0126 53.0166 37.3553C53.5819 37.3473 53.8873 36.8046 54.2473 36.4526C55.7233 34.7566 56.9579 32.8313 57.8219 30.7526C58.0179 30.378 57.9073 29.83 58.3259 29.598C58.8859 29.2553 59.6806 28.958 60.2753 29.3873C60.7313 29.7366 60.4473 30.334 60.3513 30.7873C60.8139 30.2046 61.3153 29.6366 61.9299 29.2086C62.6646 28.6593 63.7726 29.1473 64.1313 29.9166C64.3206 30.3326 64.0099 30.7406 63.6979 30.9886C63.0113 31.5606 62.0633 31.5513 61.2713 31.898C60.4086 32.2046 59.8273 32.954 59.3113 33.6726C58.2753 35.1073 57.4606 36.7686 57.3286 38.5566C57.3059 38.7766 57.3206 39.058 57.0993 39.1873C56.6713 39.47 56.1913 39.75 55.6606 39.7393C55.2673 39.7326 54.9553 39.3913 54.8979 39.018C54.7406 38.4846 54.9113 37.9326 54.9833 37.4033C54.3899 38.3953 53.6473 39.3166 52.7499 40.05C52.2673 40.4726 51.5833 40.634 50.9646 40.4513C50.5166 40.218 50.2953 39.7033 50.2593 39.2206C50.1753 38.23 50.4806 37.262 50.7953 36.3366C51.3379 34.918 51.9713 33.534 52.6406 32.17C51.5513 32.386 50.4659 32.6246 49.3899 32.8993C48.9366 35.0193 48.7033 37.1766 48.4633 39.33C48.3886 39.89 48.4513 40.518 48.1059 41.002C47.6406 41.5753 46.6179 41.5673 46.1926 40.946C45.7193 40.2526 45.6913 39.362 45.7419 38.5513C45.8859 36.8593 46.2753 35.2006 46.6593 33.55C45.3899 33.9073 44.1246 34.2806 42.8606 34.6593C41.9219 36.3966 41.0833 38.1873 40.2726 39.9886C39.4606 41.8993 38.5899 43.802 38.0993 45.8286C37.9579 46.3073 37.6913 46.9006 37.1219 46.95C36.0019 46.9753 35.0846 45.7526 35.4193 44.6793C35.8499 43.2406 36.4606 41.8646 37.0553 40.4873C37.7153 38.9513 38.4553 37.4526 39.2206 35.9673C38.2046 36.382 37.2139 36.854 36.2513 37.3806C35.8259 37.6566 35.2193 37.5566 34.9126 37.1526C34.4433 36.418 34.5353 35.2206 35.4113 34.8273C37.0939 34.0553 38.8366 33.4073 40.6139 32.8846C40.7726 32.8233 40.9819 32.802 41.0699 32.634C43.1046 29.126 45.2473 25.67 47.6686 22.414C48.4726 21.3726 49.2739 20.3113 50.2619 19.4353ZM44.3793 31.8326C45.3486 31.598 46.3486 31.4633 47.2926 31.15C47.8926 28.5286 48.7553 25.9713 49.6659 23.4446C47.7246 26.122 46.0153 28.9593 44.3793 31.8326Z" fill="white"/>
</svg>
