<svg width="133" height="66" viewBox="0 0 133 66" fill="none" xmlns="http://www.w3.org/2000/svg">
<path d="M55.5547 28.5952C55.5547 27.7467 56.2384 27.0605 57.08 27.0605C57.9245 27.0605 58.6109 27.7467 58.6109 28.5952C58.6109 29.4425 57.9245 30.1294 57.08 30.1294C56.2384 30.1294 55.5547 29.4425 55.5547 28.5952Z" fill="white"/>
<path d="M79.668 38.8014C79.668 37.9526 80.3511 37.2656 81.1932 37.2656C82.0374 37.2656 82.7231 37.9526 82.7231 38.8014C82.7231 39.648 82.0374 40.3356 81.1932 40.3356C80.3511 40.3356 79.668 39.648 79.668 38.8014Z" fill="white"/>
<path d="M30.4735 38.1384C29.1573 38.1384 28.2426 37.0914 28.2426 35.5953C28.2426 34.0996 29.1573 33.0534 30.4735 33.0534C31.7973 33.0534 32.722 34.0996 32.722 35.5953C32.722 37.115 31.8165 38.1384 30.4735 38.1384ZM30.4735 30.8184C27.6889 30.8184 25.668 32.8279 25.668 35.5953C25.668 38.3628 27.6889 40.3719 30.4735 40.3719C33.2685 40.3719 35.2978 38.3628 35.2978 35.5953C35.2978 32.8279 33.2685 30.8184 30.4735 30.8184Z" fill="white"/>
<path d="M52.5962 35.834C52.4879 35.63 52.3638 35.4572 52.2317 35.3201L52.1475 35.2307L52.2361 35.1455C52.3639 35.0106 52.4945 34.8507 52.6205 34.6652L55.0779 31.0064H52.0948L50.2484 33.8684C50.1439 34.0219 49.9329 34.0993 49.617 34.0993H49.1962V28.6885C49.1962 27.6062 48.5231 27.459 47.7958 27.459H46.5508L46.5529 40.2309H49.1962V36.3998H49.4438C49.7451 36.3998 49.9504 36.4347 50.0444 36.5987L51.5026 39.3552C51.9099 40.1033 52.3159 40.2309 53.0795 40.2309H55.1052L53.5965 37.7315L52.5962 35.834Z" fill="white"/>
<path d="M65.4264 30.7988C64.0819 30.7988 63.224 31.3971 62.7432 31.9029L62.5827 32.0654L62.5261 31.8443C62.3849 31.3025 61.9089 31.0043 61.1925 31.0043H60.0078L60.0152 40.2288H62.6406V35.9773C62.6406 35.5617 62.6945 35.2009 62.8042 34.8718C63.0965 33.8757 63.9116 33.2564 64.9305 33.2564C65.75 33.2564 66.0702 33.6896 66.0702 34.8089V38.8265C66.0702 39.7819 66.5116 40.2288 67.4659 40.2288H68.7153L68.7114 34.362C68.7114 32.0309 67.5754 30.7988 65.4264 30.7988Z" fill="white"/>
<path d="M57.1155 31.0078H55.8711L55.8796 38.1402L55.8788 40.2305H57.207C57.2237 40.2305 57.2371 40.2323 57.2538 40.2323L57.8725 40.2305H58.4883V40.2269H58.4926L58.4979 32.4083C58.4979 31.4649 58.0467 31.0078 57.1155 31.0078Z" fill="white"/>
<path d="M40.7852 38.1384C39.4691 38.1384 38.5526 37.0914 38.5526 35.5953C38.5526 34.0996 39.4691 33.0534 40.7852 33.0534C42.1062 33.0534 43.0335 34.0996 43.0335 35.5953C43.0335 37.115 42.1284 38.1384 40.7852 38.1384ZM40.7852 30.8184C37.9978 30.8184 35.9766 32.8279 35.9766 35.5953C35.9766 38.3628 37.9978 40.3719 40.7852 40.3719C43.5774 40.3719 45.61 38.3628 45.61 35.5953C45.61 32.8279 43.5774 30.8184 40.7852 30.8184Z" fill="white"/>
<path d="M97.0581 38.1384C95.7427 38.1384 94.8253 37.0914 94.8253 35.5953C94.8253 34.0996 95.7427 33.0534 97.0581 33.0534C98.3794 33.0534 99.3074 34.0996 99.3074 35.5953C99.3074 37.115 98.4019 38.1384 97.0581 38.1384ZM97.0581 30.8184C94.2716 30.8184 92.25 32.8279 92.25 35.5953C92.25 38.3628 94.2716 40.3719 97.0581 40.3719C99.8506 40.3719 101.883 38.3628 101.883 35.5953C101.883 32.8279 99.8506 30.8184 97.0581 30.8184Z" fill="white"/>
<path d="M74.2483 37.7326C72.8128 37.7326 72.302 36.4784 72.302 35.3031C72.302 34.7852 72.4326 33.0975 74.1104 33.0975C74.9439 33.0975 76.0547 33.3368 76.0547 35.39C76.0547 37.3265 75.072 37.7326 74.2483 37.7326ZM77.4183 30.9829C76.92 30.9829 76.5365 31.1817 76.3445 31.5451L76.2719 31.6862L76.1504 31.5803C75.726 31.213 74.9664 30.7773 73.7328 30.7773C71.2776 30.7773 69.625 32.624 69.625 35.3721C69.625 38.1171 71.3351 40.0353 73.7823 40.0353C74.6179 40.0353 75.2786 39.84 75.8019 39.4429L76.0046 39.2906V39.547C76.0046 40.779 75.2093 41.4587 73.7672 41.4587C73.0662 41.4587 72.428 41.2878 72.0017 41.1328C71.4446 40.9644 71.1179 41.1038 70.8922 41.6634L70.6836 42.1798L70.3893 42.934L70.5714 43.0315C71.4948 43.5221 72.696 43.8148 73.7823 43.8148C76.0178 43.8148 78.6287 42.6686 78.6287 39.4429L78.638 30.9829H77.4183Z" fill="white"/>
<path d="M20.6951 38.0334L18.558 38.0312V35.4722C18.558 34.9253 18.7696 34.6409 19.2377 34.5754H20.6951C21.7353 34.5754 22.4074 35.2326 22.4082 36.2955C22.4074 37.3865 21.752 38.0326 20.6951 38.0334ZM18.558 31.1301V30.4566C18.558 29.8671 18.807 29.5867 19.3536 29.5508H20.447C21.3849 29.5508 21.9466 30.113 21.9466 31.0534C21.9466 31.7705 21.5621 32.6073 20.4816 32.6073H18.558V31.1301ZM23.4245 33.684L23.0381 33.4666L23.3754 33.1779C23.7676 32.84 24.4251 32.0807 24.4251 30.7686C24.4251 28.7612 22.8704 27.4656 20.4641 27.4656H17.7181L17.4054 27.4648C16.692 27.491 16.1213 28.0721 16.1133 28.791V40.1855H17.3735C17.3767 40.1862 17.3778 40.1855 17.3788 40.1862L20.5184 40.1855C23.1933 40.1855 24.9198 38.7272 24.9198 36.4686C24.9198 35.2525 24.3624 34.2128 23.4245 33.684Z" fill="white"/>
<path d="M113.612 30.8281C112.523 30.8281 111.47 31.339 110.794 32.1958L110.603 32.4373L110.454 32.1671C109.968 31.279 109.131 30.8281 107.967 30.8281C106.747 30.8281 105.928 31.51 105.548 31.9155L105.3 32.1853L105.204 31.8303C105.065 31.3194 104.611 31.0379 103.923 31.0379H102.82L102.809 40.2268H105.316V36.1706C105.316 35.8153 105.36 35.4636 105.449 35.0959C105.689 34.1159 106.346 33.0617 107.452 33.1672C108.133 33.2326 108.467 33.7603 108.467 34.7796V40.2268H110.991V36.1706C110.991 35.7266 111.033 35.3942 111.133 35.0607C111.336 34.125 112.023 33.1657 113.089 33.1657C113.862 33.1657 114.147 33.6036 114.147 34.7796V38.8834C114.147 39.8118 114.561 40.2268 115.487 40.2268H116.667L116.669 34.3607C116.669 32.0172 115.639 30.8281 113.612 30.8281Z" fill="white"/>
<path d="M90.7984 37.0364C90.7912 37.0455 89.7121 38.1848 88.2918 38.1848C86.9975 38.1848 85.69 37.3895 85.69 35.6141C85.69 34.0813 86.7038 33.01 88.1551 33.01C88.6264 33.01 89.1623 33.1791 89.2461 33.4634L89.258 33.5115C89.4514 34.1562 90.0368 34.1908 90.1516 34.1908L91.5251 34.1923V32.9897C91.5251 31.4034 89.5108 30.8281 88.1551 30.8281C85.2558 30.8281 83.1523 32.8496 83.1523 35.6335C83.1523 38.4161 85.2333 40.4348 88.1017 40.4348C90.5905 40.4348 91.9442 38.7962 91.9574 38.7798L92.0293 38.691L90.9417 36.8837L90.7984 37.0364Z" fill="white"/>
</svg>
