<svg width="65" height="22" viewBox="0 0 65 22" fill="none" xmlns="http://www.w3.org/2000/svg">
<g clip-path="url(#clip0_1005_9896)">
<path d="M16.7734 0.5H19.7087V20.5H16.7734V0.5ZM29.9824 14.12C29.9824 17.1808 27.6216 17.4248 26.9193 17.4248C25.1648 17.4248 24.8455 15.6344 24.8455 14.5544V6.9H21.9102V14.5384C21.9102 16.4344 22.4562 17.9992 23.4131 19.0424C24.2585 19.9648 25.5251 20.4688 26.8973 20.4688C27.8704 20.4688 29.2485 20.1384 29.9824 19.408V20.5H32.9177V6.9H29.9824V14.12ZM38.7884 2.1H35.853V6.9H33.6515V10.1H35.853V20.5H38.7884V10.1H40.9899V6.9H38.7884V2.1ZM50.2339 16.4336C49.5948 17.06 48.7509 17.4072 47.8248 17.4072C45.7833 17.4072 44.284 15.7728 44.284 13.5288C44.284 11.2848 45.7356 9.7192 47.8248 9.7192C48.7347 9.7192 49.5948 10.0496 50.2501 10.676L50.6955 11.0936L52.6747 8.9368L52.1793 8.4496C51.0147 7.3032 49.4686 6.66 47.824 6.66C44.1549 6.66 41.4903 9.5464 41.4903 13.512C41.4903 17.4608 44.2187 20.4504 47.824 20.4504C49.4994 20.4504 51.0617 19.8072 52.2116 18.6424L52.6901 18.1552L50.6801 16L50.2339 16.4336ZM63.1516 8.0856C62.3062 7.164 61.3156 6.66 59.9433 6.66C58.9702 6.66 57.868 6.9904 57.1342 7.72V0.5H54.1988V20.5H57.1342V13.008C57.1342 9.9472 59.1287 9.704 59.831 9.704C61.5856 9.704 61.5372 11.4952 61.5372 12.5736V20.5H64.4725V12.5904C64.4725 10.6944 64.1093 9.1296 63.1516 8.0856Z" fill="white"/>
<path d="M47.7317 11.249C48.2945 11.249 48.8343 11.4928 49.2323 11.9267C49.6303 12.3605 49.8539 12.949 49.8539 13.5626C49.8539 14.1762 49.6303 14.7647 49.2323 15.1986C48.8343 15.6325 48.2945 15.8762 47.7317 15.8762C47.1688 15.8762 46.629 15.6325 46.231 15.1986C45.833 14.7647 45.6094 14.1762 45.6094 13.5626C45.6094 12.949 45.833 12.3605 46.231 11.9267C46.629 11.4928 47.1688 11.249 47.7317 11.249Z" fill="white"/>
<path d="M12.6667 15.4774C11.5505 16.7294 10.0344 17.4078 8.43908 17.4078C5.16912 17.4078 2.7915 14.6078 2.7915 10.7646C2.7915 6.90375 5.16912 4.10375 8.43908 4.10375C10.019 4.10375 11.5182 4.78135 12.6513 6.01655L13.0974 6.50375L15.0597 4.36455L14.629 3.87735C13.002 2.05095 10.8005 1.06055 8.43908 1.06055C3.62146 1.06055 0 5.23415 0 10.7814C0 16.3118 3.63761 20.4686 8.43908 20.4686C10.8167 20.4686 13.0182 19.4606 14.6451 17.6342L15.0759 17.147L13.1297 14.9734L12.6667 15.4774Z" fill="white"/>
</g>
<defs>
<clipPath id="clip0_1005_9896">
<rect width="65" height="21" fill="white" transform="translate(0 0.5)"/>
</clipPath>
</defs>
</svg>
