<svg width="109" height="18" viewBox="0 0 109 18" fill="none" xmlns="http://www.w3.org/2000/svg">
<g clip-path="url(#clip0_1005_9915)">
<path d="M15.1069 4.73828H18.8971C21.9477 4.73828 24.0738 6.79509 24.0738 9.44609V9.49184C24.0738 12.1428 21.9938 14.1996 18.8971 14.1996H15.1069V4.73828ZM18.8971 12.2799C20.6535 12.2799 21.809 11.1373 21.809 9.49184V9.44609C21.809 7.80064 20.6535 6.61226 18.8971 6.61226H17.2793V12.2799H18.8971Z" fill="white"/>
<path d="M25.9233 4.73828H33.2724V6.56656H28.0957V8.48625H32.6716V10.3146H28.0957V12.2799H33.3649V14.1082H25.9695L25.9233 4.73828Z" fill="white"/>
<path d="M34.564 12.7802L35.8582 11.3176C36.7364 12.0031 37.6608 12.4602 38.7701 12.4602C39.6483 12.4602 40.1567 12.0945 40.1567 11.5918V11.5461C40.1567 10.9976 39.787 10.7233 38.2155 10.3577C36.2742 9.85495 34.98 9.35213 34.98 7.47817V7.43246C34.98 5.74131 36.3666 4.59863 38.4004 4.59863C39.787 4.59863 41.0349 5.00999 42.0056 5.78701L40.8963 7.38675C40.0643 6.79256 39.1861 6.47261 38.3541 6.47261C37.5222 6.47261 37.1061 6.83827 37.1061 7.29534V7.24963C37.1061 7.84382 37.5222 8.07235 39.1861 8.48371C41.1736 8.9865 42.2367 9.67212 42.2367 11.2718V11.3176C42.2367 13.1915 40.7576 14.2428 38.6776 14.2428C37.1986 14.2428 35.7195 13.74 34.564 12.7802Z" fill="white"/>
<path d="M44.1812 4.73828H46.3073V14.1539H44.1812V4.73828Z" fill="white"/>
<path d="M48.3374 9.44436C48.3374 6.74764 50.4636 4.55371 53.4217 4.55371C55.1781 4.55371 56.195 5.01078 57.2118 5.87921L55.8715 7.47895C55.1319 6.88477 54.4848 6.5191 53.3293 6.5191C51.7578 6.5191 50.556 7.84461 50.556 9.44436V9.49003C50.556 11.2269 51.7578 12.5067 53.5142 12.5067C54.2999 12.5067 54.9933 12.3239 55.5478 11.9125V10.587H53.3755V8.80445H57.5816V12.8724C56.5648 13.6951 55.2243 14.3807 53.4217 14.3807C50.3712 14.2436 48.3374 12.2324 48.3374 9.44436Z" fill="white"/>
<path d="M59.6187 4.73828H61.6062L66.1358 10.4974V4.73828H68.2158V14.1539H66.4132L61.6987 8.1663V14.1539H59.6187V4.73828Z" fill="white"/>
<path d="M70.5743 4.73438H75.0115C76.2595 4.73438 77.184 5.10003 77.831 5.69422C78.3857 6.2427 78.6631 6.97401 78.6631 7.84244V7.88815C78.6631 9.39649 77.831 10.3563 76.5831 10.8134L78.9403 14.15H76.4444L74.3645 11.1333H74.3182H72.6543V14.15H70.4819V4.73438H70.5743ZM74.8729 9.25933C75.936 9.25933 76.4907 8.71088 76.4907 7.93386V7.88815C76.4907 7.01972 75.8897 6.56265 74.8267 6.56265H72.7005V9.25933H74.8729Z" fill="white"/>
<path d="M80.4663 10.0817V4.68829H82.5925V9.99027C82.5925 11.5443 83.3781 12.2756 84.6722 12.2756C85.9664 12.2756 86.7527 11.4986 86.7527 9.99027V4.64258H88.8786V9.94461C88.8786 12.7784 87.2143 14.1953 84.6261 14.1953C82.0378 14.1953 80.4663 12.8241 80.4663 10.0817Z" fill="white"/>
<path d="M90.4038 12.7783L91.6979 11.3156C92.5766 12.0012 93.5007 12.4583 94.6101 12.4583C95.488 12.4583 95.9966 12.0926 95.9966 11.5898V11.5441C95.9966 10.9957 95.6265 10.7214 94.0554 10.3558C92.1142 9.85294 90.8201 9.35021 90.8201 7.47621V7.43051C90.8201 5.73935 92.2065 4.59668 94.24 4.59668C95.6265 4.59668 96.8745 5.00804 97.8455 5.78505L96.736 7.3848C95.9043 6.79061 95.0264 6.47066 94.1939 6.47066C93.3622 6.47066 92.9459 6.83631 92.9459 7.29338V7.24767C92.9459 7.84187 93.3622 8.0704 95.0264 8.48176C97.0138 8.98454 98.0763 9.67012 98.0763 11.2699V11.3156C98.0763 13.1896 96.5975 14.2409 94.5178 14.2409C93.0844 14.2409 91.5595 13.738 90.4038 12.7783Z" fill="white"/>
<path d="M99.9233 4.73438H102.049V8.48234H105.978V4.73438H108.104V14.15H105.978V10.402H102.049V14.15H99.9233V4.73438Z" fill="white"/>
<path d="M5.77225 11.5456C5.74182 11.5155 5.74182 11.5456 5.77225 11.5456L5.62013 11.4553L5.5897 11.4252L1.99967 8.89806C1.99967 8.89806 1.96925 8.89806 1.96925 8.86797L1.9084 8.8078L1.87798 8.77771H1.81713L0.782715 8.05566L2.82112 8.35652C2.91239 8.35652 2.94281 8.38661 3.03409 8.41669C3.06451 8.41669 3.12536 8.44677 3.12536 8.44677C3.21663 8.47686 3.24706 8.50694 3.30791 8.53703C3.36875 8.56712 3.39918 8.5972 3.46002 8.62729C3.49044 8.65738 3.55129 8.68746 3.55129 8.71755C3.58172 8.74763 3.61214 8.74763 3.64257 8.77771C3.70341 8.8078 3.73384 8.83789 3.73384 8.86797C3.82511 8.95823 3.88596 9.04848 3.97723 9.10864L5.5897 11.365L5.62013 11.3951L5.77225 11.5456Z" fill="white"/>
<path d="M5.77307 15.0355L5.62095 14.7948L5.59052 14.7647L0.813965 8.05566L1.84838 8.77771L2.03092 8.89806L5.62095 11.4252H5.65137L5.77307 11.5155C5.77307 11.5155 5.80349 11.5155 5.80349 11.5456L5.95562 11.4252L10.793 8.05566L5.92519 14.7948L5.89477 14.8249L5.77307 15.0355Z" fill="white"/>
<path d="M5.7768 10.403L5.62467 10.1623L5.59425 10.1323L4.40771 8.50763L5.59425 8.74831H5.62467L5.7768 8.7784L5.92891 8.74831L7.08502 8.47754L5.92891 10.1623V10.1924L5.7768 10.403Z" fill="white"/>
<path d="M10.8253 8.02734L9.30411 8.23794L8.72602 8.3282C8.26966 8.38837 7.84373 8.62906 7.56991 9.02016L5.95744 11.3067L5.92702 11.3368L5.7749 11.5474L5.95744 11.3669L5.98787 11.3368L5.7749 11.5474L9.8821 8.65914L10.8253 8.02734Z" fill="white"/>
<path d="M6.5377 3.27257C6.5377 4.59633 4.22548 5.2883 4.22548 6.70232C4.19506 7.03327 4.28633 7.36421 4.43845 7.66506C4.43845 7.66506 3.55615 6.82267 3.55615 5.9201C3.55615 5.01753 4.40803 3.66368 4.40803 3.66368C4.40803 4.2654 4.65141 4.44591 4.89481 4.47599H4.92523C5.19905 4.47599 5.35117 4.2654 5.35117 3.96454C5.35117 3.66368 5.01651 3.36283 5.01651 2.76112C5.01651 2.18949 5.74668 1.25684 5.74668 1.25684C6.26389 1.85855 6.5377 2.55052 6.5377 3.27257Z" fill="white"/>
<path d="M5.89646 8.0866C5.16628 8.0866 4.61865 7.51497 4.61865 6.82301V6.79292C4.61865 5.25856 6.77875 5.10813 6.77875 3.03223C6.8396 3.12249 7.41765 3.90471 7.41765 4.7471C7.41765 5.8001 6.41367 6.07087 6.41367 6.58232C6.41367 6.79292 6.50494 6.94335 6.80917 6.94335C6.8396 6.94335 6.87002 6.94335 6.90045 6.91326C7.4785 6.67258 7.87401 6.13104 7.90444 5.49924C7.90444 5.52933 8.20868 8.0866 5.89646 8.0866Z" fill="white"/>
<path d="M6.84012 6.94335C6.87055 6.94335 6.90097 6.94335 6.93139 6.91326C6.62715 7.00352 5.50146 7.27429 5.50146 6.49207C5.50146 5.52933 7.17478 5.31873 7.17478 4.50642C7.17478 3.99497 7.05309 3.48351 6.77927 3.03223C6.84012 3.12249 7.41818 3.90471 7.41818 4.7471C7.41818 5.8001 6.41419 6.07087 6.41419 6.58233C6.44461 6.79292 6.5663 6.94335 6.84012 6.94335Z" fill="white"/>
<path d="M5.9265 3.81411C5.9265 4.56624 4.95294 4.50608 4.89209 4.47599H4.98336C5.25718 4.47599 5.4093 4.2654 5.4093 3.96454C5.4093 3.66368 5.07464 3.36283 5.07464 2.76112C5.07464 2.18949 5.80481 1.25684 5.80481 1.25684C5.56142 1.64795 5.43972 2.06914 5.4093 2.49035C5.4093 3.18231 5.9265 3.24248 5.9265 3.81411Z" fill="white"/>
<path d="M5.31532 16.9608L4.646 16.5095H5.46744L5.74126 15.6973L5.98464 16.5095H6.80609L6.13677 16.9608L6.38016 17.7431L5.71083 17.2617L5.01108 17.7431L5.31532 16.9608Z" fill="white"/>
<path d="M8.81922 16.9608L8.1499 16.5095H8.97134L9.24518 15.6973L9.48859 16.5095H10.31L9.64067 16.9608L9.88408 17.7431L9.21476 17.2617L8.51499 17.7431L8.81922 16.9608Z" fill="white"/>
<path d="M1.85048 16.9608L1.18115 16.5095H2.0026L2.27642 15.6973L2.5198 16.5095H3.34125L2.67193 16.9608L2.91531 17.7431L2.24599 17.2617L1.57666 17.7431L1.85048 16.9608Z" fill="white"/>
</g>
<defs>
<clipPath id="clip0_1005_9915">
<rect width="107.981" height="17.31" fill="white" transform="translate(0.759277 0.5)"/>
</clipPath>
</defs>
</svg>
