<svg width="24" height="24" viewBox="0 0 24 24" fill="none" xmlns="http://www.w3.org/2000/svg">
<path fill-rule="evenodd" clip-rule="evenodd" d="M12 4C10.4178 4 8.87103 4.46919 7.55544 5.34824C6.23985 6.22729 5.21447 7.47672 4.60897 8.93853C4.00347 10.4003 3.84504 12.0089 4.15372 13.5607C4.4624 15.1126 5.22433 16.538 6.34315 17.6569C7.46197 18.7757 8.88743 19.5376 10.4393 19.8463C11.9911 20.155 13.5997 19.9965 15.0615 19.391C16.5233 18.7855 17.7727 17.7602 18.6518 16.4446C19.5308 15.129 20 13.5822 20 12C20 9.87827 19.1571 7.84344 17.6569 6.34315C16.1566 4.84285 14.1217 4 12 4ZM17.284 7.688C18.2688 8.88759 18.8137 10.388 18.828 11.94C17.2624 11.633 15.66 11.5599 14.073 11.723C14.021 11.61 13.973 11.489 13.925 11.367C13.786 11.037 13.625 10.699 13.474 10.378C14.9551 9.82569 16.2678 8.89889 17.284 7.688ZM12 5.18C13.6693 5.17956 15.2808 5.79156 16.529 6.9C15.5942 8.0459 14.3509 8.90023 12.946 9.362C12.1824 7.97531 11.3303 6.63922 10.395 5.362C10.9211 5.23915 11.4597 5.17807 12 5.18ZM9.093 5.822C10.0087 7.09104 10.8546 8.40899 11.627 9.77C9.56406 10.3084 7.442 10.5872 5.31 10.6C5.53014 9.56609 5.98607 8.59698 6.64225 7.76821C7.29843 6.93944 8.13714 6.2734 9.093 5.822ZM5.163 12.009V11.8C7.53732 11.8114 9.90112 11.4841 12.183 10.828C12.383 11.21 12.565 11.6 12.738 11.991L12.469 12.069C10.1634 12.8997 8.20641 14.4856 6.916 16.569C5.78838 15.3178 5.16392 13.6934 5.163 12.009ZM12 18.837C10.4816 18.8404 9.00589 18.3344 7.809 17.4C8.99343 15.3506 10.9088 13.8246 13.171 13.128C13.188 13.119 13.197 13.119 13.214 13.111C13.8637 14.7873 14.352 16.5219 14.672 18.291C13.828 18.6537 12.9186 18.8395 12 18.837ZM15.809 17.666C15.5069 16.009 15.0629 14.381 14.482 12.8C15.9044 12.5926 17.3548 12.6949 18.734 13.1C18.5872 14.0215 18.2516 14.9027 17.7482 15.6884C17.2449 16.4741 16.5847 17.1474 15.809 17.666Z" fill="white"/>
</svg>
