<svg width="24" height="24" viewBox="0 0 24 24" fill="none" xmlns="http://www.w3.org/2000/svg">
<path d="M19.3 4H4.7C4.51806 4.01134 4.34653 4.08874 4.21763 4.21763C4.08874 4.34653 4.01134 4.51806 4 4.7V19.3C4 19.4857 4.07375 19.6637 4.20503 19.795C4.3363 19.9263 4.51435 20 4.7 20H12.491V14.017H10.47V11.517H12.487V9.5C12.451 9.08296 12.5079 8.66313 12.6535 8.27068C12.799 7.87823 13.0298 7.5229 13.329 7.23023C13.6283 6.93756 13.9887 6.71482 14.3843 6.57801C14.7799 6.4412 15.2009 6.39373 15.617 6.439C16.522 6.439 17.217 6.509 17.496 6.509V8.665H16.243C15.27 8.665 14.991 9.152 14.991 9.847V11.517H17.491L17.004 14.017H14.99L15.06 20H19.3C19.4857 20 19.6637 19.9263 19.795 19.795C19.9263 19.6637 20 19.4857 20 19.3V4.7C19.9768 4.52247 19.8956 4.35759 19.769 4.23099C19.6424 4.10439 19.4775 4.02319 19.3 4Z" fill="white"/>
</svg>
