<svg width="109" height="18" viewBox="0 0 109 18" fill="none" xmlns="http://www.w3.org/2000/svg">
<g clip-path="url(#clip0_1005_9907)">
<path d="M7.00628 6.5778C7.00628 6.5778 6.10642 6.48709 6.10642 7.28538V10.8596H12.0095V11.93C12.0095 11.93 12.0275 12.4562 11.4696 12.4562H6.10642V17.1008H12.5494C12.5494 17.1008 16.4548 16.5021 16.4908 12.4562V6.5778H7.00628ZM16.3108 0.880859H4.68463C0.473288 1.87873 0.383301 5.36221 0.383301 5.36221V17.119H4.84661V6.41451C4.84661 5.50735 5.74648 5.34407 5.74648 5.34407H16.2928L16.3108 0.880859ZM31.6625 13.7444C31.3565 13.9439 31.1226 14.1072 30.9606 14.1979C30.3846 14.5608 29.8447 14.833 29.3409 15.0506C28.6029 15.3591 27.955 15.5042 27.3611 15.5042C25.3455 15.5042 23.6717 14.8874 22.3399 13.6355C20.9901 12.3836 20.3242 10.8052 20.3242 8.91823C20.3242 7.08581 20.9182 5.50736 22.1419 4.14662C23.3478 2.80403 24.8235 2.13274 26.5512 2.13274C27.2712 2.13274 28.0451 2.25973 28.8369 2.51374C29.8808 2.84032 30.7086 3.34832 31.3925 3.98333L30.2407 5.27149C29.7548 4.78163 29.1069 4.43691 28.369 4.21919C27.8111 4.0559 27.1991 3.96519 26.5153 3.96519C25.3094 3.96519 24.2836 4.45505 23.4558 5.43478C22.6459 6.43266 22.2319 7.59382 22.2319 8.97271C22.2319 10.3335 22.6999 11.4583 23.6357 12.3473C24.5716 13.2363 25.7594 13.6899 27.1991 13.6899C27.793 13.6899 28.405 13.4903 29.0348 13.1275C29.5568 12.7283 29.8268 12.5288 29.8268 12.5288V9.69839H25.9214L26.4793 7.93854H31.6625V13.7444ZM43.4147 10.2972C43.4147 11.6578 42.9287 12.8372 41.9749 13.835C41.021 14.833 39.8332 15.341 38.4115 15.341C37.0976 15.341 35.9638 14.8511 34.9739 13.8713C33.9841 12.8916 33.4982 11.7123 33.4982 10.3153C33.4982 8.93642 33.9661 7.75711 34.902 6.74109C35.8378 5.72507 36.9896 5.23521 38.3214 5.23521C39.8152 5.23521 41.021 5.72507 41.9749 6.68666C42.9287 7.6301 43.4147 8.84573 43.4147 10.2972ZM41.597 10.3335C41.597 9.40813 41.291 8.62797 40.6791 7.99297C40.0672 7.33981 39.3113 7.03138 38.3934 7.03138C37.5476 7.03138 36.8277 7.35796 36.2157 8.02925C35.6218 8.68237 35.3159 9.44442 35.3159 10.2972C35.3159 11.1861 35.6218 11.9482 36.2157 12.5832C36.8097 13.2182 37.5655 13.5448 38.4655 13.5448C39.3113 13.5448 40.0312 13.2363 40.6431 12.6014C41.291 11.9482 41.597 11.1861 41.597 10.3335ZM55.0229 10.2972C55.0229 11.6578 54.5369 12.8372 53.5831 13.835C52.6292 14.833 51.4414 15.341 50.0197 15.341C48.7058 15.341 47.572 14.8511 46.5821 13.8713C45.5923 12.8916 45.1064 11.7123 45.1064 10.3153C45.1064 8.93642 45.5743 7.75711 46.5102 6.74109C47.446 5.72507 48.5979 5.23521 49.9296 5.23521C51.4234 5.23521 52.6292 5.72507 53.5831 6.68666C54.5369 7.6301 55.0229 8.84573 55.0229 10.2972ZM53.1871 10.3335C53.1871 9.40813 52.8812 8.62797 52.2693 7.99297C51.6574 7.33981 50.9015 7.03138 49.9836 7.03138C49.1378 7.03138 48.4179 7.35796 47.806 8.02925C47.2121 8.68237 46.9061 9.44442 46.9061 10.2972C46.9061 11.1861 47.2121 11.9482 47.806 12.5832C48.3999 13.2182 49.1558 13.5448 50.0556 13.5448C50.9015 13.5448 51.6214 13.2363 52.2333 12.6014C52.8812 11.9482 53.1871 11.1861 53.1871 10.3335ZM65.7492 15.0688L64.0754 15.3228V13.6899L63.7155 14.1072C63.3916 14.4156 63.0317 14.6515 62.6537 14.8511C62.0778 15.1232 61.4659 15.2502 60.8359 15.2502C59.5222 15.2502 58.4063 14.7604 57.5065 13.7988C56.6067 12.8372 56.1387 11.6578 56.1387 10.3153C56.1387 8.91823 56.5886 7.72082 57.4885 6.74109C58.3884 5.74322 59.4682 5.25335 60.7819 5.25335C61.5378 5.25335 62.1857 5.38035 62.7257 5.61621C63.1216 5.79765 63.4456 6.03351 63.7336 6.3238C63.8235 6.45079 63.9135 6.5778 64.0215 6.7048V2.40488L65.8032 2.15088L65.7492 15.0688ZM64.1834 10.4241C64.1834 9.46253 63.8595 8.64608 63.2116 7.99297C62.5637 7.32167 61.8258 6.99509 60.98 6.99509C60.0441 6.99509 59.3062 7.30353 58.7303 7.93854C58.1904 8.53726 57.9204 9.28115 57.9204 10.152C57.9204 11.1317 58.2084 11.9482 58.7663 12.5832C59.3242 13.2182 60.0261 13.5266 60.908 13.5266C61.7538 13.5266 62.5097 13.2363 63.1756 12.6376C63.8415 12.0389 64.1834 11.295 64.1834 10.4241ZM75.1798 4.18291H70.1765V7.61196H74.0639V9.37184H70.1765V15.0506L68.2328 15.341V2.40488H74.8018L75.1798 4.18291ZM79.1931 3.18504L77.9874 4.70905L76.8355 3.18504L78.0413 1.67916L79.1931 3.18504ZM78.8332 15.0688L77.0515 15.3228V5.74322L78.8332 5.47107V15.0688ZM86.8958 5.36221L86.0498 7.32167C85.9418 7.30352 85.8338 7.30353 85.708 7.30353C85.5286 7.30353 85.3662 7.32167 85.1859 7.33981C85.0065 7.35795 84.8263 7.43053 84.6282 7.53939C84.2506 7.70268 83.9267 8.06553 83.6563 8.59169C83.3502 9.20857 83.1887 9.87985 83.1887 10.5693V15.0506L81.4068 15.341V5.74322L83.0628 5.43478V7.43053C83.2788 7.08581 83.4947 6.74109 83.7107 6.37823C84.016 6.01536 84.3765 5.76136 84.7719 5.59807C84.9878 5.50735 85.3662 5.45293 85.9597 5.3985C86.5361 5.36222 86.8601 5.34407 86.8958 5.36221ZM100.214 15.0688L98.4322 15.3228V8.75496C98.4322 8.15626 98.3063 7.70267 98.036 7.43053C97.7664 7.15838 97.3702 7.01323 96.8481 7.01323C96.2181 7.01323 95.7504 7.26724 95.4265 7.79339C95.2105 8.15625 95.0847 8.53726 95.0847 8.91823V15.0325L93.3026 15.3591V8.77314C93.3026 8.19253 93.1767 7.7571 92.9072 7.44867C92.6368 7.14024 92.295 6.99509 91.8452 6.99509H91.6649C91.0357 6.99509 90.5851 7.24909 90.2977 7.79339C90.0817 8.19254 89.9737 8.70056 89.9737 9.31744V15.0143L88.1193 15.341V5.70693L89.7935 5.41664V6.65038C89.9737 6.36009 90.1718 6.12422 90.3334 5.96093C90.8197 5.50735 91.3775 5.28964 92.0067 5.28964C92.709 5.28964 93.2311 5.3985 93.5908 5.63436C93.8969 5.83393 94.1851 6.21494 94.4904 6.75924C95.1025 5.7795 95.9664 5.28964 97.1185 5.28964C98.2162 5.28964 99.0257 5.63436 99.5656 6.34194C99.9975 6.92252 100.214 7.77525 100.214 8.88194V15.0688ZM108.367 12.1658C108.367 13.0549 108.061 13.7806 107.448 14.3431C106.837 14.9236 106.063 15.1958 105.127 15.1958C104.425 15.1958 103.796 15.0325 103.219 14.7059C102.644 14.3793 102.212 13.9983 101.941 13.5629L103.201 12.438C103.291 12.5832 103.382 12.692 103.454 12.7646C103.921 13.2544 104.479 13.4903 105.127 13.4903C105.577 13.4903 105.937 13.3633 106.189 13.1275C106.459 12.8916 106.584 12.5651 106.584 12.1296C106.584 11.6397 106.279 11.3132 105.667 11.1317C104.461 10.7689 103.796 10.5511 103.705 10.5148C103.148 10.2246 102.751 9.91614 102.5 9.57141C102.212 9.17227 102.068 8.64608 102.068 7.97482C102.068 7.14024 102.373 6.46894 102.967 5.9065C103.561 5.36221 104.281 5.09007 105.109 5.09007C105.739 5.09007 106.315 5.23521 106.855 5.5255C107.395 5.81579 107.772 6.12422 108.007 6.46894L106.945 7.6301C106.783 7.46681 106.603 7.32167 106.423 7.19467C105.991 6.88623 105.577 6.74109 105.199 6.74109C104.821 6.74109 104.515 6.8318 104.281 6.99509C103.993 7.19467 103.849 7.5031 103.849 7.90225C103.849 8.28325 103.975 8.57354 104.263 8.75496C104.497 8.90012 105.001 9.0634 105.811 9.24486C106.603 9.44442 107.232 9.77097 107.664 10.2427C108.169 10.7507 108.367 11.3676 108.367 12.1658Z" fill="white"/>
</g>
<defs>
<clipPath id="clip0_1005_9907">
<rect width="107.983" height="17.05" fill="white" transform="translate(0.383301 0.475098)"/>
</clipPath>
</defs>
</svg>
