<svg width="133" height="66" viewBox="0 0 133 66" fill="none" xmlns="http://www.w3.org/2000/svg">
<path d="M60.6836 35.5C60.6836 38.6666 58.2142 41 55.1836 41C52.153 41 49.6836 38.6666 49.6836 35.5C49.6836 32.3111 52.153 30 55.1836 30C58.2142 30 60.6836 32.3111 60.6836 35.5ZM58.276 35.5C58.276 33.5212 56.8447 32.1673 55.1836 32.1673C53.5224 32.1673 52.0912 33.5212 52.0912 35.5C52.0912 37.4589 53.5224 38.8327 55.1836 38.8327C56.8447 38.8327 58.276 37.4565 58.276 35.5Z" fill="white"/>
<path d="M73.1836 35.5C73.1836 38.6666 70.7137 41 67.6836 41C64.653 41 62.1836 38.6666 62.1836 35.5C62.1836 32.3136 64.653 30 67.6836 30C70.7137 30 73.1836 32.3111 73.1836 35.5ZM70.776 35.5C70.776 33.5212 69.3448 32.1673 67.6836 32.1673C66.0223 32.1673 64.5912 33.5212 64.5912 35.5C64.5912 37.4589 66.0223 38.8327 67.6836 38.8327C69.3448 38.8327 70.776 37.4565 70.776 35.5Z" fill="white"/>
<path d="M85.6836 30.3338V40.2531C85.6836 44.3335 83.1846 46 80.2304 46C77.4493 46 75.7759 44.2089 75.1443 42.7442L77.3382 41.8649C77.7291 42.7641 78.6858 43.8253 80.2281 43.8253C82.1191 43.8253 83.2904 42.7019 83.2904 40.5869V39.7923H83.203C82.6389 40.4624 81.5527 41.0478 80.1813 41.0478C77.3121 41.0478 74.6836 38.6414 74.6836 35.545C74.6836 32.4263 77.3121 30 80.1813 30C81.5496 30 82.6366 30.5854 83.203 31.2356H83.2904V30.3363H85.6836V30.3338ZM83.469 35.545C83.469 33.5996 82.1214 32.1772 80.4067 32.1772C78.6681 32.1772 77.2117 33.5996 77.2117 35.545C77.2117 37.4707 78.6681 38.8731 80.4067 38.8731C82.1214 38.8731 83.469 37.4707 83.469 35.545Z" fill="white"/>
<path d="M90.1836 25V41H87.1836V25H90.1836Z" fill="white"/>
<path d="M99.7331 37.3127L101.581 38.5624C100.984 39.4576 99.547 41 97.0635 41C93.9839 41 91.6836 38.5847 91.6836 35.5C91.6836 32.2293 94.0034 30 96.7969 30C99.6107 30 100.987 32.2714 101.437 33.4989L101.684 34.1237L94.4358 37.1688C94.9906 38.2723 95.8539 38.8352 97.0635 38.8352C98.2759 38.8352 99.1168 38.2301 99.7331 37.3127ZM94.0447 35.3338L98.8894 33.2931C98.6228 32.6061 97.8211 32.1275 96.8781 32.1275C95.6678 32.1275 93.9839 33.2112 94.0447 35.3338Z" fill="white"/>
<path d="M40.0319 34.1043V31.7818H48.0645C48.1431 32.1866 48.1836 32.6654 48.1836 33.1837C48.1836 34.9261 47.6947 37.0807 46.1191 38.6159C44.5865 40.1707 42.6284 41 40.0344 41C35.2265 41 31.1836 37.1844 31.1836 32.5C31.1836 27.8156 35.2265 24 40.0344 24C42.6943 24 44.5891 25.0168 46.0127 26.3422L44.3307 27.981C43.3098 27.0481 41.9267 26.3225 40.0319 26.3225C36.521 26.3225 33.775 29.0793 33.775 32.5C33.775 35.9207 36.521 38.6775 40.0319 38.6775C42.3092 38.6775 43.6062 37.7866 44.4371 36.977C45.1109 36.3205 45.5542 35.3827 45.729 34.1018L40.0319 34.1043Z" fill="white"/>
</svg>
