<svg width="64" height="22" viewBox="0 0 64 22" fill="none" xmlns="http://www.w3.org/2000/svg">
<g clip-path="url(#clip0_1005_9965)">
<path d="M15.7454 7.56468H8.51071V9.67715H13.642C13.3877 12.634 10.8839 13.9032 8.51937 13.9032C7.77029 13.9065 7.02806 13.7628 6.33601 13.4807C5.64396 13.1986 5.01596 12.7836 4.48868 12.26C3.96139 11.7364 3.54538 11.1147 3.26494 10.4312C2.9845 9.74762 2.84525 9.01596 2.85531 8.27888C2.85531 5.0809 5.37126 2.61872 8.52631 2.61872C10.9602 2.61872 12.3944 4.1455 12.3944 4.1455L13.8968 2.61361C13.8968 2.61361 11.9668 0.5 8.44772 0.5C3.96651 0.5 0.5 4.2217 0.5 8.24136C0.5 12.1803 3.7608 16.0214 8.56098 16.0214C12.7833 16.0214 15.8742 13.1748 15.8742 8.96579C15.8742 8.07759 15.7431 7.56468 15.7431 7.56468H15.7454Z" fill="white"/>
<path d="M21.6708 6.03475C18.7018 6.03475 16.5742 8.31894 16.5742 10.9818C16.5742 13.6851 18.6371 16.0114 21.7055 16.0114C24.4826 16.0114 26.7576 13.9228 26.7576 11.0398C26.7576 7.74178 24.111 6.03475 21.6708 6.03475ZM21.6997 7.99425C23.1593 7.99425 24.5427 9.15597 24.5427 11.0273C24.5427 12.8583 23.1651 14.0536 21.6927 14.0536C20.0748 14.0536 18.8035 12.7787 18.8035 11.0126C18.8035 9.28391 20.0632 7.99425 21.7043 7.99425H21.6997Z" fill="white"/>
<path d="M32.7568 6.03475C29.7878 6.03475 27.6602 8.31894 27.6602 10.9818C27.6602 13.6851 29.7231 16.0114 32.7915 16.0114C35.5686 16.0114 37.8436 13.9228 37.8436 11.0398C37.8436 7.74178 35.1971 6.03475 32.7568 6.03475ZM32.7857 7.99425C34.2453 7.99425 35.6287 9.15597 35.6287 11.0273C35.6287 12.8583 34.2511 14.0536 32.7788 14.0536C31.1608 14.0536 29.8895 12.7787 29.8895 11.0126C29.8895 9.28391 31.1492 7.99425 32.7903 7.99425H32.7857Z" fill="white"/>
<path d="M43.6244 6.04004C40.8993 6.04004 38.7578 8.38849 38.7578 11.0247C38.7578 14.027 41.2408 16.0184 43.577 16.0184C45.0216 16.0184 45.7902 15.4537 46.3507 14.8061V15.7898C46.3507 17.511 45.2886 18.542 43.6857 18.542C42.137 18.542 41.3604 17.4087 41.0853 16.7661L39.1368 17.5622C39.8279 19.0009 41.2194 20.5003 43.7018 20.5003C46.4177 20.5003 48.476 18.8212 48.476 15.2991V6.33971H46.3588V7.1847C45.7058 6.49096 44.8113 6.04004 43.6256 6.04004H43.6244ZM43.8209 7.99613C45.1569 7.99613 46.5287 9.11861 46.5287 11.0355C46.5287 12.9842 45.1592 14.0577 43.7914 14.0577C42.3387 14.0577 40.9871 12.8977 40.9871 11.0537C40.9871 9.13851 42.3913 7.99613 43.8209 7.99613Z" fill="white"/>
<path d="M57.9394 6.02637C55.3692 6.02637 53.2109 8.03933 53.2109 11.0076C53.2109 14.1498 55.6165 16.0132 58.1804 16.0132C60.3254 16.0132 61.6475 14.8589 62.4276 13.824L60.675 12.6765C60.2202 13.3702 59.4597 14.0498 58.1914 14.0498C56.7664 14.0498 56.1111 13.2821 55.7049 12.5372L62.5021 9.76228L62.1554 8.94914C61.499 7.35697 59.9665 6.02637 57.9394 6.02637ZM58.0278 7.94493C58.9541 7.94493 59.6204 8.42941 59.9035 9.01055L55.364 10.8774C55.1675 9.4319 56.5601 7.94493 58.0221 7.94493H58.0278Z" fill="white"/>
<path d="M49.9648 15.7178H52.1976V1.01465H49.9648V15.7178Z" fill="white"/>
</g>
<defs>
<clipPath id="clip0_1005_9965">
<rect width="63" height="21" fill="white" transform="translate(0.5 0.5)"/>
</clipPath>
</defs>
</svg>
