<svg width="132" height="66" viewBox="0 0 132 66" fill="none" xmlns="http://www.w3.org/2000/svg">
<path d="M37.8843 26.5312H34.3203V39.0052H37.8843V26.5312Z" fill="white"/>
<path d="M46.4623 34.5168L44.0863 26.4648H39.0703V38.9388H42.5023V30.3588L45.0103 39.0048H47.7823L50.3563 30.2928V39.0048H53.7883V26.5308H48.7723L46.4623 34.5168Z" fill="white"/>
<path d="M60.2562 26.5312H54.9102V39.0052H60.2562C64.5462 39.0052 66.79 36.2992 66.79 32.8012C66.79 29.3032 64.5462 26.5312 60.2562 26.5312ZM60.2562 35.8373H58.4742V29.6992H60.2562C62.1702 29.6992 63.1602 30.8872 63.1602 32.8012C63.2262 34.6493 62.2362 35.8373 60.2562 35.8373Z" fill="white"/>
<path d="M67.4531 38.9404H77.4191V35.7724H70.9511V34.0564H75.7691V31.2844H70.9511V29.5684H77.4851V26.4004H67.4531V38.9404Z" fill="white"/>
<path d="M77.4844 38.9399L89.6284 24.4199H94.0504L81.9064 38.9399H77.4844Z" fill="white"/>
<path d="M85.2734 35.8373L89.6294 41.0513H94.0514L87.4514 33.1973L85.2734 35.8373Z" fill="white"/>
<path d="M81.9064 26.5312H77.4844L82.3024 32.3392L84.5464 29.6333L81.9064 26.5312Z" fill="white"/>
<path d="M95.6997 24.6843H95.2377V25.9383H94.9737V24.6843H94.5117V24.4863H95.6997V24.6843Z" fill="white"/>
<path d="M96.1624 24.4199L96.6244 25.5419L97.0864 24.4199H97.4164V25.8719H97.1524V25.4099L97.2184 24.7499L96.7564 25.8719H96.5584L96.0964 24.7499L96.1624 25.4099V25.8719H95.8984V24.4199H96.1624Z" fill="white"/>
</svg>
