<svg width="24" height="24" viewBox="0 0 24 24" fill="none" xmlns="http://www.w3.org/2000/svg">
    <path fill-rule="evenodd" clip-rule="evenodd"
          d="M16.7368 2H7.26316C4.3564 2 2 4.3564 2 7.26316V16.7368C2 19.6436 4.3564 22 7.26316 22H16.7368C19.6436 22 22 19.6436 22 16.7368V7.26316C22 4.3564 19.6436 2 16.7368 2ZM12.0005 16.7374C14.6166 16.7374 16.7374 14.6166 16.7374 12.0005C16.7374 9.38443 14.6166 7.26367 12.0005 7.26367C9.38443 7.26367 7.26367 9.38443 7.26367 12.0005C7.26367 14.6166 9.38443 16.7374 12.0005 16.7374ZM19.8942 5.68222C19.8942 6.55425 19.1873 7.26117 18.3153 7.26117C17.4432 7.26117 16.7363 6.55425 16.7363 5.68222C16.7363 4.81019 17.4432 4.10327 18.3153 4.10327C19.1873 4.10327 19.8942 4.81019 19.8942 5.68222Z"
          fill="white"/>
</svg>
