<svg width="133" height="66" viewBox="0 0 133 66" fill="none" xmlns="http://www.w3.org/2000/svg">
<path d="M30.0233 34.5007L30.0554 27.2317H29.1253H28.4904H22.8565V28.7782H28.4904V34.5186C28.4904 35.5388 28.2237 36.2788 27.6919 36.7387C27.1495 37.1985 26.4328 37.4284 25.5419 37.4284C23.8808 37.4284 22.7409 36.6291 22.1221 35.0269L20.8203 35.7831C21.2222 36.8033 21.8411 37.5918 22.6769 38.1504C23.5021 38.709 24.4571 38.9892 25.5437 38.9892C26.7156 38.9892 27.7043 38.6767 28.5081 38.0516C29.0612 37.6133 29.4525 37.1194 29.6801 36.5716C29.9077 36.0364 30.0233 35.3449 30.0233 34.5007ZM44.1275 37.0997C44.7037 36.3542 44.99 35.3125 44.99 33.9744V27.2317H43.4268V33.9744C43.4268 34.9604 43.1778 35.7561 42.6782 36.3597C42.0913 37.0619 41.1523 37.4122 39.8612 37.4122C38.5684 37.4122 37.6294 37.0619 37.0443 36.3597C36.5446 35.7561 36.2956 34.9622 36.2956 33.9744V27.2317H34.7324V33.9744C34.7324 35.3125 35.0205 36.3542 35.595 37.0997C36.5819 38.3605 38.0046 38.991 39.8612 38.991C41.7178 38.991 43.1405 38.3605 44.1275 37.0997ZM51.216 30.3731C51.216 30.1001 51.2979 29.8307 51.4597 29.5666C51.6126 29.3152 51.8189 29.1123 52.0786 28.9578C52.589 28.6722 53.2718 28.5303 54.1308 28.5303C55.509 28.5303 56.6169 29.0009 57.4528 29.9438L58.8541 29.1374C57.6715 27.713 56.0905 27 54.1148 27C52.9535 27 51.9754 27.246 51.1841 27.74C50.1526 28.3866 49.6369 29.3188 49.6369 30.5348C49.6369 31.1598 49.7827 31.6699 50.0761 32.0651C50.3803 32.471 50.7555 32.762 51.2 32.9362C51.634 33.1123 52.139 33.2488 52.7152 33.3475C53.279 33.4463 53.8392 33.529 54.3922 33.5936C54.9453 33.6601 55.4557 33.7409 55.9234 33.8397C56.368 33.9385 56.7432 34.1307 57.0473 34.4145C57.3407 34.7 57.4866 35.0611 57.4866 35.4993C57.4866 35.7741 57.4101 36.0525 57.259 36.3381C57.106 36.6237 56.9104 36.8374 56.6721 36.9794C56.0959 37.3314 55.2992 37.5056 54.2784 37.5056C54.2784 37.5056 53.0193 37.4984 51.9985 36.9955C51.3139 36.6578 50.7714 36.2662 50.4034 35.7616L49.0198 36.6165C49.5835 37.3296 50.3162 37.9043 51.2178 38.3426C52.0982 38.7808 53.1225 39 54.2962 39C55.5766 39 56.6347 38.7377 57.4723 38.2097C58.5571 37.5415 59.1013 36.5716 59.1013 35.2982C59.1013 34.63 58.9537 34.0696 58.6621 33.6206C58.3686 33.1823 57.9934 32.8644 57.5381 32.6668C57.0829 32.4692 56.5778 32.3219 56.023 32.2231C55.7402 32.1675 55.4592 32.1226 55.1765 32.083C54.8937 32.0453 54.6109 32.0148 54.33 31.9932C53.7538 31.9394 53.2381 31.8729 52.7828 31.7957C52.3382 31.7185 51.963 31.5604 51.6589 31.3179C51.3619 31.097 51.216 30.779 51.216 30.3731ZM67.9614 28.7764H72.2757V27.2299H62.0819V28.7764H66.3979V38.7431H67.9614V28.7764ZM77.9502 28.7117H84.8893V27.2317H76.4192V38.7449H77.9502V33.8091H83.9097V32.3291H77.9502V28.7117ZM95.5239 34.2205H90.379L92.9524 28.6291L95.5239 34.2205ZM97.5922 38.7431H99.2213L93.8472 27.2299H92.0563L86.6822 38.7431H88.3107L89.7441 35.6178H96.1607L97.5922 38.7431ZM111.045 34.3696C111.23 34.6551 111.323 34.9784 111.323 35.3394C111.323 35.7005 111.23 36.0256 111.045 36.3093C110.871 36.5842 110.633 36.7979 110.329 36.9506C109.916 37.1481 109.292 37.247 108.456 37.247H104.679V33.4319H108.456C109.292 33.4319 109.916 33.5308 110.329 33.7283C110.633 33.881 110.871 34.0947 111.045 34.3696ZM110.686 30.2905C110.686 30.8724 110.475 31.3 110.051 31.5729C109.671 31.8262 109.02 31.9519 108.097 31.9519L104.677 31.9843V28.6291H108.097C109.02 28.6291 109.671 28.7548 110.051 29.0081C110.475 29.2919 110.686 29.7211 110.686 30.2905ZM111.844 31.5406C112.072 31.1347 112.185 30.7072 112.185 30.2582C112.185 29.1392 111.734 28.3075 110.834 27.7579C110.226 27.3969 109.314 27.2155 108.099 27.2155H103.213V38.7288H108.456C109.477 38.7288 110.307 38.5815 110.948 38.2851C111.479 38.0444 111.924 37.6655 112.283 37.1499C112.643 36.6453 112.82 36.0471 112.82 35.3574C112.82 34.0462 112.182 33.0835 110.909 32.4692C110.895 32.4782 110.882 32.4872 110.866 32.4962V32.4441C110.882 32.4513 110.893 32.4602 110.909 32.4674C111.311 32.2393 111.623 31.9321 111.844 31.5406Z" fill="white"/>
</svg>
