<svg width="133" height="66" viewBox="0 0 133 66" fill="none" xmlns="http://www.w3.org/2000/svg">
<mask id="mask0_1_16" style="mask-type:luminance" maskUnits="userSpaceOnUse" x="40" y="24" width="53" height="17">
<path d="M92.6848 24.8594H40.7188V40.8594H92.6848V24.8594Z" fill="white"/>
</mask>
<g mask="url(#mask0_1_16)">
<path fill-rule="evenodd" clip-rule="evenodd" d="M81.1878 33.2987C81.1981 35.9255 83.1246 38.3275 86.5296 38.3332C87.778 38.3135 89.3449 37.947 90.5787 37.5485L89.796 40.4052C88.2514 40.7383 86.3982 40.8291 84.5157 40.8592C78.1244 40.9035 75.3592 37.4825 75.342 34.0646C75.31 29.5247 80.382 24.91 88.2936 24.8613C90.0221 24.8416 91.4788 24.9973 92.5944 25.2701L91.7631 28.3043C90.0534 27.5596 88.7202 27.3851 87.4802 27.3742C83.5311 27.4102 81.1734 30.3748 81.1878 33.2987ZM85.1879 25.8251C81.6494 26.2104 76.0349 29.0126 76.0496 34.0476C76.0577 39.1071 81.4486 40.6498 85.3875 40.315C81.8297 40.1229 76.7156 38.7941 76.6994 34.0284C76.7073 29.0785 82.1245 26.6365 85.1879 25.8251Z" fill="white"/>
<path fill-rule="evenodd" clip-rule="evenodd" d="M77.8024 25.1359L76.8146 28.8374L76.8129 28.8436C76.3236 28.2294 75.8271 27.929 74.595 27.9137L70.3093 27.9298L69.3919 31.3744L73.0779 31.3387L73.1104 31.3397C73.4335 31.3506 74.2161 31.3769 74.5817 31.1785L73.6408 34.7811C73.0874 34.2086 72.6315 33.9521 71.3665 33.9607L68.6902 33.9838L67.7096 37.6347C67.3505 38.8976 67.374 39.7721 68.2815 40.5403L56.5131 40.624L52.6868 40.6674L49.358 33.9024L48.1725 38.2535C47.9144 39.2679 47.8995 40.0661 48.9046 40.6703L40.6297 40.7247C42.2435 40.0728 42.5633 38.9026 42.8417 37.8839L42.8599 37.8173L45.534 27.7449C45.8163 26.5464 45.5828 25.9103 44.6955 25.4765L53.0549 25.4255C52.2863 25.7345 51.4261 26.3537 51.0654 27.5504L49.7581 32.3942L55.6879 27.7449C56.8309 26.9335 56.6896 26.0333 55.6077 25.4212L63.3653 25.3829L54.6254 31.6233L58.8289 39.1803C59.442 40.1112 59.7736 40.4848 60.4462 40.4784C61.2556 40.4765 61.7194 39.6237 62.2507 37.6845L64.9075 27.6271C65.1987 26.4442 64.9741 25.8237 64.0918 25.3715L76.2891 25.3066C76.331 25.3066 76.3802 25.3072 76.4348 25.3079C76.8174 25.3127 77.4697 25.321 77.8024 25.1359ZM46.1112 27.9153L43.3042 38.4248L43.3103 38.4265C43.1237 39.204 42.7385 39.8416 42.1373 40.1636C43.0802 40.1786 43.5519 39.7291 43.8955 38.475L46.7003 27.9254C47.1092 26.4328 46.6759 25.9261 45.9841 25.7629C46.3446 26.2233 46.4703 26.6524 46.1112 27.9153ZM62.6817 38.3734L65.492 27.8516C65.8445 26.6131 65.7064 26.1807 65.3516 25.6758C66.0489 25.8668 66.4711 26.3902 66.0655 27.8706L63.2591 38.4263C62.9244 39.696 62.5562 40.1278 61.6228 40.1022C62.2027 39.8336 62.4186 39.3338 62.6817 38.3734ZM74.6253 26.7313L70.6889 26.7445L70.5147 27.3084L74.4833 27.2974C75.8212 27.2628 76.2927 27.5103 76.715 27.8891C76.7372 26.9679 75.7779 26.7248 74.6253 26.7313ZM68.8814 33.3382L69.0389 32.7632L71.3854 32.7681C72.5291 32.7461 73.4895 33.0092 73.4785 33.9137C73.0606 33.5428 72.583 33.2936 71.2451 33.3282L68.8814 33.3382ZM53.3252 39.0477C53.3252 39.0477 53.8426 39.9918 54.6358 40.025L53.8142 40.0235L53.1444 40.0438L49.7317 33.1046L56.1616 28.1188C57.2228 27.3178 57.4852 26.4559 57.031 25.7132C58.3228 26.1592 57.8612 27.5322 56.6201 28.4614L50.4392 33.2589L53.3551 39.1546L53.3252 39.0477Z" fill="white"/>
</g>
</svg>
