<svg width="24" height="24" viewBox="0 0 24 24" fill="none" xmlns="http://www.w3.org/2000/svg">
<path fill-rule="evenodd" clip-rule="evenodd" d="M20 13.7527V19.6668H16.6136V14.146C16.6136 12.7579 16.1258 11.8149 14.9063 11.8149C14.526 11.8157 14.1552 11.9366 13.8446 12.161C13.534 12.3854 13.2987 12.7024 13.1708 13.0687C13.0784 13.337 13.037 13.621 13.0489 13.9052V19.6611H9.67183C9.67183 19.6611 9.70935 10.3145 9.67183 9.34658H13.0489V10.8086C13.0462 10.822 13.0397 10.8344 13.0301 10.8441H13.0489V10.8086C13.3592 10.2673 13.8078 9.82267 14.3466 9.5225C14.8854 9.22233 15.494 9.07794 16.107 9.10484C18.3302 9.10963 20 10.5831 20 13.7527ZM5.91017 4.33515C6.15967 4.32451 6.40872 4.36518 6.64258 4.45473C6.87644 4.54429 7.09036 4.68091 7.27166 4.85653C7.45296 5.03214 7.59797 5.24317 7.69809 5.47711C7.79821 5.71106 7.85142 5.96317 7.85455 6.21853C7.85769 6.47388 7.8107 6.72728 7.71636 6.96373C7.62202 7.20018 7.48225 7.41486 7.30532 7.59508C7.12839 7.7753 6.9179 7.91738 6.68632 8.01292C6.45473 8.10846 6.20675 8.15551 5.95707 8.15128H5.93831C5.68851 8.16108 5.43933 8.11947 5.20555 8.02892C4.97177 7.93837 4.75816 7.80073 4.57739 7.62415C4.39661 7.44758 4.25236 7.23567 4.15319 7.00101C4.05401 6.76634 4.00194 6.5137 4.00005 6.25806C3.99817 6.00242 4.04651 5.749 4.14221 5.51283C4.23791 5.27666 4.37902 5.06256 4.55717 4.88322C4.73532 4.70387 4.94688 4.56295 5.17929 4.4688C5.41171 4.37466 5.66025 4.32921 5.91017 4.33515ZM7.81445 19.6659H4.03402V9.11347H7.81445V19.6659Z" fill="white"/>
</svg>
