<svg width="132" height="66" viewBox="0 0 132 66" fill="none" xmlns="http://www.w3.org/2000/svg">
<path fill-rule="evenodd" clip-rule="evenodd" d="M47.7852 38.0811V29.0391H50.1612L53.1972 35.7711L56.1672 29.0391H58.4772V38.0811H56.4972V32.8011L54.1872 38.0811H52.0752L49.7652 32.8671V38.0811H47.7852Z" fill="white"/>
<path fill-rule="evenodd" clip-rule="evenodd" d="M66.5271 34.5831L64.8768 30.7551L63.2268 34.5831H66.5271ZM61.7748 38.0811H59.4648L63.4908 29.0391H66.3291L70.3551 38.0811H68.0451L67.2531 36.2331H62.5668L61.7748 38.0811Z" fill="white"/>
<path fill-rule="evenodd" clip-rule="evenodd" d="M71.2812 38.0811V29.0391H79.9272V30.8211H73.3932V32.6031H79.0032V34.3851H73.3932V36.2331H79.9272V38.0151L71.2812 38.0811Z" fill="white"/>
<path fill-rule="evenodd" clip-rule="evenodd" d="M83.6901 33.1971H88.2441V30.8871H83.6901V33.1971ZM81.5781 38.0811V29.0391H88.7721C89.7621 29.0391 90.2901 29.5671 90.2901 30.5571V33.5931C90.2901 34.3191 89.6961 34.9131 88.4421 34.9131C88.3761 34.9131 88.3101 34.9131 88.2441 34.9131L90.3561 38.0811H88.0461L86.0661 34.9791H83.6901V38.0811H81.5781Z" fill="white"/>
<path fill-rule="evenodd" clip-rule="evenodd" d="M94.1159 38.0811H93.3899C92.4659 38.0811 92.0039 37.5531 92.0039 36.7611V35.5731H94.1159V36.2991H98.6039V34.4511H93.5219C92.7299 34.4511 92.1359 33.9231 92.1359 33.1311V30.4251C92.1359 29.6331 92.7959 29.0391 93.5219 29.0391H99.3959C100.188 29.0391 100.716 29.6331 100.716 30.4911V31.5471H98.6039V30.8211H94.1159V32.6031H99.1979C99.9239 32.6031 100.65 33.1311 100.65 34.0551V36.6291C100.65 37.4871 100.188 38.0151 99.2639 38.0151L94.1159 38.0811Z" fill="white"/>
<path fill-rule="evenodd" clip-rule="evenodd" d="M102.695 38.0811V29.0391H104.807V32.6691L108.899 29.0391H111.803L106.919 33.2631L111.935 38.0811H108.965L104.807 33.9891V38.0811H102.695Z" fill="white"/>
<path fill-rule="evenodd" clip-rule="evenodd" d="M37.5549 43.5596C38.8089 43.5596 39.8649 42.5696 39.8649 41.2496L39.7989 25.4096C39.7989 24.1556 38.8089 23.0996 37.4889 23.0996H22.7709C21.5169 23.0996 20.4609 24.1556 20.4609 25.4096V41.2496C20.4609 42.5036 21.4509 43.5596 22.7709 43.5596H37.5549ZM37.0927 27.9835L33.2647 32.8015L38.7427 35.4415H32.6047L33.9907 41.4475L30.1627 36.6295L26.3347 41.4475L27.7207 35.4415H21.5167L27.0607 32.8015L23.2327 27.9835L28.7767 30.6235L30.1627 24.6175L31.5487 30.6235L37.0927 27.9835Z" fill="white"/>
</svg>
