<svg width="24" height="24" viewBox="0 0 24 24" fill="none" xmlns="http://www.w3.org/2000/svg">
<path d="M4.21875 5.48785C4.21875 5.64548 4.22187 5.64877 5.03125 6.67011C5.59375 7.38604 5.85 7.73415 5.87187 7.81954C5.89375 7.90493 5.90625 9.24811 5.90625 11.8688V15.7933L5.83125 15.9575C5.79063 16.0494 5.36563 16.6209 4.87813 17.2382C4.03125 18.3154 4 18.3581 4 18.4927V18.634H6.375H8.75V18.4829C8.75 18.3351 8.7375 18.3187 7.84375 17.1824C7.16562 16.3187 6.92812 15.9936 6.89062 15.8787C6.85 15.744 6.84375 15.3236 6.85 12.3975L6.85938 9.07077L8.94375 13.8458L11.0281 18.6175L11.2719 18.6274L11.5156 18.6373L13.2937 13.8983C14.2718 11.2908 15.0844 9.1463 15.1 9.1266C15.1125 9.11018 15.1219 10.8146 15.1188 13.0149L15.1094 16.9361L14.3969 17.6619L13.6844 18.391L13.6938 18.519L13.7031 18.6504L16.8375 18.6603L19.9687 18.6668V18.5256C19.9687 18.3844 19.9656 18.3811 19.2812 17.6652C18.825 17.189 18.5938 16.9263 18.5938 16.8803C18.5938 16.8409 18.5938 14.6209 18.5938 11.9411C18.5938 8.06913 18.6 7.05763 18.6312 7.01494C18.6531 6.9821 18.9719 6.65698 19.3375 6.28916L20 5.62249V5.478V5.3335L17.7906 5.34006L15.5781 5.34992L14.0312 9.39261C13.1812 11.6159 12.4688 13.4682 12.4531 13.5076C12.425 13.5732 12.175 13.0182 10.625 9.45829L8.83125 5.3335H6.525H4.21875V5.48785Z" fill="white"/>
</svg>
