<svg width="133" height="66" viewBox="0 0 133 66" fill="none" xmlns="http://www.w3.org/2000/svg">
<mask id="mask0_1_34" style="mask-type:luminance" maskUnits="userSpaceOnUse" x="20" y="25" width="94" height="16">
<path d="M113.243 25.7402H20.7109V40.5242H113.243V25.7402Z" fill="white"/>
</mask>
<g mask="url(#mask0_1_34)">
<path d="M20.7266 40.108V25.918H26.6666C28.6466 25.918 30.6266 26.05 31.9466 27.832C32.3426 28.36 32.8706 29.284 32.8706 30.868C32.8706 32.848 32.0126 34.036 31.4186 34.564C30.3626 35.62 28.9766 35.752 27.5246 35.818H24.9506V40.108H20.7266ZM26.5346 32.518C27.2606 32.518 28.0526 32.452 28.5146 31.924C28.7786 31.66 28.9106 31.33 28.9106 31C28.9106 30.67 28.7786 30.34 28.5806 30.076C27.9866 29.416 26.9966 29.482 26.2046 29.482H25.0166V32.518H26.5346Z" fill="white"/>
<path d="M39.6714 40.1071L39.5394 39.1831C39.0114 39.5791 38.0214 40.4371 36.2394 40.4371C35.9094 40.4371 34.5894 40.3711 33.6654 39.6451C33.2694 39.3151 32.6094 38.4571 32.6094 37.1371C32.6094 36.8071 32.6754 36.2791 33.2034 35.5531C33.9294 34.5631 34.7874 34.2991 35.9754 34.0351L37.8894 33.7711C38.0874 33.7051 38.3514 33.6391 38.6154 33.6391C38.6814 33.6391 38.9454 33.5731 39.1434 33.4411C39.2754 33.3091 39.4074 32.8471 39.4074 32.6491C39.4074 32.2531 38.8794 31.9231 38.0874 31.9231C37.3614 31.9231 37.0314 32.1871 36.8334 32.4511C36.7674 32.5831 36.7014 32.7151 36.7014 33.0451H33.0714C33.2034 32.2531 33.4014 31.5271 33.9954 30.8671C34.7214 30.0751 35.9094 29.5471 38.1534 29.5471C38.6154 29.5471 40.3314 29.3491 41.6514 30.2071C42.1134 30.5371 42.5094 30.9331 42.7734 31.4611C43.1694 32.3191 43.0374 33.3091 43.0374 34.2331V37.0711C43.0374 38.8531 43.1694 39.1831 43.4994 40.1731L39.6714 40.1071ZM39.2754 35.5531C38.7474 35.7511 38.2194 35.8831 37.6914 36.0811L37.2954 36.2131C37.0974 36.2791 36.5034 36.4111 36.5034 37.1371C36.5034 37.4671 36.7014 38.1271 37.4934 38.1271C37.7574 38.1271 38.0874 38.0611 38.3514 37.9951C39.0774 37.7971 39.1434 37.3351 39.3414 37.1371L39.2754 35.5531Z" fill="white"/>
<path d="M50.4941 40.1065V35.0905C50.4941 35.6845 50.6261 33.1105 50.0981 32.8465C49.8341 32.7145 49.5041 32.5825 49.1741 32.5825C48.7121 32.5825 48.1841 32.8465 47.9861 33.2425C47.7881 33.7705 47.7221 34.2325 47.7221 35.2885V40.1065H43.8281V29.6785H47.4581L47.5241 30.8665C48.0521 30.2725 48.6461 29.4805 50.7581 29.4805C52.3421 29.4805 53.5301 30.0085 53.9921 31.6585C54.1241 32.0545 54.1241 32.4505 54.1901 33.3085V40.1065H50.4941Z" fill="white"/>
<path d="M72.0117 32.7156C71.9457 32.3196 71.6817 31.6596 70.6917 31.6596C70.3617 31.6596 70.0317 31.7256 69.7677 31.8576C69.7017 31.9236 69.5037 32.1876 69.5037 32.4516C69.5037 32.6496 69.6357 32.7816 69.8337 32.9136C70.0977 33.0456 70.4277 33.1116 70.6917 33.1116L72.2097 33.5076C73.2657 33.7716 74.1897 33.9696 74.9817 34.6956C75.2457 34.9596 75.5097 35.2896 75.6417 35.6856C75.8397 36.2136 75.7077 36.6756 75.7077 36.8076C75.7077 38.0616 75.1137 38.7876 74.7837 39.1176C74.0577 39.7776 72.8697 40.3056 70.7577 40.3056C68.9757 40.3056 67.8537 39.8436 67.1937 39.4476C65.8074 38.6556 65.6754 37.1376 65.6094 36.6096H69.3057C69.3717 36.9396 69.3717 37.2036 69.7017 37.4676C69.9657 37.6656 70.1637 37.8636 70.8237 37.8636C71.6157 37.8636 72.0777 37.4676 72.0777 37.1376C72.0777 37.0056 72.0777 36.8076 72.0117 36.6756C71.8137 36.3456 71.3517 36.2796 70.6257 36.0816C70.6257 36.0816 68.4477 35.6196 68.3157 35.5536C67.8537 35.3556 65.8734 34.8936 65.8734 32.7156C65.8734 31.8576 66.2034 31.0656 66.8634 30.4716C67.5237 29.8776 68.6457 29.3496 70.5597 29.3496C71.0217 29.3496 72.8037 29.3496 74.1897 30.2736C74.5857 30.5376 74.8497 30.8676 75.1137 31.1976C75.4437 31.7256 75.5097 32.3856 75.5097 32.5836H72.0117" fill="white"/>
<path d="M85.3416 38.9185C84.6816 39.5785 83.4276 40.3705 81.3156 40.3705C80.6556 40.3705 78.7416 40.3045 77.3556 38.7205C76.7616 37.9945 76.1016 36.8725 76.1016 34.8265C76.1016 34.1005 76.2336 33.4405 76.4316 32.7805C77.2236 30.5365 79.2696 29.4805 81.5136 29.4805C82.1076 29.4805 83.9556 29.5465 85.2756 30.8665C85.9356 31.5265 86.7936 32.7805 86.7936 34.9585C86.7276 35.4865 86.7276 37.5325 85.3416 38.9185ZM82.5036 32.6485C82.1736 32.3185 81.6456 32.2525 81.4476 32.2525C81.1176 32.2525 80.7876 32.3845 80.5896 32.5825C80.1276 32.9785 79.7976 33.5065 79.7976 34.8265C79.7976 35.8165 80.0616 37.5325 81.4476 37.5325C81.8436 37.5325 82.2396 37.4005 82.5036 37.1365C82.8336 36.7405 83.2296 36.0805 83.1636 34.8925C83.1636 34.8265 83.1636 33.3745 82.5036 32.6485Z" fill="white"/>
<path d="M98.4766 29.6796H102.305V40.1076H98.4766V29.6796ZM98.4766 25.8516H102.305V28.5576H98.4766V25.8516Z" fill="white"/>
<path d="M109.563 33.7053C109.299 32.4513 108.639 32.3853 107.979 32.3853C107.451 32.3853 107.253 32.5833 107.055 32.7153C106.593 33.1113 106.395 33.6393 106.395 34.8933C106.395 34.9593 106.329 36.6753 107.253 37.3353C107.517 37.5333 107.649 37.5333 107.979 37.5333C108.243 37.5333 108.441 37.5333 108.705 37.4013C109.101 37.2033 109.497 36.8733 109.563 36.0153H113.259C113.193 36.6093 112.995 37.2033 112.731 37.7973C111.807 39.6453 109.959 40.3713 108.045 40.3713C107.517 40.3713 106.923 40.3053 106.395 40.1733C104.877 39.7773 103.623 38.7873 103.029 37.2693C102.765 36.5433 102.633 35.7513 102.633 35.0253C102.633 34.5633 102.633 33.3093 103.293 32.1213C103.491 31.7253 103.821 31.3293 104.085 30.9993C105.471 29.6133 107.583 29.6133 108.045 29.6133C109.959 29.6133 111.213 30.3393 111.741 30.8673C112.071 31.2633 112.335 31.6593 112.533 32.1873C112.731 32.7153 112.929 33.2433 112.995 33.7713L109.563 33.7053Z" fill="white"/>
<path d="M65.2799 37.0715V34.2336C65.2799 33.3756 65.2799 32.1875 64.8839 31.3295C64.6199 30.8015 64.4219 30.4715 63.9599 30.1415C62.6399 29.2835 60.7919 29.4155 60.3299 29.4155C58.0859 29.4155 56.8979 30.0095 56.1719 30.8675C55.5779 31.5275 55.4459 32.1875 55.3139 33.0455H58.9439C58.9439 32.8475 59.0099 32.6495 59.0759 32.4515C59.2739 32.1875 59.5379 31.8575 60.2639 31.8575C61.0559 31.8575 61.5839 32.2535 61.5839 32.6495C61.5839 32.8475 61.5839 33.2435 61.3859 33.3755C61.1879 33.5075 60.9899 33.5735 60.7259 33.6395C60.5279 33.6395 60.3299 33.7055 59.9999 33.7715L58.0859 34.0355C56.9639 34.2995 56.1059 34.4975 55.3139 35.4875C54.9179 35.9495 54.7199 36.5435 54.7859 37.1375C54.7859 38.5235 55.3799 39.3155 55.7759 39.6455C56.6999 40.4375 58.0199 40.3715 58.3499 40.3715C60.1319 40.3715 61.0559 39.5796 61.5839 39.1836L61.7159 40.1736H65.6099C65.4779 39.5136 65.2799 39.1835 65.2799 37.0715ZM60.5279 38.0615C60.2639 38.1275 59.9999 38.1275 59.7359 38.1275C59.2079 38.0615 58.8119 37.6655 58.7459 37.1375C58.7459 36.3455 59.3399 36.2796 59.5379 36.2136L59.9339 36.0815C60.4619 35.8835 60.9899 35.7516 61.5179 35.5536V36.8736C61.3859 37.2036 61.2539 37.8635 60.5279 38.0615Z" fill="white"/>
<path d="M93.9203 40.1065V35.0245C93.9203 35.6185 94.1183 33.1105 93.5903 32.8465C93.3263 32.7145 92.9963 32.5825 92.6663 32.5825C92.2043 32.5825 91.6763 32.8465 91.4783 33.2425C91.2803 33.7705 91.1483 34.1005 91.1483 35.1565L91.0823 40.1065H87.3203V29.6785H90.9503L91.0163 30.8665C91.5443 30.2725 92.1383 29.4805 94.2503 29.4805C95.8343 29.4805 97.0223 30.1405 97.4843 31.7245C97.6163 32.1205 97.6163 32.3845 97.6823 33.2425V40.1065H93.9203Z" fill="white"/>
</g>
</svg>
