<svg width="133" height="66" viewBox="0 0 133 66" fill="none" xmlns="http://www.w3.org/2000/svg">
<path d="M43.8293 47C43.9822 46.4585 44.1352 45.9943 44.3645 45.6074C44.5939 45.1433 44.6704 44.6791 44.5939 44.2149C44.2116 42.0487 43.7529 39.8052 43.4471 37.639C43.2941 36.7106 43.3706 35.7822 43.4471 34.7765C43.6 33.0745 43.6764 31.3725 43.9058 29.7478C44.0587 28.5874 44.2881 28.3553 45.282 28.0458C45.1291 27.7364 45.0526 27.4269 44.8997 27.1175C45.4349 27.0401 45.8936 27.0401 46.4288 26.9628C48.0344 26.5759 49.1048 25.3381 49.3342 23.7135C49.3342 23.404 49.4106 23.1719 49.7929 23.1719C51.6278 23.2493 53.4628 23.1719 55.2977 23.3266C57.9737 23.4814 59.0441 25.5702 59.3499 27.4269C59.5793 28.8968 59.4264 30.4441 58.8912 31.914C58.5854 32.765 58.0502 33.384 57.1327 33.5387C55.5271 33.8481 53.998 34.1576 52.3924 34.3123C51.0162 34.467 49.5635 34.467 48.1109 34.5444C47.805 34.5444 47.6521 34.6218 47.4992 34.9312C47.0405 36.1691 46.7347 37.4069 46.7347 38.7994C46.8111 40.5788 46.6582 42.3582 46.6582 44.1375C46.6582 44.5244 46.7347 44.6791 47.1169 44.8338C47.8815 45.0659 48.4931 45.5301 48.7225 46.3037C48.799 46.5358 48.799 46.7679 48.799 47H43.8293ZM50.5575 25.3381C50.2516 25.8797 50.0223 26.5759 49.5635 26.9628C48.799 27.659 47.8815 28.2006 46.964 28.8968C47.4992 29.9026 48.0344 31.063 48.7225 32.1461C48.799 32.3009 49.1048 32.4556 49.3342 32.4556C51.8572 32.6103 54.3038 32.2235 56.6739 31.5272C56.9033 31.4499 57.0562 31.2951 57.1327 31.1404C57.7443 29.2837 57.7443 27.4269 56.6739 25.7249C56.521 25.4928 56.2917 25.2607 56.0623 25.2607C54.3803 25.106 52.7747 25.0287 51.0927 24.9513C50.8633 24.9513 50.6339 25.1834 50.5575 25.3381ZM50.6339 30.9083C52.3924 30.5215 54.1509 30.0573 55.9094 29.6705C55.9858 29.8252 56.0623 30.0573 56.1388 30.2894C54.3803 30.7536 52.6218 31.1404 50.7868 31.6046C50.7104 31.2178 50.7104 31.063 50.6339 30.9083ZM50.3281 29.2063C52.0866 28.7421 53.8451 28.3553 55.68 27.9685C55.7565 28.2006 55.7565 28.3553 55.8329 28.5874C54.0744 28.9742 52.316 29.4384 50.5575 29.8252C50.481 29.6705 50.4046 29.4384 50.3281 29.2063ZM50.0223 27.5817C51.7808 27.1948 53.5393 26.808 55.2977 26.3438C55.3742 26.5759 55.4507 26.7307 55.4507 26.9628C53.6922 27.3496 51.9337 27.7364 50.1752 28.2006C50.0987 27.9685 50.0987 27.8138 50.0223 27.5817ZM45.6643 26.5759C43.9058 26.5759 42.4531 25.106 42.4531 23.3266C42.4531 21.4699 43.9058 20 45.6643 20C47.4228 20 48.8754 21.4699 48.8754 23.2493C48.9519 25.106 47.4992 26.5759 45.6643 26.5759Z" fill="white"/>
<path d="M67.1531 33.5714V37H64.4531V27H69.0349C69.9349 27 70.6713 27.1429 71.3259 27.4286C71.9804 27.7143 72.5531 28.1429 72.8804 28.6429C73.2895 29.1429 73.4531 29.7857 73.4531 30.4286C73.4531 31.4286 73.044 32.2143 72.2259 32.7857C71.4077 33.3571 70.344 33.6429 68.9531 33.6429H67.1531V33.5714ZM67.1531 31.7143H68.9531C69.5259 31.7143 69.9349 31.5714 70.1804 31.3571C70.4259 31.1429 70.5895 30.7857 70.5895 30.3571C70.5895 29.8571 70.4259 29.5 70.1804 29.2143C69.9349 28.9286 69.5259 28.7857 69.0349 28.7857H67.1531V31.7143Z" fill="white"/>
<path d="M74.4531 27.1973C74.4531 26.8231 74.6198 26.5986 74.8698 26.3741C75.2031 26.1497 75.5365 26 75.9531 26C76.3698 26 76.7865 26.0748 77.0365 26.2993C77.2865 26.5238 77.4531 26.8231 77.4531 27.1224C77.4531 27.4218 77.2865 27.7211 77.0365 27.9456C76.7865 28.1701 76.3698 28.2449 75.9531 28.2449C75.5365 28.2449 75.1198 28.1701 74.8698 27.9456C74.6198 27.8707 74.4531 27.5714 74.4531 27.1973ZM77.3698 37H74.6198V29.2177H77.3698V37Z" fill="white"/>
<path d="M78.4531 33.0408C78.4531 32.2177 78.596 31.5442 78.8103 30.9456C79.0246 30.3469 79.3817 29.898 79.8817 29.5238C80.3103 29.2245 80.8817 29 81.5246 29C82.3103 29 82.8817 29.2993 83.3103 29.8231L83.3817 29.1497H85.4531V36.6327C85.4531 37.3061 85.3103 37.9048 85.0246 38.4286C84.7388 38.9524 84.3103 39.3265 83.6674 39.6259C83.0246 39.9252 82.4531 40 81.6674 40C81.096 40 80.596 39.9252 80.096 39.7007C79.596 39.4762 79.1674 39.1769 78.9531 38.8776L79.9531 37.4558C80.3817 37.9796 80.9531 38.2789 81.6674 38.2789C82.6674 38.2789 83.2388 37.7551 83.2388 36.6327V36.4082C82.8103 36.932 82.2388 37.1565 81.5246 37.1565C80.596 37.1565 79.8817 36.7823 79.3103 36.034C78.7388 35.2857 78.4531 34.3129 78.4531 33.1156V33.0408ZM80.8103 33.1905C80.8103 33.8639 80.9531 34.3129 81.1674 34.6871C81.3817 35.0612 81.7388 35.2109 82.096 35.2109C82.596 35.2109 82.9531 35.0612 83.1674 34.6871V31.3946C82.9531 31.0204 82.596 30.8707 82.096 30.8707C81.6674 30.8707 81.3817 31.0952 81.096 31.4694C80.8817 31.9184 80.8103 32.517 80.8103 33.1905Z" fill="white"/>
<path d="M87.4531 27.1973C87.4531 26.8231 87.6198 26.5986 87.8698 26.3741C88.2031 26.1497 88.5365 26 88.9531 26C89.3698 26 89.7865 26.0748 90.0365 26.2993C90.3698 26.5986 90.4531 26.898 90.4531 27.1973C90.4531 27.4966 90.2865 27.7959 90.0365 28.0204C89.7865 28.2449 89.3698 28.3197 88.9531 28.3197C88.5365 28.3197 88.1198 28.2449 87.8698 28.0204C87.6198 27.8707 87.4531 27.5714 87.4531 27.1973ZM90.3698 37H87.6198V29.2177H90.3698V37Z" fill="white"/>
</svg>
