<svg width="24" height="24" viewBox="0 0 24 24" fill="none" xmlns="http://www.w3.org/2000/svg">
<path d="M11.4066 4.01993C10.0841 4.1451 8.90477 4.56439 7.97229 5.23714C7.60356 5.5031 6.92401 6.20088 6.65889 6.58263C6.4273 6.92057 6.10428 7.56515 5.97325 7.96254C5.75689 8.59461 5.64109 9.41443 5.67156 10.0559C5.73251 11.3357 6.35721 12.678 7.19522 13.3288C7.41463 13.5009 7.80469 13.7012 7.86868 13.6762C7.89306 13.6668 7.93877 13.6199 7.96619 13.5761C8.02714 13.4791 8.28006 12.4652 8.28311 12.3119C8.28311 12.2368 8.24959 12.1586 8.16427 12.046C7.64318 11.3419 7.42072 10.5471 7.49386 9.63346C7.64318 7.731 8.99009 6.20401 10.8672 5.80349C11.7357 5.61888 12.7505 5.66582 13.5337 5.92866C14.0944 6.1164 14.5758 6.41366 14.9659 6.81418C15.9319 7.79983 16.3128 9.34246 15.9928 10.9633C15.7277 12.2963 14.9872 13.3883 14.0365 13.8389C13.235 14.2206 12.4061 14.1487 11.8942 13.6511C11.5011 13.2694 11.3975 12.8188 11.559 12.1836C11.5986 12.0209 11.7357 11.5484 11.8637 11.1385C12.1532 10.1967 12.2294 9.9182 12.2903 9.58965C12.4427 8.73855 12.2081 8.10961 11.6382 7.84051C11.4127 7.731 10.9983 7.70909 10.7332 7.78732C10.4132 7.88431 10.2029 8.01574 9.9439 8.28483C9.75497 8.47884 9.66964 8.59774 9.57213 8.80426C9.37101 9.22042 9.30701 9.53958 9.30701 10.1028C9.31006 10.6159 9.36796 10.9727 9.51423 11.3419L9.59041 11.5328L9.01142 13.9327C8.69145 15.2501 8.4111 16.4266 8.38672 16.5487C8.32273 16.8553 8.2953 18.1007 8.34101 18.6357C8.40196 19.3085 8.49033 19.9218 8.53909 19.9687C8.56346 19.9937 8.60308 20.0063 8.63051 19.9969C8.7463 19.95 9.49594 18.6983 9.85248 17.9567C10.1724 17.2903 10.2151 17.1589 10.6021 15.707C10.9008 14.5805 10.919 14.5273 10.9648 14.5961C11.1903 14.956 11.687 15.3033 12.2294 15.4785C12.6194 15.6037 12.8907 15.635 13.4087 15.6162C14.326 15.5818 15.1 15.3221 15.8862 14.7902C16.3341 14.4835 16.9405 13.8514 17.2636 13.3477C17.9279 12.3213 18.2661 11.2199 18.3271 9.88378C18.3972 8.37245 17.8852 6.97689 16.8643 5.89737C15.9197 4.8992 14.7404 4.29842 13.2655 4.06374C12.8968 4.00429 11.8271 3.97926 11.4066 4.01993Z" fill="white"/>
</svg>
