<svg width="133" height="66" viewBox="0 0 133 66" fill="none" xmlns="http://www.w3.org/2000/svg">
<path d="M66.0341 37.9962C73.1423 37.9962 78.9041 32.2974 78.9041 25.2676C78.9041 18.2378 73.1423 12.5391 66.0341 12.5391C58.9261 12.5391 53.1641 18.2378 53.1641 25.2676C53.1641 32.2974 58.9261 37.9962 66.0341 37.9962Z" fill="white"/>
<path d="M64.9611 24.545C64.978 24.5424 64.9966 24.5363 65.0157 24.5372C65.1628 24.5431 65.3103 24.5524 65.4572 24.5572C65.7555 24.5669 66.0545 24.5908 66.3528 24.6045C66.4523 24.6091 66.552 24.6201 66.6517 24.6258C66.919 24.6409 67.1863 24.6551 67.4536 24.6696C67.5598 24.6755 67.6661 24.6813 67.7723 24.687C67.94 24.6959 68.1083 24.7028 68.2759 24.7135C68.4891 24.7271 68.7023 24.7454 68.9155 24.7584C69.1828 24.7745 69.4501 24.7869 69.7174 24.8016C69.8507 24.809 69.9847 24.8179 70.1186 24.8253C70.283 24.8344 70.4473 24.8416 70.6123 24.8511C70.7153 24.857 70.8182 24.8668 70.9212 24.8724C70.9476 24.8739 70.974 24.8672 70.9984 24.8609C71.0024 24.8598 71.0037 24.837 70.9978 24.8303C70.9898 24.8212 70.9733 24.8144 70.9608 24.8131C70.8922 24.806 70.8235 24.799 70.7549 24.7949C70.6136 24.7864 70.4731 24.7806 70.3318 24.7721C70.219 24.7651 70.1054 24.7552 69.9919 24.7476C69.8612 24.7389 69.7312 24.7315 69.6012 24.7235C69.5702 24.7215 69.5392 24.7191 69.5081 24.7174C69.2415 24.7033 68.9742 24.6896 68.7069 24.6751C68.6112 24.6698 68.5148 24.6621 68.4191 24.6564C68.1644 24.6419 67.9109 24.6286 67.6562 24.6136C67.4542 24.6017 67.2516 24.5873 67.0496 24.575C66.8266 24.5615 66.6041 24.5496 66.3811 24.5361C66.2681 24.5292 66.1548 24.5188 66.0415 24.5118C65.7597 24.4945 65.478 24.4788 65.1964 24.461C65.1209 24.4562 65.0451 24.4464 64.9694 24.4371C64.8922 24.4276 64.844 24.3818 64.8107 24.3194C64.8173 24.3071 64.8202 24.2979 64.8261 24.2912C64.9374 24.1627 65.048 24.0335 65.161 23.9063C65.3213 23.7257 65.4833 23.5466 65.6446 23.3668C65.748 23.2518 65.8507 23.1363 65.9548 23.0216C66.0588 22.907 66.1646 22.7941 66.2681 22.679C66.3797 22.5548 66.4886 22.4287 66.6002 22.3043C66.6827 22.2123 66.7678 22.1219 66.851 22.0301C67.051 21.8102 67.2503 21.5901 67.4496 21.3696C67.5677 21.2388 67.6852 21.1074 67.8027 20.9759C67.8192 20.9574 67.835 20.9381 67.8463 20.9166C67.8502 20.909 67.8449 20.8897 67.837 20.8836C67.8284 20.8769 67.8073 20.8736 67.7994 20.8788C67.7763 20.8947 67.7552 20.914 67.7367 20.9344C67.6252 21.0551 67.5143 21.1758 67.4047 21.2976C67.276 21.44 67.1493 21.5837 67.0206 21.7264C66.818 21.952 66.6154 22.1774 66.4121 22.402C66.3061 22.519 66.1971 22.6334 66.0916 22.7507C65.9489 22.9096 65.809 23.0707 65.6663 23.2296C65.5465 23.3631 65.4244 23.4949 65.3026 23.6271C65.2523 23.6818 65.2001 23.7348 65.1499 23.7895C65.0474 23.9013 64.9461 24.0142 64.8436 24.126C64.8059 24.1671 64.767 24.2072 64.7275 24.2467C64.7152 24.2591 64.6992 24.2682 64.6781 24.2839C64.6709 24.2602 64.6623 24.2452 64.6627 24.2313C64.6678 24.0856 64.6726 23.9397 64.6805 23.7945C64.6926 23.5732 64.7071 23.3527 64.7201 23.1317C64.7222 23.0939 64.7215 23.0555 64.7243 23.0177C64.7361 22.8412 64.7493 22.6649 64.7607 22.4884C64.7695 22.3529 64.7758 22.217 64.7844 22.0813C64.7936 21.9331 64.8046 21.7852 64.8138 21.6369C64.8239 21.4728 64.8324 21.3087 64.8423 21.1446C64.8537 20.9552 64.8662 20.7661 64.8776 20.577C64.8801 20.5361 64.8746 20.493 64.8827 20.4538C64.8994 20.3734 64.8965 20.2905 64.8998 20.2082C64.9009 20.1828 64.9013 20.1574 64.9031 20.1322C64.9147 19.9718 64.9279 19.8118 64.9382 19.6511C64.9479 19.4998 64.954 19.3479 64.963 19.1965C64.972 19.0449 64.9837 18.8941 64.9929 18.7425C65.0041 18.5596 65.0131 18.3763 65.0252 18.1935C65.0412 17.9508 65.0603 17.7085 65.0757 17.4655C65.0882 17.2669 65.0974 17.0676 65.1073 16.8685C65.1084 16.8466 65.1062 16.824 65.102 16.8018C65.1007 16.7949 65.0869 16.7834 65.0796 16.7832C65.0682 16.7828 65.0521 16.7871 65.0474 16.7949C65.0397 16.8073 65.0379 16.824 65.0368 16.8397C65.0316 16.9185 65.0278 16.9975 65.023 17.0765C65.0168 17.1775 65.0098 17.2782 65.0036 17.3791C64.9955 17.5116 64.9881 17.6442 64.9804 17.7767C64.9725 17.9124 64.965 18.0483 64.9567 18.184C64.9444 18.3793 64.9312 18.5745 64.9185 18.7697C64.9169 18.7949 64.9192 18.8209 64.9159 18.8457C64.892 19.0359 64.893 19.2304 64.8772 19.4219C64.8753 19.4471 64.8772 19.4729 64.8753 19.498C64.863 19.665 64.8489 19.8315 64.8379 19.9985C64.825 20.197 64.8149 20.396 64.803 20.5946C64.7881 20.8471 64.773 21.0998 64.7578 21.3524C64.7558 21.3838 64.7534 21.4152 64.751 21.4467C64.741 21.5853 64.7288 21.7233 64.7209 21.8621C64.7113 22.0325 64.7049 22.2034 64.697 22.3742C64.6967 22.3805 64.6963 22.3868 64.695 22.3931C64.6639 22.5531 64.6805 22.7216 64.6594 22.8839C64.6406 23.0299 64.6432 23.1805 64.6334 23.3288C64.6185 23.5557 64.6016 23.7823 64.5844 24.009C64.5769 24.1065 64.5686 24.2037 64.5578 24.3006C64.5508 24.3639 64.5076 24.3926 64.4397 24.3802C64.3506 24.3639 64.2615 24.3457 64.1726 24.3266C64.0426 24.2984 63.9131 24.2686 63.7834 24.2396C63.6058 24.1999 63.428 24.1607 63.2504 24.1201C63.1003 24.0859 62.9504 24.0498 62.8002 24.0153C62.616 23.9729 62.4314 23.9322 62.2473 23.8889C62.0973 23.8538 61.948 23.8143 61.7979 23.7791C61.6547 23.7456 61.5108 23.7163 61.3674 23.6835C61.1387 23.6315 60.9102 23.5785 60.6816 23.5253C60.501 23.4832 60.3203 23.4404 60.1394 23.3981C59.952 23.354 59.7646 23.3091 59.5768 23.2658C59.3002 23.2023 59.0234 23.1402 58.7471 23.0763C58.6002 23.0425 58.454 23.0053 58.3074 22.971C58.1028 22.9233 57.898 22.8764 57.6934 22.8294C57.6423 22.8177 57.5909 22.806 57.5393 22.7965C57.5191 22.7926 57.498 22.7926 57.4783 22.7943C57.4709 22.795 57.4614 22.8049 57.461 22.8119C57.4605 22.8195 57.4684 22.8336 57.4752 22.836C57.5215 22.8525 57.5681 22.8698 57.6155 22.8814C57.7722 22.9191 57.9296 22.9545 58.0866 22.9912C58.1617 23.0088 58.2365 23.0279 58.3116 23.0451C58.4617 23.0794 58.6119 23.1124 58.762 23.1469C58.8338 23.1634 58.9049 23.1836 58.9767 23.1999C59.243 23.2604 59.5097 23.3195 59.776 23.3805C59.9568 23.422 60.1375 23.466 60.3181 23.5082C60.3589 23.5177 60.4005 23.5236 60.4412 23.5333C60.5877 23.5687 60.7339 23.6063 60.8805 23.6408C61.0476 23.6801 61.2148 23.7165 61.3821 23.7546C61.454 23.7709 61.5252 23.7882 61.597 23.8047C61.7439 23.8384 61.8907 23.8714 62.0376 23.9054C62.1842 23.9393 62.3306 23.9749 62.4773 24.0086C62.6684 24.0524 62.8599 24.0945 63.0511 24.1391C63.1942 24.1723 63.3371 24.2087 63.4802 24.2424C63.6405 24.28 63.8009 24.3151 63.9612 24.3529C64.0055 24.3633 64.0488 24.3796 64.0931 24.3913C64.1982 24.4191 64.3038 24.4454 64.409 24.4732C64.422 24.4767 64.4338 24.4851 64.4434 24.4899C64.4606 24.5257 64.4487 24.5496 64.4301 24.5719C64.3906 24.6195 64.353 24.6686 64.312 24.7148C64.1785 24.8653 64.0439 25.015 63.9094 25.1646C63.7893 25.2982 63.6688 25.431 63.5485 25.5641C63.4508 25.6717 63.3531 25.7794 63.2552 25.8871C63.1509 26.0015 63.046 26.1153 62.942 26.2299C62.8278 26.3561 62.7152 26.4835 62.6004 26.6093C62.49 26.7304 62.3768 26.8493 62.2667 26.9707C62.1629 27.0853 62.0626 27.2028 61.9594 27.3178C61.8374 27.4537 61.7136 27.5881 61.5916 27.7241C61.5753 27.742 61.5634 27.764 61.5524 27.7857C61.5494 27.7918 61.5545 27.8083 61.5599 27.811C61.5709 27.8165 61.5893 27.8211 61.5966 27.8163C61.6172 27.8024 61.6355 27.785 61.6519 27.7668C61.8205 27.5814 61.9882 27.3953 62.1566 27.2097C62.2253 27.1341 62.2953 27.0597 62.3642 26.9844C62.431 26.9112 62.4972 26.8376 62.5635 26.764C62.636 26.6837 62.708 26.6027 62.7809 26.5226C62.8349 26.4631 62.8897 26.4041 62.9446 26.3452C63.0078 26.2773 63.0724 26.2101 63.1347 26.1414C63.2901 25.969 63.4444 25.7959 63.5994 25.6231C63.6471 25.5702 63.6947 25.5174 63.7432 25.4651C63.8466 25.3539 63.9509 25.2436 64.0541 25.1323C64.1805 24.9961 64.3061 24.8594 64.4325 24.723C64.4404 24.7143 64.4515 24.7065 64.4692 24.7222C64.4682 24.7326 64.4689 24.7454 64.4661 24.7572C64.4409 24.863 64.416 24.9692 64.3888 25.0745C64.357 25.1978 64.3225 25.3203 64.29 25.4434C64.2386 25.6388 64.1886 25.8346 64.1368 26.0298C64.1083 26.1379 64.0765 26.2447 64.0477 26.3528C64.0156 26.4729 63.9862 26.5935 63.9542 26.7137C63.9182 26.8486 63.8802 26.9833 63.8439 27.1181C63.8166 27.2201 63.7909 27.3226 63.763 27.4244C63.7294 27.5471 63.6934 27.6691 63.6598 27.7918C63.6304 27.8996 63.6038 28.0084 63.5751 28.1164C63.5478 28.2184 63.5188 28.3198 63.4912 28.4218C63.457 28.5475 63.4239 28.6736 63.3891 28.7993C63.3637 28.8923 63.3355 28.9841 63.3107 29.0772C63.2622 29.2605 63.2166 29.4445 63.1676 29.6276C63.0921 29.9096 63.0149 30.1909 62.938 30.4728C62.9192 30.5416 62.8988 30.61 62.8801 30.6787C62.8623 30.7448 62.8443 30.8107 62.8294 30.8777C62.8237 30.9035 62.811 30.9323 62.8458 30.9617C62.8555 30.956 62.8704 30.9525 62.8755 30.9435C62.8887 30.9193 62.9003 30.8939 62.9075 30.8672C62.9384 30.7533 62.9663 30.6384 62.9973 30.5244C63.0463 30.3447 63.0972 30.1655 63.1466 29.986C63.1861 29.8425 63.2243 29.6984 63.2638 29.5546C63.2851 29.4769 63.3086 29.3998 63.3292 29.3217C63.3775 29.1384 63.4236 28.9544 63.473 28.7715C63.5266 28.5738 63.5836 28.3773 63.6376 28.1795C63.6886 27.9939 63.7378 27.8076 63.7871 27.6214C63.822 27.4891 63.8558 27.3567 63.8905 27.2244C63.9182 27.1192 63.9449 27.0139 63.9744 26.9092C64.0045 26.8018 64.0386 26.6956 64.0681 26.5879C64.1164 26.4113 64.1621 26.2336 64.2097 26.0567C64.242 25.9368 64.2762 25.8176 64.3085 25.6976C64.3374 25.5897 64.3631 25.4807 64.3936 25.3735C64.4445 25.1943 64.4979 25.0161 64.551 24.8379C64.5796 24.7424 64.5804 24.7444 64.6886 24.7591C64.7273 24.7643 64.7543 24.7799 64.7763 24.8101C64.8026 24.8466 64.8309 24.882 64.8566 24.9189C64.9793 25.0947 65.1013 25.2708 65.2234 25.4471C65.3158 25.5806 65.4082 25.7141 65.4993 25.8483C65.5729 25.9566 65.6438 26.0663 65.7171 26.1748C65.8811 26.418 66.0461 26.6607 66.2103 26.9038C66.278 27.0039 66.3429 27.1051 66.4108 27.2049C66.5216 27.3675 66.6345 27.5291 66.7454 27.6917C66.7876 27.7544 66.8259 27.8193 66.8688 27.8821C66.9737 28.036 67.0813 28.1888 67.1863 28.3428C67.2562 28.4454 67.3229 28.5497 67.3922 28.6528C67.4951 28.8076 67.5988 28.9626 67.703 29.1169C67.8436 29.3256 67.9855 29.534 68.1274 29.742C68.2013 29.8503 68.2772 29.9576 68.3512 30.0663C68.4046 30.1463 68.4548 30.2285 68.5089 30.3084C68.6871 30.5711 68.8686 30.8323 69.0442 31.0961C69.1498 31.2537 69.262 31.4074 69.3623 31.5676C69.4685 31.7361 69.5906 31.897 69.7042 32.0624C69.8032 32.2076 69.8989 32.355 69.9972 32.5007C70.1457 32.7209 70.2962 32.9401 70.4447 33.1602C70.5542 33.3233 70.6631 33.4868 70.7727 33.65C70.7905 33.6759 70.8077 33.7017 70.8268 33.7264C70.8466 33.7523 70.8757 33.7619 70.8882 33.7488C70.9047 33.7314 70.8922 33.7132 70.8809 33.6961C70.8328 33.6209 70.7846 33.5456 70.7344 33.4715C70.6757 33.3859 70.6143 33.302 70.5569 33.216C70.5094 33.1446 70.4665 33.0706 70.4183 32.9992C70.2929 32.8131 70.1668 32.6279 70.0401 32.4425C69.9682 32.337 69.8942 32.2324 69.8223 32.1267C69.7721 32.0523 69.7273 31.9757 69.6764 31.9017C69.5629 31.7365 69.4468 31.5728 69.3339 31.4074C69.295 31.3505 69.2639 31.2892 69.225 31.2326C69.1154 31.073 69.0026 30.9154 68.8937 30.7558C68.8501 30.6933 68.8158 30.6265 68.7722 30.5641C68.633 30.3627 68.4884 30.1635 68.3591 29.9567C68.3023 29.8666 68.2363 29.7806 68.1769 29.692C68.0819 29.5521 67.9888 29.4111 67.8944 29.2711C67.8265 29.171 67.7565 29.072 67.6892 28.9719C67.643 28.9033 67.6001 28.8333 67.5539 28.7645C67.3757 28.5019 67.1948 28.2403 67.018 27.977C66.9084 27.8139 66.7903 27.6552 66.6886 27.488C66.6371 27.4032 66.5751 27.323 66.519 27.2403C66.4246 27.1003 66.3311 26.9596 66.2364 26.8194C66.1012 26.6194 65.9653 26.4197 65.8299 26.2197C65.6789 25.997 65.5279 25.7742 65.3773 25.5513C65.2711 25.3939 65.1653 25.2364 65.0605 25.0784C65.0015 24.9896 64.9426 24.9004 64.888 24.8097C64.8366 24.7244 64.839 24.7232 64.9157 24.6735C64.9207 24.6703 64.9281 24.6705 64.9402 24.6677C64.9619 24.6749 64.9894 24.6816 65.0153 24.6927C65.0937 24.7259 65.1711 24.7611 65.2491 24.7951C65.3595 24.8435 65.4699 24.8917 65.5803 24.9404C65.6387 24.966 65.6967 24.9926 65.755 25.0183C65.9144 25.0878 66.0742 25.1561 66.2333 25.2265C66.4121 25.3053 66.5896 25.3863 66.7678 25.4655C66.9559 25.5491 67.144 25.6316 67.3321 25.715C67.439 25.7625 67.5453 25.8112 67.6522 25.8584C67.7459 25.9001 67.841 25.9401 67.9347 25.9818C68.0383 26.028 68.1413 26.0766 68.2449 26.1222C68.3914 26.1865 68.5379 26.2486 68.6845 26.3124C68.7881 26.3578 68.8917 26.4049 68.9947 26.4514C69.1082 26.5022 69.221 26.5536 69.3346 26.6042C69.4342 26.649 69.5359 26.6923 69.6355 26.7371C69.7391 26.7834 69.8421 26.8315 69.9464 26.8771C70.1021 26.9453 70.2592 27.0099 70.415 27.079C70.6097 27.1654 70.8024 27.256 70.9964 27.343C71.1878 27.4286 71.3792 27.5119 71.5706 27.5958C71.6881 27.647 71.8056 27.696 71.9224 27.7479C72.2234 27.8819 72.5243 28.0173 72.826 28.1515C72.9388 28.2019 73.0537 28.249 73.1672 28.2998C73.4035 28.4053 73.6391 28.5128 73.8754 28.6185C73.9988 28.6734 74.1229 28.7255 74.2456 28.7803C74.3921 28.8449 74.5373 28.9111 74.6832 28.9758C74.7056 28.9858 74.7294 28.9943 74.7532 28.9982C74.7637 28.9999 74.7802 28.9909 74.7842 28.982C74.7875 28.9741 74.7796 28.955 74.7716 28.9496C74.7479 28.9344 74.7208 28.9233 74.6951 28.9116C74.573 28.8558 74.4502 28.7998 74.3275 28.7446C74.2238 28.698 74.1196 28.6523 74.0159 28.6063C73.9123 28.5603 73.8087 28.5143 73.7057 28.4685C73.6015 28.4227 73.4978 28.3769 73.3942 28.3311C73.2906 28.2853 73.187 28.2397 73.0827 28.1938C72.9177 28.1207 72.752 28.0473 72.587 27.9741C72.4669 27.9211 72.3468 27.8689 72.2267 27.8152C72.1072 27.7618 71.9878 27.7064 71.8676 27.6537C71.7211 27.5894 71.5739 27.5284 71.4274 27.4637C71.1845 27.3558 70.9423 27.2458 70.6994 27.137C70.4691 27.0341 70.2394 26.9316 70.0091 26.8289C69.8375 26.7523 69.6659 26.6754 69.4943 26.599C69.3128 26.5184 69.1306 26.4388 68.9491 26.3581C68.8389 26.3092 68.73 26.2586 68.6198 26.2098C68.5221 26.1665 68.4244 26.1251 68.3274 26.0818C68.2172 26.033 68.1076 25.9831 67.9974 25.9343C67.9063 25.8941 67.8152 25.8559 67.7242 25.8155C67.6073 25.7639 67.4912 25.7104 67.3744 25.6585C67.2575 25.6068 67.1407 25.5567 67.0239 25.5048C66.9401 25.4673 66.8569 25.4269 66.7724 25.3893C66.5685 25.2984 66.3639 25.2085 66.1603 25.1175C65.8721 24.989 65.5838 24.8601 65.2958 24.7306C65.1955 24.6855 65.0959 24.6388 64.996 24.5926C64.9751 24.5845 64.9569 24.5737 64.9611 24.545Z" stroke="#192020" stroke-width="1.3"/>
<path d="M30.7227 50.4235H32.044V51.6127C32.068 51.6207 32.092 51.6287 32.116 51.6367C32.3003 51.7168 32.5004 51.7849 32.7166 51.8409C32.9408 51.8889 33.1771 51.913 33.4254 51.913C33.8738 51.913 34.2222 51.8249 34.4704 51.6487C34.7186 51.4645 34.8428 51.2203 34.8428 50.916C34.8428 50.6437 34.7387 50.4235 34.5305 50.2553C34.3303 50.0871 34.078 49.939 33.7737 49.8109C33.4774 49.6828 33.1491 49.5546 32.7887 49.4265C32.4363 49.2984 32.1081 49.1382 31.8037 48.946C31.5075 48.7458 31.2552 48.4975 31.047 48.2013C30.8468 47.905 30.7467 47.5206 30.7467 47.0481C30.7467 46.6877 30.8147 46.3594 30.9509 46.0631C31.095 45.7588 31.2912 45.4986 31.5395 45.2823C31.7957 45.0661 32.1 44.898 32.4524 44.7778C32.8048 44.6577 33.1971 44.5977 33.6296 44.5977C34.118 44.5977 34.5985 44.6417 35.071 44.7298C35.5435 44.8179 35.9198 44.938 36.2001 45.0901V47.5286H34.8788V46.1953C34.8548 46.1953 34.8308 46.1912 34.8067 46.1832C34.6306 46.1352 34.4384 46.0992 34.2302 46.0751C34.03 46.0431 33.8297 46.0271 33.6296 46.0271C33.2452 46.0271 32.9408 46.1032 32.7166 46.2553C32.5004 46.4074 32.3923 46.6116 32.3923 46.8679C32.3923 47.1322 32.4924 47.3484 32.6926 47.5166C32.9009 47.6847 33.1531 47.8369 33.4494 47.973C33.7537 48.1092 34.082 48.2453 34.4344 48.3814C34.7947 48.5176 35.1231 48.6858 35.4193 48.8859C35.7237 49.0781 35.9759 49.3224 36.1761 49.6187C36.3843 49.9149 36.4884 50.2873 36.4884 50.7358C36.4884 51.1682 36.4084 51.5486 36.2482 51.8769C36.088 52.1972 35.8638 52.4695 35.5755 52.6937C35.2872 52.91 34.9469 53.0701 34.5545 53.1742C34.1621 53.2864 33.7377 53.3424 33.2812 53.3424C32.9769 53.3424 32.6926 53.3184 32.4284 53.2703C32.1721 53.2223 31.9318 53.1622 31.7076 53.0901C31.4914 53.0181 31.2992 52.942 31.1311 52.8619C30.9629 52.7819 30.8267 52.7137 30.7227 52.6577V50.4235Z" fill="white"/>
<path d="M37.8516 51.852H39.9657V48.4887H37.8516V47.1673H41.5272V51.852H43.7495V53.1733H37.8516V51.852ZM39.6774 45.5337C39.6774 45.2855 39.7695 45.0732 39.9537 44.8971C40.1379 44.7209 40.3941 44.6328 40.7224 44.6328C41.0588 44.6328 41.3271 44.7209 41.5272 44.8971C41.7274 45.0732 41.8275 45.2855 41.8275 45.5337C41.8275 45.79 41.7274 46.0022 41.5272 46.1703C41.3271 46.3305 41.0588 46.4106 40.7224 46.4106C40.3941 46.4106 40.1379 46.3305 39.9537 46.1703C39.7695 46.0022 39.6774 45.79 39.6774 45.5337Z" fill="white"/>
<path d="M47.2406 53.1735V49.4979C47.2406 49.2576 47.2246 49.0654 47.1925 48.9213C47.1605 48.7692 47.1164 48.653 47.0604 48.5729C47.0124 48.4848 46.9483 48.4288 46.8682 48.4048C46.7961 48.3728 46.7201 48.3567 46.64 48.3567C46.5038 48.3567 46.3757 48.4007 46.2556 48.4889C46.1435 48.577 46.0674 48.689 46.0274 48.8252V53.1735H44.5859V47.1675H45.7271L45.8952 47.8282H45.9313C46.0514 47.5959 46.2276 47.4078 46.4598 47.2636C46.6921 47.1115 46.9643 47.0354 47.2766 47.0354C47.5409 47.0354 47.7931 47.0995 48.0334 47.2276C48.2736 47.3557 48.4378 47.58 48.5259 47.9003C48.646 47.62 48.8302 47.4078 49.0784 47.2636C49.3267 47.1115 49.5949 47.0354 49.8832 47.0354C50.0994 47.0354 50.2916 47.0674 50.4598 47.1315C50.636 47.1875 50.7882 47.2917 50.9163 47.4438C51.0444 47.5959 51.1405 47.8042 51.2046 48.0684C51.2766 48.3247 51.3127 48.657 51.3127 49.0654V53.1735H49.8712V49.3297C49.8712 48.9693 49.8112 48.7171 49.691 48.5729C49.5789 48.4288 49.4388 48.3567 49.2706 48.3567C49.1265 48.3567 49.0023 48.3928 48.8982 48.4648C48.7941 48.5289 48.7221 48.637 48.682 48.7892V53.1735H47.2406Z" fill="white"/>
<path d="M51.9688 50.1712C51.9688 49.6667 52.0448 49.2182 52.197 48.8258C52.3491 48.4335 52.5653 48.1011 52.8456 47.8288C53.1259 47.5566 53.4582 47.3524 53.8426 47.2162C54.235 47.0721 54.6714 47 55.1519 47C55.6564 47 56.1048 47.0761 56.4973 47.2282C56.8976 47.3804 57.234 47.5966 57.5063 47.8769C57.7785 48.1491 57.9827 48.4815 58.1189 48.8739C58.263 49.2662 58.3351 49.6987 58.3351 50.1712C58.3351 50.6757 58.259 51.1241 58.1069 51.5165C57.9547 51.9089 57.7385 52.2413 57.4582 52.5135C57.1779 52.7858 56.8416 52.994 56.4492 53.1381C56.0648 53.2743 55.6324 53.3423 55.1519 53.3423C54.6474 53.3423 54.1949 53.2662 53.7946 53.1141C53.4021 52.962 53.0698 52.7497 52.7976 52.4775C52.5253 52.1972 52.3171 51.8608 52.173 51.4685C52.0368 51.0761 51.9688 50.6437 51.9688 50.1712ZM53.5784 50.1712C53.5784 50.4354 53.6144 50.6797 53.6865 50.9039C53.7585 51.1281 53.8626 51.3243 53.9988 51.4925C54.1349 51.6607 54.2991 51.7928 54.4913 51.8889C54.6835 51.977 54.9036 52.021 55.1519 52.021C55.6164 52.021 55.9928 51.8728 56.2811 51.5766C56.5773 51.2803 56.7255 50.8118 56.7255 50.1712C56.7255 49.6186 56.5893 49.1742 56.3171 48.8378C56.0448 48.4935 55.6564 48.3213 55.1519 48.3213C54.9277 48.3213 54.7195 48.3574 54.5273 48.4294C54.3351 48.4935 54.1669 48.6016 54.0228 48.7537C53.8866 48.9059 53.7785 49.0981 53.6985 49.3303C53.6184 49.5626 53.5784 49.8428 53.5784 50.1712Z" fill="white"/>
<path d="M58.8984 47.1682H61.0005L61.1807 47.961H61.2288C61.4129 47.7047 61.6772 47.4805 62.0216 47.2883C62.3659 47.0961 62.7783 47 63.2588 47C63.5551 47 63.8313 47.0401 64.0876 47.1201C64.3519 47.2002 64.5761 47.3323 64.7603 47.5165C64.9444 47.7007 65.0886 47.953 65.1927 48.2733C65.3048 48.5856 65.3609 48.974 65.3609 49.4384V53.1742H63.7993V49.7628C63.7993 49.2743 63.6872 48.9219 63.463 48.7057C63.2468 48.4895 62.9705 48.3814 62.6342 48.3814C62.3378 48.3814 62.0656 48.4695 61.8174 48.6456C61.5771 48.8138 61.4129 49.026 61.3249 49.2823V53.1742H59.7633V48.4895H58.8984V47.1682Z" fill="white"/>
<path d="M66.7344 50.4235H68.0557V51.6127C68.0801 51.6207 68.1039 51.6287 68.1283 51.6367C68.3124 51.7168 68.5124 51.7849 68.7289 51.8409C68.9526 51.8889 69.1889 51.913 69.4371 51.913C69.8859 51.913 70.2344 51.8249 70.4825 51.6487C70.7307 51.4645 70.8548 51.2203 70.8548 50.916C70.8548 50.6437 70.7505 50.4235 70.5426 50.2553C70.3426 50.0871 70.0898 49.939 69.7856 49.8109C69.4892 49.6828 69.1612 49.5546 68.8008 49.4265C68.4484 49.2984 68.1204 49.1382 67.8155 48.946C67.5198 48.7458 67.267 48.4975 67.0591 48.2013C66.8591 47.905 66.7588 47.5206 66.7588 47.0481C66.7588 46.6877 66.8268 46.3594 66.9627 46.0631C67.1073 45.7588 67.3033 45.4986 67.5515 45.2823C67.8075 45.0661 68.1118 44.898 68.4642 44.7778C68.8167 44.6577 69.2094 44.5977 69.6417 44.5977C70.1301 44.5977 70.6106 44.6417 71.0831 44.7298C71.5557 44.8179 71.9319 44.938 72.2124 45.0901V47.5286H70.8911V46.1953C70.8666 46.1953 70.8429 46.1912 70.8185 46.1832C70.6429 46.1352 70.4502 46.0992 70.2423 46.0751C70.0423 46.0431 69.8417 46.0271 69.6417 46.0271C69.2569 46.0271 68.9526 46.1032 68.7289 46.2553C68.5124 46.4074 68.4042 46.6116 68.4042 46.8679C68.4042 47.1322 68.5045 47.3484 68.7045 47.5166C68.913 47.6847 69.1652 47.8369 69.4615 47.973C69.7658 48.1092 70.0938 48.2453 70.4462 48.3814C70.8066 48.5176 71.1353 48.6858 71.4316 48.8859C71.7359 49.0781 71.988 49.3224 72.188 49.6187C72.3965 49.9149 72.5001 50.2873 72.5001 50.7358C72.5001 51.1682 72.4203 51.5486 72.2599 51.8769C72.1002 52.1972 71.8758 52.4695 71.5874 52.6937C71.2989 52.91 70.959 53.0701 70.5663 53.1742C70.1743 53.2864 69.7499 53.3424 69.2932 53.3424C68.9889 53.3424 68.7045 53.3184 68.4405 53.2703C68.1844 53.2223 67.9442 53.1622 67.7198 53.0901C67.5033 53.0181 67.3112 52.942 67.1429 52.8619C66.9746 52.7819 66.8387 52.7137 66.7344 52.6577V50.4235Z" fill="white"/>
<path d="M73.8672 51.852H75.9812V48.4887H73.8672V47.1673H77.5427V51.852H79.765V53.1733H73.8672V51.852ZM75.6934 45.5337C75.6934 45.2855 75.7852 45.0732 75.9693 44.8971C76.1534 44.7209 76.4095 44.6328 76.7382 44.6328C77.0748 44.6328 77.3427 44.7209 77.5427 44.8971C77.7434 45.0732 77.843 45.2855 77.843 45.5337C77.843 45.79 77.7434 46.0022 77.5427 46.1703C77.3427 46.3305 77.0748 46.4106 76.7382 46.4106C76.4095 46.4106 76.1534 46.3305 75.9693 46.1703C75.7852 46.0022 75.6934 45.79 75.6934 45.5337Z" fill="white"/>
<path d="M80.5039 47.1682H82.606L82.7862 47.961H82.8337C83.0185 47.7047 83.2825 47.4805 83.627 47.2883C83.9709 47.0961 84.3834 47 84.8639 47C85.1602 47 85.4367 47.0401 85.6928 47.1201C85.9568 47.2002 86.1812 47.3323 86.3654 47.5165C86.5495 47.7007 86.694 47.953 86.7977 48.2733C86.9099 48.5856 86.966 48.974 86.966 49.4384V53.1742H85.4044V49.7628C85.4044 49.2743 85.2922 48.9219 85.0685 48.7057C84.852 48.4895 84.5754 48.3814 84.2395 48.3814C83.9432 48.3814 83.6706 48.4695 83.4224 48.6456C83.1822 48.8138 83.0185 49.026 82.9301 49.2823V53.1742H81.3685V48.4895H80.5039V47.1682Z" fill="white"/>
<path d="M93.978 52.5375C93.8737 52.6336 93.7378 52.7297 93.5695 52.8258C93.4091 52.9139 93.217 52.998 92.9933 53.0781C92.7768 53.1581 92.5366 53.2222 92.2726 53.2703C92.0079 53.3183 91.7274 53.3423 91.4317 53.3423C90.9189 53.3423 90.4582 53.2703 90.0503 53.1261C89.6497 52.982 89.3092 52.7737 89.0293 52.5015C88.7488 52.2212 88.5323 51.8889 88.3805 51.5045C88.236 51.1121 88.1641 50.6677 88.1641 50.1712C88.1641 49.6426 88.2485 49.1822 88.4162 48.7898C88.5845 48.3894 88.8128 48.0571 89.1013 47.7928C89.3976 47.5285 89.7415 47.3323 90.1342 47.2042C90.5262 47.068 90.9512 47 91.4073 47C91.7116 47 92.0237 47.0401 92.3445 47.1201C92.6725 47.2002 92.9728 47.3404 93.2454 47.5405C93.5173 47.7327 93.7378 47.993 93.9061 48.3213C94.0823 48.6497 94.1701 49.0661 94.1701 49.5706C94.1701 49.9149 94.1298 50.2873 94.0499 50.6877H89.7256C89.7335 50.944 89.7857 51.1602 89.882 51.3363C89.9857 51.5125 90.1183 51.6566 90.278 51.7688C90.4463 51.8809 90.6344 51.965 90.843 52.021C91.0588 52.0691 91.2872 52.0931 91.5274 52.0931C92.0079 52.0931 92.4006 52.0371 92.7049 51.9249C93.017 51.8128 93.2692 51.6767 93.4612 51.5165L93.978 52.5375ZM91.3835 48.2492C91.175 48.2492 90.979 48.2773 90.7948 48.3333C90.6107 48.3894 90.4424 48.4734 90.2906 48.5856C90.146 48.6897 90.0259 48.8218 89.9302 48.982C89.8339 49.1422 89.7778 49.3223 89.7619 49.5225H92.7167C92.7167 49.1301 92.6045 48.8218 92.3801 48.5976C92.1643 48.3653 91.8317 48.2492 91.3835 48.2492Z" fill="white"/>
<path d="M94.7656 44.7656H97.3119V49.5584H97.6723L99.6424 47.168H101.48L99.0536 49.9068L100.628 51.8527H101.744V53.174H99.7988L97.7323 50.6875H97.3119V53.174H95.7503V46.0869H94.7656V44.7656Z" fill="white"/>
</svg>
