<svg width="21" height="21" viewBox="0 0 21 21" fill="none" xmlns="http://www.w3.org/2000/svg">
<mask id="mask0_1022_13872" style="mask-type:alpha" maskUnits="userSpaceOnUse" x="0" y="0" width="21" height="21">
<rect x="0.5" y="0.5" width="20" height="20" fill="#D9D9D9"/>
</mask>
<g mask="url(#mask0_1022_13872)">
<path d="M10.4998 15.7299L7.04152 17.8132C6.88874 17.9105 6.72902 17.9521 6.56235 17.9382C6.39568 17.9243 6.24985 17.8688 6.12485 17.7716C5.99985 17.6743 5.90263 17.5528 5.83318 17.407C5.76374 17.2611 5.74985 17.098 5.79152 16.9174L6.70818 12.9799L3.64568 10.3341C3.50679 10.2091 3.41999 10.0667 3.38527 9.90698C3.35054 9.74726 3.36096 9.59101 3.41652 9.43823C3.47207 9.28545 3.55541 9.16045 3.66652 9.06323C3.77763 8.96601 3.93041 8.90351 4.12485 8.87573L8.16652 8.52157L9.72902 4.81323C9.79846 4.64657 9.9061 4.52157 10.0519 4.43823C10.1978 4.3549 10.3471 4.31323 10.4998 4.31323C10.6526 4.31323 10.8019 4.3549 10.9478 4.43823C11.0936 4.52157 11.2012 4.64657 11.2707 4.81323L12.8332 8.52157L16.8748 8.87573C17.0693 8.90351 17.2221 8.96601 17.3332 9.06323C17.4443 9.16045 17.5276 9.28545 17.5832 9.43823C17.6387 9.59101 17.6492 9.74726 17.6144 9.90698C17.5797 10.0667 17.4929 10.2091 17.354 10.3341L14.2915 12.9799L15.2082 16.9174C15.2499 17.098 15.236 17.2611 15.1665 17.407C15.0971 17.5528 14.9998 17.6743 14.8748 17.7716C14.7498 17.8688 14.604 17.9243 14.4374 17.9382C14.2707 17.9521 14.111 17.9105 13.9582 17.8132L10.4998 15.7299Z" fill="#FFB300"/>
</g>
</svg>
