<svg width="20" height="21" viewBox="0 0 20 21" fill="none" xmlns="http://www.w3.org/2000/svg">
<mask id="mask0_1022_13834" style="mask-type:alpha" maskUnits="userSpaceOnUse" x="0" y="0" width="20" height="21">
<rect y="0.5" width="20" height="20" fill="#D9D9D9"/>
</mask>
<g mask="url(#mask0_1022_13834)">
<path d="M10.0001 7.27083V13.7708L12.6251 15.375L11.9376 12.375L14.2501 10.375L11.2084 10.1042L10.0001 7.27083ZM10.0001 15.7292L6.54176 17.8125C6.38898 17.9097 6.22926 17.9514 6.06259 17.9375C5.89593 17.9236 5.75009 17.8681 5.62509 17.7708C5.50009 17.6736 5.40287 17.5521 5.33343 17.4062C5.26398 17.2604 5.25009 17.0972 5.29176 16.9167L6.20843 12.9792L3.14593 10.3333C3.00704 10.2083 2.92023 10.066 2.88551 9.90625C2.85079 9.74653 2.86121 9.59028 2.91676 9.4375C2.97232 9.28472 3.05565 9.15972 3.16676 9.0625C3.27787 8.96528 3.43065 8.90278 3.62509 8.875L7.66676 8.52083L9.22926 4.8125C9.29871 4.64583 9.40634 4.52083 9.55218 4.4375C9.69801 4.35417 9.84732 4.3125 10.0001 4.3125C10.1529 4.3125 10.3022 4.35417 10.448 4.4375C10.5938 4.52083 10.7015 4.64583 10.7709 4.8125L12.3334 8.52083L16.3751 8.875C16.5695 8.90278 16.7223 8.96528 16.8334 9.0625C16.9445 9.15972 17.0279 9.28472 17.0834 9.4375C17.139 9.59028 17.1494 9.74653 17.1147 9.90625C17.08 10.066 16.9931 10.2083 16.8543 10.3333L13.7918 12.9792L14.7084 16.9167C14.7501 17.0972 14.7362 17.2604 14.6668 17.4062C14.5973 17.5521 14.5001 17.6736 14.3751 17.7708C14.2501 17.8681 14.1043 17.9236 13.9376 17.9375C13.7709 17.9514 13.6112 17.9097 13.4584 17.8125L10.0001 15.7292Z" fill="#FFB300"/>
</g>
</svg>
