<svg width="133" height="66" viewBox="0 0 133 66" fill="none" xmlns="http://www.w3.org/2000/svg">
<path fill-rule="evenodd" clip-rule="evenodd" d="M37.2684 31.4527C40.4087 30.3999 40.9432 27.6573 40.5422 25.1357C40.5422 25.0448 40.6224 24.9798 40.7026 25.0058C43.7092 26.4355 47.0898 29.555 47.0898 34.2343C47.0898 37.8218 44.2303 40.9933 40.0746 40.9933C38.5917 41.0588 37.1286 40.6422 35.9162 39.8091C34.7038 38.976 33.8111 37.7739 33.379 36.3925C32.947 35.0111 33.0003 33.529 33.5304 32.1803C34.0604 30.8315 35.0371 29.6929 36.3064 28.9442C36.3866 28.8922 36.4934 28.9442 36.4934 29.0352C36.5335 29.5161 36.6671 30.7249 37.215 31.4527H37.2684Z" fill="white"/>
<path fill-rule="evenodd" clip-rule="evenodd" d="M55.1969 37.3748L55.4164 37.1275L56.1007 39.2044L56.0103 39.291C55.4938 39.7484 54.7192 39.9833 53.725 39.9833H53.6863C52.7824 39.9833 52.0723 39.736 51.5817 39.2786C51.0911 38.8088 50.8328 38.1042 50.8328 37.2141V31.5521H49.0898V29.265H50.8328V26.5082H53.5184V29.265H55.6488V31.5521H53.5055V36.6578C53.5055 36.8927 53.5701 37.6467 54.3189 37.6467C54.7062 37.6467 55.0678 37.5108 55.1969 37.3624V37.3748ZM56.6172 39.7484V29.2774H59.3027V39.7484H56.6172ZM57.947 25C58.2657 25.0001 58.5772 25.0903 58.8423 25.2596C59.1074 25.4289 59.3142 25.6695 59.4368 25.9511C59.5593 26.2328 59.592 26.5429 59.5308 26.8423C59.4695 27.1417 59.3171 27.417 59.0927 27.6337C58.8683 27.8503 58.5819 27.9984 58.2697 28.0594C57.9575 28.1204 57.6334 28.0916 57.3383 27.9765C57.0432 27.8615 56.7902 27.6653 56.6113 27.4128C56.4325 27.1603 56.3356 26.8628 56.3331 26.5577C56.3331 25.7171 57.069 25 57.947 25ZM66.5202 29.0178C68.8442 29.0178 70.1224 30.2293 70.1224 32.4422V39.736H67.4371V33.0603C67.3849 31.8735 66.791 31.3296 65.526 31.3296C64.3898 31.3296 63.4731 31.9971 63.0083 32.5658V39.736H60.3227V29.2898H63.0083V30.4024C63.7829 29.6854 65.0224 29.0426 66.5202 29.0426V29.0178ZM79.057 30.3653V25.4451H81.7423V39.7607H79.057V38.6729C78.6464 39.0879 78.1519 39.4189 77.6036 39.6463C77.0554 39.8736 76.4652 39.9925 75.8676 39.9956C72.9373 39.9956 70.9746 37.7951 70.9746 34.5191C70.9746 31.2307 72.9373 29.0302 75.8676 29.0302C76.4667 29.0328 77.0583 29.1526 77.6066 29.3822C78.1548 29.6118 78.6486 29.9464 79.057 30.3653ZM79.057 32.5782C78.7575 32.205 78.3756 31.9003 77.9377 31.6864C77.4999 31.4726 77.0178 31.3549 76.5263 31.342C74.8609 31.342 73.7504 32.6152 73.7504 34.5191C73.7504 36.4105 74.8609 37.6839 76.5263 37.6839C77.4947 37.6839 78.5537 37.1894 79.057 36.4724V32.5782ZM88.0174 29.0302C91.1935 29.0302 93.4012 31.379 93.4012 34.7169V35.4216H85.2806C85.5514 36.8927 86.7649 37.8322 88.4177 37.8322C89.4634 37.8322 90.6129 37.3995 91.2715 36.769L91.4518 36.6207L92.7301 38.3761L92.6013 38.4874C91.3915 39.5145 89.8137 40.0548 88.1984 39.9956C84.8412 39.9956 82.4782 37.7333 82.4782 34.5067C82.4525 33.7943 82.5768 33.0843 82.8447 32.4191C83.1119 31.754 83.5173 31.1474 84.0361 30.6359C84.5542 30.1245 85.1753 29.7186 85.8619 29.4427C86.5485 29.1667 87.2859 29.0264 88.0306 29.0302H88.0174ZM85.2673 33.4807H90.7807C90.6254 31.9106 89.2699 31.1936 88.0174 31.1936C86.1327 31.1936 85.4226 32.5535 85.2673 33.493V33.4807ZM99.8963 29.0302H100.09V31.6263L99.8573 31.5892C99.6638 31.5521 99.418 31.5273 99.1729 31.5273C98.3082 31.5273 97.1072 32.1084 96.6554 32.7265V39.736H93.9693V29.2774H96.6679V30.4395C97.5591 29.5494 98.7343 29.0302 99.8963 29.0302Z" fill="white"/>
</svg>
