<svg width="109" height="18" viewBox="0 0 109 18" fill="none" xmlns="http://www.w3.org/2000/svg">
<g clip-path="url(#clip0_1005_9943)">
<path d="M7.65767 4.78782V17.0045H3.25545V4.74021C2.6866 4.74021 1.60553 4.74021 1.05224 4.74021C0.118308 4.74021 0.180548 4.92206 0.180548 4.00341C0.180548 3.23621 0.180548 1.82785 0.180548 0.987197C0.507425 0.973594 0.779114 0.95183 1.05222 0.95183C4.54173 0.949109 8.03123 0.972234 11.5208 0.943668C15.1079 0.915103 17.7583 2.86846 18.9681 6.05288C20.2148 9.33794 19.4507 12.2979 17.2064 14.9301C16.0801 16.2509 14.4895 16.8712 12.749 17.0086C11.5108 17.1065 10.2557 17.0276 8.88164 17.0276C8.88164 15.8455 8.86754 14.6797 8.90428 13.5154C8.90718 13.4107 9.23261 13.2406 9.41518 13.2297C10.1921 13.1876 10.9717 13.2134 11.7485 13.1807C13.6759 13.1018 14.7655 12.2245 15.1305 10.4235C15.3767 9.20604 15.3145 8.00623 14.8928 6.80919C14.4711 5.61623 13.5952 4.91841 12.3797 4.81638C10.8429 4.68851 9.28635 4.78509 7.65908 4.78509L7.65767 4.78782Z" fill="white"/>
<path d="M24.5096 12.9277V4.58699H21.7188V3.42676H28.5817V4.58699H25.7908V12.9277H24.5096Z" fill="white"/>
<path d="M31.8063 13.0049C31.2904 13.0049 30.8422 12.9491 30.4616 12.8373C30.0895 12.7256 29.7808 12.5408 29.5356 12.283C29.2903 12.0166 29.1085 11.6556 28.9901 11.2001C28.8717 10.7447 28.8125 10.1688 28.8125 9.47268C28.8125 8.75076 28.8717 8.16206 28.9901 7.70656C29.1085 7.24246 29.2903 6.8815 29.5356 6.62368C29.7808 6.36585 30.0937 6.18967 30.4743 6.09513C30.8549 5.992 31.2989 5.94043 31.8063 5.94043C32.3137 5.94043 32.7577 5.992 33.1383 6.09513C33.5188 6.19826 33.8318 6.37874 34.077 6.63657C34.3223 6.8944 34.5041 7.25536 34.6225 7.71945C34.7409 8.17495 34.8001 8.75938 34.8001 9.47268C34.8001 10.1774 34.7409 10.7618 34.6225 11.2259C34.5041 11.6814 34.3223 12.0381 34.077 12.2959C33.8402 12.5537 33.5316 12.7385 33.151 12.8502C32.7704 12.9534 32.3222 13.0049 31.8063 13.0049ZM31.8063 11.9478C32.0854 11.9478 32.3307 11.9221 32.5421 11.8705C32.762 11.8189 32.9438 11.7115 33.0875 11.5482C33.2313 11.3763 33.3413 11.1228 33.4174 10.7876C33.4935 10.4524 33.5316 10.0099 33.5316 9.45979C33.5316 8.90973 33.4935 8.47145 33.4174 8.14486C33.3413 7.80969 33.2313 7.56046 33.0875 7.39716C32.9438 7.23388 32.762 7.12644 32.5421 7.07488C32.3307 7.01472 32.0854 6.98464 31.8063 6.98464C31.5187 6.98464 31.265 7.01472 31.0451 7.07488C30.8337 7.12644 30.6561 7.23388 30.5124 7.39716C30.377 7.56046 30.2713 7.80969 30.1952 8.14486C30.1276 8.47145 30.0937 8.90973 30.0937 9.45979C30.0937 10.0099 30.1276 10.4524 30.1952 10.7876C30.2713 11.1228 30.377 11.3763 30.5124 11.5482C30.6561 11.7115 30.8337 11.8189 31.0451 11.8705C31.265 11.9221 31.5187 11.9478 31.8063 11.9478Z" fill="white"/>
<path d="M36.3516 15.9829V6.03067H37.3917L37.6201 6.72681C37.7808 6.60649 37.971 6.48617 38.1909 6.36585C38.4193 6.24553 38.6645 6.14669 38.9267 6.06934C39.1973 5.98341 39.468 5.94043 39.7386 5.94043C40.1699 5.94043 40.5378 6.03067 40.8422 6.21115C41.1551 6.39163 41.4089 6.64516 41.6034 6.97174C41.7979 7.28974 41.9374 7.66359 42.022 8.0933C42.1151 8.52302 42.1616 8.98281 42.1616 9.47268C42.1616 10.2375 42.077 10.8865 41.9078 11.4193C41.7472 11.9436 41.4892 12.3432 41.134 12.6182C40.7873 12.8846 40.3221 13.0178 39.7386 13.0178C39.3834 13.0178 39.0198 12.9663 38.6476 12.8631C38.2755 12.7514 37.933 12.6053 37.6201 12.4248V15.9829H36.3516ZM39.358 11.9349C39.6456 11.9349 39.9036 11.8619 40.1319 11.7158C40.3602 11.5697 40.542 11.3204 40.6774 10.9681C40.8211 10.6071 40.893 10.1086 40.893 9.47268C40.893 8.87105 40.8211 8.3898 40.6774 8.02884C40.5335 7.65929 40.3475 7.39716 40.1192 7.24246C39.8908 7.07918 39.6414 6.99753 39.3707 6.99753C39.0155 6.99753 38.6899 7.0534 38.3939 7.16512C38.1064 7.27684 37.8484 7.39287 37.6201 7.51318V11.4451C37.8823 11.5911 38.1614 11.7115 38.4574 11.806C38.7618 11.892 39.0621 11.9349 39.358 11.9349Z" fill="white"/>
<path d="M43.75 12.9277V3.42676H47.5303C48.1138 3.42676 48.6043 3.53419 49.0018 3.74904C49.3993 3.9639 49.7207 4.27759 49.9659 4.69012C50.2112 5.09405 50.3888 5.59252 50.4987 6.18552C50.6087 6.76994 50.6637 7.43599 50.6637 8.18369C50.6637 9.19785 50.5452 10.0572 50.3084 10.762C50.0801 11.4667 49.7334 12.0038 49.2683 12.3734C48.8031 12.743 48.2238 12.9277 47.5303 12.9277H43.75ZM45.0312 11.7675H47.4162C47.8813 11.7675 48.2576 11.6257 48.5451 11.3421C48.8327 11.0499 49.0441 10.6373 49.1795 10.1045C49.3147 9.56308 49.3824 8.92278 49.3824 8.18369C49.3824 7.50475 49.3444 6.93753 49.2683 6.48203C49.1921 6.01793 49.0738 5.64839 48.913 5.37336C48.7524 5.08975 48.5451 4.88779 48.2915 4.76747C48.0462 4.64715 47.7544 4.58699 47.4162 4.58699H45.0312V11.7675Z" fill="white"/>
<path d="M54.7995 13.0049C54.0807 13.0049 53.5056 12.8975 53.0743 12.6826C52.6514 12.4678 52.3469 12.1068 52.1609 11.5998C51.9833 11.0841 51.8945 10.3751 51.8945 9.47268C51.8945 8.5531 51.9833 7.83977 52.1609 7.3327C52.3469 6.81705 52.6514 6.45609 53.0743 6.24982C53.4971 6.04356 54.0679 5.94043 54.7868 5.94043C55.4127 5.94043 55.9159 6.00919 56.2964 6.14669C56.6855 6.27561 56.9688 6.51196 57.1463 6.85572C57.3324 7.1909 57.4254 7.65929 57.4254 8.26089C57.4254 8.68203 57.3408 9.01721 57.1717 9.26642C57.0111 9.51563 56.7784 9.69611 56.474 9.80786C56.178 9.91961 55.8228 9.97545 55.4084 9.97545H53.163C53.1715 10.4739 53.2265 10.8736 53.328 11.1743C53.438 11.4666 53.6282 11.6814 53.8988 11.8189C54.1779 11.9478 54.5838 12.0123 55.1167 12.0123H57.2351V12.7858C56.8715 12.8373 56.4994 12.8846 56.1188 12.9276C55.7383 12.9792 55.2985 13.0049 54.7995 13.0049ZM53.1504 9.16329H55.2942C55.6326 9.16329 55.882 9.09883 56.0427 8.96992C56.2034 8.841 56.2837 8.60469 56.2837 8.26089C56.2837 7.91712 56.233 7.6464 56.1315 7.44873C56.0385 7.25106 55.882 7.10926 55.6621 7.02331C55.4423 6.93737 55.1505 6.8944 54.7868 6.8944C54.3724 6.8944 54.0426 6.95885 53.7974 7.08777C53.5606 7.21668 53.3914 7.44443 53.2899 7.77101C53.1969 8.0976 53.1504 8.56169 53.1504 9.16329Z" fill="white"/>
<path d="M60.6407 12.9272L58.1797 6.03027H59.4863L61.4019 11.7283L63.3554 6.03027H64.6621L62.1123 12.9272H60.6407Z" fill="white"/>
<path d="M68.1941 13.0049C67.4752 13.0049 66.9001 12.8975 66.4688 12.6826C66.0459 12.4678 65.7415 12.1068 65.5554 11.5998C65.3778 11.0841 65.2891 10.3751 65.2891 9.47268C65.2891 8.5531 65.3778 7.83977 65.5554 7.3327C65.7415 6.81705 66.0459 6.45609 66.4688 6.24982C66.8916 6.04356 67.4625 5.94043 68.1813 5.94043C68.8072 5.94043 69.3104 6.00919 69.6909 6.14669C70.08 6.27561 70.3633 6.51196 70.5409 6.85572C70.7269 7.1909 70.82 7.65929 70.82 8.26089C70.82 8.68203 70.7354 9.01721 70.5662 9.26642C70.4056 9.51563 70.173 9.69611 69.8686 9.80786C69.5726 9.91961 69.2173 9.97545 68.8029 9.97545H66.5576C66.566 10.4739 66.621 10.8736 66.7225 11.1743C66.8325 11.4666 67.0227 11.6814 67.2934 11.8189C67.5725 11.9478 67.9784 12.0123 68.5112 12.0123H70.6297V12.7858C70.266 12.8373 69.8939 12.8846 69.5133 12.9276C69.1328 12.9792 68.693 13.0049 68.1941 13.0049ZM66.5449 9.16329H68.6888C69.0271 9.16329 69.2765 9.09883 69.4372 8.96992C69.5979 8.841 69.6783 8.60469 69.6783 8.26089C69.6783 7.91712 69.6275 7.6464 69.5261 7.44873C69.433 7.25106 69.2765 7.10926 69.0567 7.02331C68.8368 6.93737 68.545 6.8944 68.1813 6.8944C67.767 6.8944 67.4371 6.95885 67.1918 7.08777C66.955 7.21668 66.7859 7.44443 66.6845 7.77101C66.5914 8.0976 66.5449 8.56169 66.5449 9.16329Z" fill="white"/>
<path d="M74.2573 12.9408C73.8429 12.9408 73.492 12.8678 73.2044 12.7217C72.9253 12.5756 72.7139 12.3436 72.5701 12.0256C72.4348 11.699 72.3672 11.2607 72.3672 10.7106V3.0918H73.6357V10.543C73.6357 10.904 73.6695 11.1833 73.7372 11.381C73.8133 11.5701 73.9148 11.7033 74.0416 11.7806C74.177 11.858 74.3335 11.9095 74.511 11.9353L75.1453 12.0127V12.9408H74.2573Z" fill="white"/>
<path d="M78.9353 13.0049C78.4194 13.0049 77.9712 12.9491 77.5905 12.8373C77.2185 12.7256 76.9098 12.5408 76.6645 12.283C76.4193 12.0166 76.2374 11.6556 76.1191 11.2001C76.0006 10.7447 75.9414 10.1688 75.9414 9.47268C75.9414 8.75076 76.0006 8.16206 76.1191 7.70656C76.2374 7.24246 76.4193 6.8815 76.6645 6.62368C76.9098 6.36585 77.2227 6.18967 77.6033 6.09513C77.9838 5.992 78.4278 5.94043 78.9353 5.94043C79.4427 5.94043 79.8867 5.992 80.2673 6.09513C80.6478 6.19826 80.9607 6.37874 81.2056 6.63657C81.4514 6.8944 81.6335 7.25536 81.7511 7.71945C81.8695 8.17495 81.9291 8.75938 81.9291 9.47268C81.9291 10.1774 81.8695 10.7618 81.7511 11.2259C81.6335 11.6814 81.4514 12.0381 81.2056 12.2959C80.9695 12.5537 80.6605 12.7385 80.2799 12.8502C79.8994 12.9534 79.4512 13.0049 78.9353 13.0049ZM78.9353 11.9478C79.2144 11.9478 79.4596 11.9221 79.6711 11.8705C79.8909 11.8189 80.0727 11.7115 80.2165 11.5482C80.3603 11.3763 80.4702 11.1228 80.5463 10.7876C80.6224 10.4524 80.6605 10.0099 80.6605 9.45979C80.6605 8.90973 80.6224 8.47145 80.5463 8.14486C80.4702 7.80969 80.3603 7.56046 80.2165 7.39716C80.0727 7.23388 79.8909 7.12644 79.6711 7.07488C79.4596 7.01472 79.2144 6.98464 78.9353 6.98464C78.6477 6.98464 78.394 7.01472 78.1741 7.07488C77.9627 7.12644 77.7851 7.23388 77.6413 7.39716C77.506 7.56046 77.4003 7.80969 77.3242 8.14486C77.2565 8.47145 77.2227 8.90973 77.2227 9.45979C77.2227 10.0099 77.2565 10.4524 77.3242 10.7876C77.4003 11.1228 77.506 11.3763 77.6413 11.5482C77.7851 11.7115 77.9627 11.8189 78.1741 11.8705C78.394 11.9221 78.6477 11.9478 78.9353 11.9478Z" fill="white"/>
<path d="M83.4766 15.9829V6.03067H84.5167L84.7456 6.72681C84.9059 6.60649 85.0969 6.48617 85.316 6.36585C85.5448 6.24553 85.7898 6.14669 86.0524 6.06934C86.3223 5.98341 86.5931 5.94043 86.8638 5.94043C87.2956 5.94043 87.6631 6.03067 87.9676 6.21115C88.2802 6.39163 88.534 6.64516 88.729 6.97174C88.9232 7.28974 89.0626 7.66359 89.1472 8.0933C89.2406 8.52302 89.2866 8.98281 89.2866 9.47268C89.2866 10.2375 89.2028 10.8865 89.0336 11.4193C88.8724 11.9436 88.6146 12.3432 88.2593 12.6182C87.9128 12.8846 87.4471 13.0178 86.8638 13.0178C86.5085 13.0178 86.1451 12.9663 85.7728 12.8631C85.4006 12.7514 85.0582 12.6053 84.7456 12.4248V15.9829H83.4766ZM86.4835 11.9349C86.7711 11.9349 87.029 11.8619 87.257 11.7158C87.4858 11.5697 87.6671 11.3204 87.8024 10.9681C87.9467 10.6071 88.0184 10.1086 88.0184 9.47268C88.0184 8.87105 87.9467 8.3898 87.8024 8.02884C87.659 7.65929 87.4729 7.39716 87.2449 7.24246C87.0161 7.07918 86.7671 6.99753 86.4964 6.99753C86.1411 6.99753 85.8155 7.0534 85.519 7.16512C85.2314 7.27684 84.9736 7.39287 84.7456 7.51318V11.4451C85.0074 11.5911 85.287 11.7115 85.5827 11.806C85.8873 11.892 86.1878 11.9349 86.4835 11.9349Z" fill="white"/>
<path d="M93.5148 13.0049C92.7953 13.0049 92.2208 12.8975 91.7889 12.6826C91.3667 12.4678 91.0622 12.1068 90.8761 11.5998C90.698 11.0841 90.6094 10.3751 90.6094 9.47268C90.6094 8.5531 90.698 7.83977 90.8761 7.3327C91.0622 6.81705 91.3667 6.45609 91.7889 6.24982C92.2119 6.04356 92.7832 5.94043 93.5019 5.94043C94.1279 5.94043 94.6307 6.00919 95.0118 6.14669C95.4001 6.27561 95.6838 6.51196 95.861 6.85572C96.0471 7.1909 96.1406 7.65929 96.1406 8.26089C96.1406 8.68203 96.056 9.01721 95.8868 9.26642C95.7257 9.51563 95.4936 9.69611 95.1891 9.80786C94.8934 9.91961 94.538 9.97545 94.1231 9.97545H91.8784C91.8864 10.4739 91.9412 10.8736 92.0427 11.1743C92.1531 11.4666 92.3433 11.6814 92.614 11.8189C92.8928 11.9478 93.2988 12.0123 93.8314 12.0123H95.9505V12.7858C95.5863 12.8373 95.214 12.8846 94.8337 12.9276C94.4534 12.9792 94.0135 13.0049 93.5148 13.0049ZM91.8655 9.16329H94.0095C94.3479 9.16329 94.5969 9.09883 94.758 8.96992C94.9183 8.841 94.9989 8.60469 94.9989 8.26089C94.9989 7.91712 94.9481 7.6464 94.8466 7.44873C94.7532 7.25106 94.5969 7.10926 94.3769 7.02331C94.1569 6.93737 93.8653 6.8944 93.5019 6.8944C93.0877 6.8944 92.7574 6.95885 92.5125 7.08777C92.2756 7.21668 92.1064 7.44443 92.0049 7.77101C91.9122 8.0976 91.8655 8.56169 91.8655 9.16329Z" fill="white"/>
<path d="M97.6875 12.9276V6.03067H98.6648L98.9565 7.1909C99.2441 6.83854 99.5648 6.54203 99.9201 6.30139C100.275 6.06076 100.69 5.94043 101.163 5.94043C101.274 5.94043 101.379 5.94903 101.481 5.96621C101.582 5.97481 101.68 5.992 101.772 6.01778V7.3456C101.654 7.32841 101.532 7.31552 101.404 7.30692C101.278 7.28974 101.146 7.28114 101.011 7.28114C100.723 7.28114 100.466 7.31552 100.238 7.38427C100.009 7.45303 99.7896 7.56046 99.5777 7.70656C99.3747 7.84407 99.1676 8.01595 98.9565 8.22221V12.9276H97.6875Z" fill="white"/>
<path d="M105.337 13.0045C105.16 13.0045 104.949 13.0003 104.703 12.9916C104.458 12.983 104.204 12.9659 103.942 12.9401C103.689 12.9229 103.452 12.9014 103.232 12.8756C103.02 12.8498 102.851 12.8198 102.724 12.7854V12.0119H105.579C105.824 12.0119 106.035 11.9947 106.213 11.9603C106.39 11.9174 106.526 11.8314 106.619 11.7025C106.721 11.5736 106.771 11.3845 106.771 11.1353V10.8517C106.771 10.5938 106.687 10.3919 106.517 10.2458C106.348 10.0997 106.069 10.0266 105.68 10.0266H104.69C104.293 10.0266 103.938 9.97506 103.625 9.87192C103.32 9.76017 103.079 9.57542 102.901 9.31759C102.733 9.05976 102.648 8.71169 102.648 8.27339V7.89953C102.648 7.46123 102.728 7.10027 102.889 6.81665C103.059 6.53304 103.324 6.32249 103.689 6.18497C104.052 6.03887 104.534 5.96582 105.135 5.96582C105.388 5.96582 105.667 5.97871 105.972 6.00449C106.285 6.02169 106.589 6.04747 106.885 6.08184C107.181 6.11622 107.418 6.1549 107.596 6.19787V6.97135H104.906C104.534 6.97135 104.246 7.03581 104.044 7.16472C103.849 7.29364 103.751 7.53857 103.751 7.89953V8.15736C103.751 8.38082 103.798 8.5527 103.892 8.67302C103.984 8.79331 104.116 8.87066 104.285 8.90507C104.462 8.93947 104.669 8.95663 104.906 8.95663H105.921C106.563 8.95663 107.05 9.11133 107.38 9.42072C107.71 9.7215 107.874 10.1469 107.874 10.697V11.2255C107.874 11.6896 107.769 12.0506 107.558 12.3084C107.346 12.5662 107.05 12.7467 106.67 12.8498C106.298 12.953 105.854 13.0045 105.337 13.0045Z" fill="white"/>
</g>
<defs>
<clipPath id="clip0_1005_9943">
<rect width="108" height="18" fill="white" transform="translate(0.125)"/>
</clipPath>
</defs>
</svg>
