<svg version="1.2" xmlns="http://www.w3.org/2000/svg" viewBox="0 0 512 512" width="25" height="25">
	<title>Rectangle 6974 (1)-svg</title>
	<style>
		.s0 { fill: none;stroke: #9da0a0;stroke-width: 2 } 
		.s1 { fill: none;stroke: #1e3454;stroke-width: 2 } 
		.s2 { fill: none;stroke: #7d2638;stroke-width: 2 } 
		.s3 { fill: none;stroke: #8094b4;stroke-width: 2 } 
		.s4 { fill: none;stroke: #5f1a4c;stroke-width: 2 } 
		.s5 { fill: none;stroke: #df8598;stroke-width: 2 } 
		.s6 { fill: #3b4040 } 
		.s7 { fill: #002868 } 
		.s8 { fill: #ffffff } 
		.s9 { fill: #be0b30 } 
	</style>
	<g id="Layer">
		<path id="Layer" fill-rule="evenodd" class="s0" d="m157.6 41.6q-7.4 2.5-14 6.5c-0.9 0.5-1.3 1.4-1.5 2.3"/>
		<path id="Layer" fill-rule="evenodd" class="s1" d="m142.1 50.4q0.1-0.8-0.8-1-0.5-0.1-0.9 0.2-5 2.7-6.3 3.5-2.9 1.9-10 7"/>
		<path id="Layer" fill-rule="evenodd" class="s0" d="m124 60.1q-3.8 1.7-4.6 4.8 0 0.1-0.1 0.3-0.1 0.1-0.2 0.2-0.1 0.1-0.3 0.2-0.1 0-0.3 0-3.6 0.1-6.3 3.1"/>
		<path id="Layer" fill-rule="evenodd" class="s1" d="m112.2 68.7q-9.8 7.1-18.4 15.5"/>
		<path id="Layer" fill-rule="evenodd" class="s0" d="m93.8 84.3q-3 2.4-4.4 5.4-0.2 0.4-0.7 0.5h-0.5q-0.5 0.1-0.8 0.4l-3.4 3.6"/>
		<path id="Layer" fill-rule="evenodd" class="s1" d="m84 94.2q-9.5 9.3-16.8 20.1"/>
		<path id="Layer" fill-rule="evenodd" class="s0" d="m67.3 114.3q-5.9 6-8.1 12.8"/>
		<path id="Layer" fill-rule="evenodd" class="s1" d="m59.2 127.1q-1.4 0.3-2.2 1.7-5.6 8.8-8 13.3-0.3 0.5-0.1 1.1 0.3 1.2-0.8 1.8-0.2 0.1-0.3 0.2-0.1 0-0.2 0.1-0.1 0.1-0.1 0.2-0.1 0.1-0.2 0.2-3.2 4.4-4.6 9.4"/>
		<path id="Layer" fill-rule="evenodd" class="s0" d="m42.7 155.1q-1.8 1.6-0.7 2.8"/>
		<path id="Layer" fill-rule="evenodd" class="s1" d="m42 157.9q-1-0.2-1.4 0.9-7.8 17-12.7 35.1-0.6 2.3 1.8 2.5 0 0 2.2 0"/>
		<path id="Layer" fill-rule="evenodd" class="s0" d="m31.9 196.4l-3.9 0.2q-0.6 0-0.8 0.4-0.7 1.5-0.5 3.1"/>
		<path id="Layer" fill-rule="evenodd" class="s1" d="m26.7 200.1q-0.7 1.1-1 2.4-8.1 35.5-5.3 71.8"/>
		<path id="Layer" fill-rule="evenodd" class="s0" d="m20.4 274.3q1.3 17.9 5.5 35.5"/>
		<path id="Layer" fill-rule="evenodd" class="s2" d="m25.9 309.8q4.2 18.6 11.8 36.7"/>
		<path id="Layer" fill-rule="evenodd" class="s0" d="m37.7 346.5q7.8 19.1 18.9 36.1"/>
		<path id="Layer" fill-rule="evenodd" class="s2" d="m56.6 382.6q12.4 19.9 28.6 36.5"/>
		<path id="Layer" fill-rule="evenodd" class="s0" d="m85.2 419.1q20.4 21.8 45.1 36.8"/>
		<path id="Layer" fill-rule="evenodd" class="s2" d="m130.3 455.9q0.2 0.2 0.3 0.4 0.2 0.3 0.6 0.5 49.9 30.6 106.8 34.8 74.1 5.4 138.6-32.3 2.6-1.5 3.7-3.3"/>
		<path id="Layer" fill-rule="evenodd" class="s0" d="m380.3 456q1.5 0.1 2.1-0.3 24.6-15.5 44.5-36.6"/>
		<path id="Layer" fill-rule="evenodd" class="s2" d="m426.9 419.1q0.6-0.9 1.4-1.6 0.9-0.8 1.7-1.6 13.5-14.5 24.4-31.6 0.2-0.2 0.2-0.5 0-0.3-0.1-0.6-0.2-0.3-0.5-0.4-0.2-0.2-0.5-0.2h-13"/>
		<path id="Layer" fill-rule="evenodd" class="s0" d="m440.5 382.6h14.5q0.1 0 0.3-0.1 0.1 0 0.2-0.1 0.2-0.1 0.3-0.2 0.1-0.1 0.1-0.2 9.6-15.2 16.7-31.4 1.4-3.3 1.7-4.1"/>
		<path id="Layer" fill-rule="evenodd" class="s2" d="m474.3 346.5q7.5-17.9 11.8-36.7"/>
		<path id="Layer" fill-rule="evenodd" class="s0" d="m486.1 309.8q4.3-17.6 5.4-35.5"/>
		<path id="Layer" fill-rule="evenodd" class="s2" d="m491.5 274.3q1.6-18.3 0.1-36.3"/>
		<path id="Layer" fill-rule="evenodd" class="s0" d="m491.6 238q-1.3-18.8-5.8-37"/>
		<path id="Layer" fill-rule="evenodd" class="s2" d="m485.8 201q-3.9-16.7-10.3-32.5-0.8-1.8-1.6-4"/>
		<path id="Layer" fill-rule="evenodd" class="s0" d="m473.9 164.5q-7.9-19.2-19.2-36.2"/>
		<path id="Layer" fill-rule="evenodd" class="s2" d="m454.7 128.3q-12.6-20.1-29.1-36.6"/>
		<path id="Layer" fill-rule="evenodd" class="s0" d="m425.6 91.7q-19.9-21-44.1-35.8"/>
		<path id="Layer" fill-rule="evenodd" class="s2" d="m381.5 55.9l-20.9-11.9q-0.5-0.2-0.9 0.1l-0.5 0.4"/>
		<path id="Layer" fill-rule="evenodd" class="s1" d="m359.2 44.5q-1.4-1.8-3.1-2.6-13.6-6.4-29.4-11.4-3.1-1-5.1-1.2"/>
		<path id="Layer" fill-rule="evenodd" class="s0" d="m321.6 29.3q-0.7-1-1.3-0.4"/>
		<path id="Layer" fill-rule="evenodd" class="s1" d="m320.3 28.9q-0.5-0.5-1.1-0.6c-28.2-7.9-57.8-9.9-86.2-7.4q-36.2 3.3-70.1 17.9-1.2 0.5-2.7 1.3-1.4 0.9-2.6 1.5"/>
		<path id="Layer" fill-rule="evenodd" class="s3" d="m320.3 28.9l-2.4 7.8q-0.1 0.2-0.2 0.3-0.1 0.1-0.2 0.2-0.1 0.1-0.2 0.1-0.2 0.1-0.3 0.1-4.5 0.1-8.7-0.2-0.1 0-0.2 0.1-0.4 0.1-0.3 0.5 0 0 0 0.1 0 0 0 0.1 0.1 0 0.1 0.1 0.1 0 0.1 0 3.7 2.2 7.1 5.3 0.3 0.3 0.2 0.7l-2.9 8.7q-0.3 0.9 0.5 0.4l7.5-5.5q0.5-0.4 1 0l7 5.1q1.3 0.9 0.8-0.5l-2.7-8.3q0-0.1 0-0.2 0 0 0-0.1 0.1-0.1 0.1-0.1 0-0.1 0.1-0.1 3.3-3.2 7.1-5.2 0.4-0.2 0.3-0.7 0 0 0-0.1-0.1-0.1-0.1-0.1-0.1-0.1-0.2-0.1 0 0-0.1 0l-8.7 0.1q-0.2 0-0.4-0.1-0.2 0-0.3-0.1-0.2-0.1-0.3-0.3-0.1-0.1-0.1-0.3l-2.3-7.3"/>
		<path id="Layer" fill-rule="evenodd" class="s4" d="m359.2 44.5l0.1 11.5"/>
		<path id="Layer" fill-rule="evenodd" class="s3" d="m359.3 56l-0.1 35.7"/>
		<path id="Layer" fill-rule="evenodd" class="s4" d="m359.2 91.7v36.6"/>
		<path id="Layer" fill-rule="evenodd" class="s3" d="m359.2 128.3l0.4 36.5"/>
		<path id="Layer" fill-rule="evenodd" class="s4" d="m359.6 164.8q-0.7 2-0.7 4.2 0.3 15 0.1 30.1 0 0.4 0.2 0.8 0.1 0.4 0.3 0.8"/>
		<path id="Layer" fill-rule="evenodd" class="s3" d="m359.5 200.7l-0.2 37.2"/>
		<path id="Layer" fill-rule="evenodd" class="s4" d="m359.3 237.9q-0.9 18.2 0.3 36.3"/>
		<path id="Layer" fill-rule="evenodd" class="s3" d="m359.6 274.3l-339.2-0.1"/>
		<path id="Layer" fill-rule="evenodd" class="s3" d="m26.7 200.1q1.8 1 2.8 2.4 0.3 0.4 0.1 0.9l-2.4 8.3q-0.3 1 0.5 0.4l7.3-5.4q0.5-0.4 0.9 0l6.9 5.2q1.1 0.8 0.7-0.6l-2.4-8.3q-0.2-0.7 0.4-1l6.7-4.8q0.1-0.1 0.1-0.1 0.1-0.1 0.1-0.2 0-0.1 0-0.1 0-0.1 0-0.2-0.1-0.4-0.4-0.3-4 0-7.9 0.1-1.5 0.1-1.9-1.4l-2-6.5q-0.7-2.4-1.4 0-1 3.9-2.9 7.9"/>
		<path id="Layer" fill-rule="evenodd" class="s3" d="m42 157.9q3 2.5 0.7-2.8"/>
		<path id="Layer" fill-rule="evenodd" class="s3" d="m59.2 127.1q-0.8 3.7-2.2 6.9-0.2 0.5 0 0.6 0.1 0.1 0.3 0.2 0.1 0 0.3 0 0.2 0 0.3-0.1 0.2 0 0.3-0.1 3.1-2.6 6.2-4.8 0.2-0.2 0.5-0.3 0.2-0.1 0.5 0 0.3 0 0.6 0.1 0.2 0 0.4 0.2l6 4.7q1.5 1.1 1-0.7l-2.4-8q0-0.2 0-0.3 0-0.2 0-0.3 0.1-0.1 0.2-0.2 0-0.1 0.1-0.2 2.9-2.3 6.2-4.3 0.6-0.3 0.6-0.9 0-0.2 0-0.3 0-0.1-0.1-0.2-0.1-0.1-0.2-0.1-0.1-0.1-0.3-0.1l-8 0.3q-0.6 0-0.8-0.4-1-1.5-1.5-4.5"/>
		<path id="Layer" fill-rule="evenodd" class="s3" d="m84 94.2q2 0.9 2.7 2.1 0.3 0.3 0.1 0.8l-2.3 7.7q-0.5 1.6 0.9 0.6l6.6-4.9q0.5-0.4 1 0l6.6 4.8q2 1.5 1.1-0.8-1.4-3.3-2.4-7.7-0.1-0.5 0.2-0.7l6.6-5.2q1.2-0.9-0.3-0.9l-8 0.2q-0.3 0-0.5-0.1-0.3-0.1-0.5-0.2-0.2-0.2-0.3-0.4-0.2-0.2-0.3-0.5l-1.4-4.8"/>
		<path id="Layer" fill-rule="evenodd" class="s3" d="m112.2 68.7l4.1 2.6q0.2 0.1 0.3 0.2 0.1 0.2 0.1 0.3 0.1 0.2 0.1 0.4 0 0.2 0 0.3l-2.7 8.2q-0.4 1.5 0.8 0.5l6.9-5.2q0.2-0.1 0.3-0.1 0.1-0.1 0.3-0.1 0.1 0 0.2 0.1 0.2 0 0.3 0.1l6.9 5.2q1.2 0.9 0.8-0.6l-2.5-8q-0.1-0.2-0.1-0.4 0-0.1 0.1-0.3 0.1-0.1 0.1-0.3 0.1-0.1 0.3-0.2l6.3-4.7q1.6-1.2-0.4-1.2l-7.2 0.1q-0.5 0-0.9-0.2-0.4-0.1-0.7-0.4-0.4-0.3-0.5-0.8-0.2-0.4-0.3-0.8 0-1.5-0.8-3.3"/>
		<path id="Layer" fill-rule="evenodd" class="s3" d="m142.1 50.4q-0.6 1-0.6 1.9 0 0.1 0.1 0.3 0.1 0.1 0.2 0.1 0.2 0.1 0.3 0.1 0.1 0 0.3-0.1l6.2-4.7q0.2-0.2 0.5-0.3 0.2-0.1 0.5-0.1 0.3 0 0.6 0.1 0.2 0.1 0.5 0.3l6.3 4.8q1.1 0.8 0.7-0.5l-2.3-7.9q-0.1-0.5 0.2-0.9l2-1.9"/>
		<path id="Layer" fill-rule="evenodd" class="s5" d="m491.5 274.3l-131.9-0.1"/>
		<path id="Layer" fill-rule="evenodd" class="s5" d="m473.9 164.5l-114.3 0.3"/>
		<path id="Layer" fill-rule="evenodd" class="s5" d="m486.1 309.8h-460.2"/>
		<path id="Layer" fill-rule="evenodd" class="s5" d="m425.6 91.7h-66.4"/>
		<path id="Layer" fill-rule="evenodd" class="s5" d="m491.6 238l-132.3-0.1"/>
		<path id="Layer" fill-rule="evenodd" class="s5" d="m485.8 201c-2.8 0.3-6.2 0-8.2 0q-58.3 0.1-116.6 0-0.5 0-1.5-0.3"/>
		<path id="Layer" fill-rule="evenodd" class="s5" d="m454.7 128.3h-95.5"/>
		<path id="Layer" fill-rule="evenodd" class="s5" d="m381.5 55.9l-22.2 0.1"/>
		<path id="Layer" fill-rule="evenodd" class="s5" d="m474.3 346.5h-436.6"/>
		<path id="Layer" fill-rule="evenodd" class="s5" d="m440.5 382.6h-383.9"/>
		<path id="Layer" fill-rule="evenodd" class="s5" d="m426.9 419.1h-341.7"/>
		<path id="Layer" fill-rule="evenodd" class="s5" d="m380.3 456l-250-0.1"/>
		<path id="Layer" fill-rule="evenodd" class="s3" d="m210.3 37.3q-0.1 0-0.1 0-0.1 0-0.2 0 0-0.1-0.1-0.2 0 0 0-0.1l-2.8-8.6q0-0.1-0.2-0.2-0.1-0.1-0.2-0.1-0.2 0-0.3 0.1-0.1 0.1-0.2 0.2l-2.7 8.7q0 0 0 0.1-0.1 0-0.1 0.1-0.1 0-0.2 0 0 0.1-0.1 0.1l-9-0.1q-0.2 0-0.3 0.1-0.1 0.1-0.1 0.2-0.1 0.2 0 0.3 0 0.2 0.1 0.2l7.4 5.3q0 0 0.1 0.1 0 0 0 0.1 0.1 0.1 0.1 0.1 0 0.1-0.1 0.2l-2.8 8.6q0 0.1 0 0.2 0.1 0.2 0.2 0.3 0.1 0.1 0.3 0.1 0.1-0.1 0.2-0.1l7.3-5.4q0-0.1 0.1-0.1 0.1 0 0.1 0 0.1 0 0.2 0 0.1 0 0.1 0.1l7.3 5.3q0.1 0.1 0.3 0.1 0.1 0 0.2-0.1 0.1-0.1 0.2-0.2 0-0.2 0-0.3l-2.9-8.5q0-0.1 0-0.2 0-0.1 0-0.1 0-0.1 0.1-0.2 0 0 0.1-0.1l7.3-5.2q0.1-0.1 0.1-0.3 0.1-0.1 0-0.2 0-0.2-0.1-0.3-0.1 0-0.3 0z"/>
		<path id="Layer" fill-rule="evenodd" class="s3" d="m267.4 37.3q-0.1 0-0.1 0-0.1-0.1-0.1-0.1-0.1 0-0.1-0.1 0 0-0.1-0.1l-2.8-8.6q-0.1-0.1-0.2-0.2-0.1-0.1-0.2-0.1-0.1 0-0.2 0.1-0.1 0.1-0.1 0.2l-2.9 8.6q0 0.1 0 0.1-0.1 0.1-0.1 0.1-0.1 0-0.1 0.1-0.1 0-0.1 0h-9.1q-0.2 0-0.3 0.1-0.1 0.1-0.1 0.2 0 0.1 0 0.2 0 0.1 0.1 0.2l7.4 5.4q0 0 0.1 0.1 0 0 0 0.1 0 0 0 0.1 0 0.1 0 0.1l-2.8 8.7q0 0.1 0 0.2 0.1 0.1 0.2 0.2 0.1 0.1 0.2 0.1 0.1 0 0.2-0.1l7.4-5.3q0.1 0 0.1-0.1 0.1 0 0.1 0 0.1 0 0.1 0 0.1 0.1 0.2 0.1l7.4 5.3q0 0.1 0.2 0.1 0.1 0 0.2-0.1 0.1-0.1 0.1-0.2 0.1-0.1 0-0.2l-2.7-8.7q-0.1 0-0.1-0.1 0-0.1 0-0.1 0.1-0.1 0.1-0.1 0-0.1 0.1-0.1l7.3-5.4q0.1-0.1 0.2-0.2 0-0.1 0-0.2-0.1-0.1-0.2-0.2-0.1-0.1-0.2-0.1z"/>
		<path id="Layer" fill-rule="evenodd" class="s3" d="m183.1 65.8q-0.1 0-0.1-0.1-0.1 0-0.2 0-0.1-0.1-0.1-0.2-0.1 0-0.1-0.1l-2.6-8.5q-0.1-0.2-0.2-0.3-0.1-0.1-0.3-0.1-0.2 0-0.3 0.1-0.2 0.1-0.2 0.3l-2.7 8.5q0 0.1 0 0.1-0.1 0.1-0.2 0.2 0 0-0.1 0-0.1 0.1-0.2 0l-8.9-0.1q-0.1 0-0.3 0.1-0.1 0.1-0.2 0.3 0 0.2 0 0.3 0.1 0.2 0.2 0.3l7.3 5.1q0.1 0.1 0.1 0.1 0.1 0.1 0.1 0.2 0 0.1 0 0.2 0 0 0 0.1l-2.9 8.4q0 0.2 0 0.4 0.1 0.1 0.2 0.2 0.2 0.1 0.3 0.1 0.2 0 0.3-0.1l7.2-5.3q0 0 0.1-0.1 0.1 0 0.2 0 0.1 0 0.1 0 0.1 0.1 0.2 0.1l7.1 5.3q0.2 0.1 0.3 0.1 0.2 0 0.3-0.1 0.2-0.1 0.2-0.2 0.1-0.2 0-0.4l-2.8-8.4q-0.1-0.1-0.1-0.1 0-0.1 0.1-0.2 0-0.1 0-0.2 0.1 0 0.2-0.1l7.2-5.1q0.2-0.1 0.2-0.3 0.1-0.1 0-0.3 0-0.2-0.2-0.3-0.1-0.1-0.3-0.1z"/>
		<path id="Layer" fill-rule="evenodd" class="s3" d="m240.3 65.7q-0.1 0-0.2 0-0.1 0-0.2-0.1 0 0-0.1-0.1 0-0.1-0.1-0.2l-2.6-8.4q0-0.2-0.2-0.3-0.1-0.1-0.3-0.1-0.2 0-0.3 0.1-0.2 0.1-0.2 0.3l-2.7 8.4q0 0.1 0 0.2-0.1 0.1-0.1 0.1-0.1 0.1-0.2 0.1-0.1 0-0.2 0l-8.8-0.1q-0.2 0-0.3 0.1-0.2 0.1-0.2 0.3-0.1 0.2 0 0.3 0 0.2 0.2 0.3l7.2 5.1q0.1 0.1 0.1 0.1 0.1 0.1 0.1 0.2 0 0.1 0 0.1 0 0.1 0 0.2l-2.8 8.4q-0.1 0.2 0 0.3 0 0.2 0.2 0.3 0.1 0.1 0.3 0.1 0.1 0 0.3-0.1l7.1-5.3q0.1 0 0.1-0.1 0.1 0 0.2 0 0.1 0 0.2 0 0 0.1 0.1 0.1l7.1 5.3q0.2 0.1 0.3 0.1 0.2 0 0.3-0.1 0.2-0.1 0.2-0.3 0.1-0.1 0-0.3l-2.8-8.4q0-0.1 0-0.2 0 0 0-0.1 0-0.1 0.1-0.2 0 0 0.1-0.1l7.2-5.1q0.2-0.1 0.2-0.3 0.1-0.1 0-0.3 0-0.2-0.2-0.3-0.1-0.1-0.3-0.1z"/>
		<path id="Layer" fill-rule="evenodd" class="s3" d="m297.4 65.8q-0.1 0-0.2 0-0.1-0.1-0.2-0.1 0-0.1-0.1-0.2-0.1-0.1-0.1-0.2l-2.5-8.3q-0.1-0.2-0.2-0.3-0.2-0.1-0.4-0.1-0.2 0-0.4 0.1-0.1 0.1-0.2 0.3l-2.5 8.3q0 0.1-0.1 0.2 0 0.1-0.1 0.2-0.1 0-0.2 0.1-0.1 0-0.2 0l-8.7-0.2q-0.2 0-0.4 0.1-0.1 0.1-0.2 0.3 0 0.2 0 0.4 0.1 0.2 0.3 0.3l7.1 5q0.1 0 0.1 0.1 0.1 0.1 0.1 0.2 0.1 0.1 0.1 0.2 0 0.1-0.1 0.2l-2.8 8.2q-0.1 0.2 0 0.4 0 0.2 0.2 0.3 0.1 0.1 0.4 0.1 0.2 0 0.3-0.1l6.9-5.3q0.1 0 0.2-0.1 0.1 0 0.2 0 0.1 0 0.2 0 0.1 0.1 0.2 0.1l6.9 5.3q0.2 0.1 0.4 0.1 0.2 0 0.3-0.1 0.2-0.1 0.3-0.3 0-0.2 0-0.4l-2.9-8.2q0-0.1 0-0.2 0-0.1 0-0.2 0-0.1 0.1-0.2 0-0.1 0.1-0.1l7.2-5q0.1-0.1 0.2-0.3 0.1-0.2 0-0.4-0.1-0.2-0.2-0.3-0.2-0.1-0.4-0.1z"/>
		<path id="Layer" fill-rule="evenodd" class="s3" d="m153.3 90.1q-0.1 0-0.2 0 0 0-0.1-0.1-0.1 0-0.1-0.1 0 0-0.1-0.1l-2.7-8.6q-0.1-0.1-0.2-0.2-0.1-0.1-0.3-0.1-0.1 0-0.2 0.1-0.1 0.1-0.2 0.2l-2.7 8.6q-0.1 0.1-0.1 0.1 0 0.1-0.1 0.1-0.1 0.1-0.1 0.1-0.1 0-0.2 0h-9q-0.1 0-0.2 0.1-0.2 0.1-0.2 0.2-0.1 0.1 0 0.3 0 0.1 0.1 0.2l7.4 5.3q0 0 0.1 0.1 0 0 0 0.1 0.1 0.1 0.1 0.2 0 0-0.1 0.1l-2.8 8.6q0 0.1 0 0.2 0.1 0.2 0.2 0.3 0.1 0 0.3 0 0.1 0 0.2 0l7.3-5.4q0 0 0.1 0 0.1-0.1 0.1-0.1 0.1 0 0.2 0.1 0.1 0 0.1 0l7.3 5.4q0.1 0 0.2 0 0.2 0 0.3 0 0.1-0.1 0.2-0.3 0-0.1 0-0.2l-2.8-8.6q-0.1-0.1-0.1-0.1 0-0.1 0.1-0.2 0-0.1 0-0.1 0.1-0.1 0.1-0.1l7.3-5.3q0.2-0.1 0.2-0.2 0.1-0.2 0-0.3 0-0.1-0.2-0.2-0.1-0.1-0.2-0.1z"/>
		<path id="Layer" fill-rule="evenodd" class="s3" d="m210.4 90.2q-0.1 0-0.2-0.1-0.1 0-0.1 0-0.1-0.1-0.2-0.2 0 0 0-0.1l-2.7-8.4q0-0.2-0.2-0.3-0.1-0.1-0.3-0.1-0.2 0-0.3 0.1-0.2 0.1-0.2 0.3l-2.6 8.4q-0.1 0.1-0.1 0.1-0.1 0.1-0.1 0.2-0.1 0-0.2 0-0.1 0.1-0.2 0.1l-8.8-0.1q-0.2 0-0.3 0.1-0.1 0.1-0.2 0.3-0.1 0.1 0 0.3 0.1 0.2 0.2 0.3l7.2 5.1q0.1 0 0.1 0.1 0.1 0.1 0.1 0.1 0 0.1 0 0.2 0 0.1 0 0.2l-2.8 8.3q-0.1 0.2 0 0.4 0 0.2 0.2 0.3 0.1 0.1 0.3 0.1 0.2 0 0.3-0.2l7.1-5.2q0.1-0.1 0.2-0.1 0 0 0.1 0 0.1 0 0.2 0 0.1 0 0.2 0.1l7 5.2q0.2 0.1 0.4 0.1 0.1 0 0.3-0.1 0.1-0.1 0.2-0.3 0-0.1 0-0.3l-2.9-8.3q0-0.1 0-0.2 0-0.1 0-0.2 0.1-0.1 0.1-0.1 0.1-0.1 0.1-0.1l7.2-5.2q0.2-0.1 0.2-0.2 0.1-0.2 0-0.4 0-0.1-0.2-0.2-0.1-0.2-0.3-0.2z"/>
		<path id="Layer" fill-rule="evenodd" class="s3" d="m267.4 90.1q-0.1 0-0.1 0-0.1 0-0.1-0.1-0.1 0-0.1-0.1-0.1 0-0.1-0.1l-2.8-8.7q0-0.1-0.1-0.2-0.1-0.1-0.3-0.1-0.1 0-0.2 0.1-0.1 0.1-0.1 0.2l-2.9 8.7q0 0.1 0 0.1-0.1 0.1-0.1 0.1-0.1 0.1-0.1 0.1-0.1 0-0.1 0h-9.2q-0.2 0-0.3 0.1-0.1 0-0.1 0.2 0 0.1 0 0.2 0 0.1 0.1 0.2l7.5 5.4q0 0 0.1 0.1 0 0 0 0.1 0 0.1 0 0.1 0 0.1 0 0.1l-2.8 8.8q-0.1 0.1 0 0.2 0 0.1 0.1 0.2 0.1 0.1 0.2 0.1 0.2 0 0.3-0.1l7.4-5.4q0 0 0.1-0.1 0.1 0 0.1 0 0.1 0 0.2 0 0 0.1 0.1 0.1l7.4 5.4q0.1 0.1 0.2 0.1 0.2 0 0.3-0.1 0.1-0.1 0.1-0.2 0-0.1 0-0.2l-2.8-8.8q-0.1 0-0.1-0.1 0 0 0-0.1 0.1-0.1 0.1-0.1 0-0.1 0.1-0.1l7.4-5.4q0.1-0.1 0.2-0.2 0-0.1 0-0.2-0.1-0.2-0.2-0.2-0.1-0.1-0.2-0.1z"/>
		<path id="Layer" fill-rule="evenodd" class="s3" d="m324.6 90.2q-0.1 0-0.2-0.1-0.1 0-0.1-0.1-0.1 0-0.1-0.1-0.1 0-0.1-0.1l-2.7-8.4q0-0.2-0.2-0.3-0.1-0.1-0.3-0.1-0.2 0-0.3 0.1-0.1 0.1-0.2 0.3l-2.6 8.4q-0.1 0.1-0.1 0.1-0.1 0.1-0.1 0.1-0.1 0.1-0.2 0.1-0.1 0.1-0.2 0.1l-8.7-0.1q-0.2 0-0.4 0.1-0.1 0.1-0.2 0.2 0 0.2 0 0.4 0.1 0.1 0.2 0.2l7.2 5.2q0.1 0 0.1 0.1 0.1 0 0.1 0.1 0 0.1 0 0.2 0 0.1 0 0.1l-2.8 8.4q0 0.2 0 0.3 0.1 0.2 0.2 0.3 0.1 0.1 0.3 0.1 0.2 0 0.3-0.1l7.1-5.2q0.1-0.1 0.2-0.1 0 0 0.1 0 0.1 0 0.2 0 0.1 0 0.1 0.1l7.1 5.2q0.1 0.1 0.3 0.1 0.2 0 0.3-0.1 0.2-0.1 0.2-0.3 0.1-0.1 0-0.3l-2.8-8.4q0 0 0-0.1 0-0.1 0-0.2 0.1-0.1 0.1-0.1 0.1-0.1 0.1-0.1l7.2-5.2q0.1-0.1 0.2-0.2 0-0.2 0-0.4-0.1-0.1-0.2-0.2-0.1-0.1-0.3-0.1z"/>
		<path id="Layer" fill-rule="evenodd" class="s3" d="m126 119.2q0 0-0.1-0.1-0.1 0-0.2 0-0.1-0.1-0.1-0.2-0.1 0-0.1-0.1l-2.6-8.5q0-0.2-0.2-0.3-0.1-0.1-0.3-0.1-0.2 0-0.3 0.1-0.2 0.1-0.2 0.3l-2.6 8.5q0 0.1-0.1 0.1-0.1 0.1-0.1 0.2-0.1 0-0.2 0-0.1 0.1-0.2 0.1l-8.8-0.2q-0.2 0-0.4 0.1-0.1 0.1-0.2 0.3 0 0.1 0 0.3 0.1 0.2 0.2 0.3l7.3 5.1q0.1 0 0.1 0.1 0.1 0.1 0.1 0.2 0 0.1 0 0.1 0 0.1 0 0.2l-2.9 8.4q-0.1 0.2 0 0.4 0.1 0.1 0.2 0.2 0.1 0.1 0.3 0.1 0.2 0 0.4-0.1l7-5.3q0.1-0.1 0.2-0.1 0.1 0 0.2 0 0.1 0 0.2 0 0 0 0.1 0.1l7.1 5.4q0.1 0.1 0.3 0.1 0.2 0 0.4-0.1 0.1-0.1 0.2-0.3 0-0.2 0-0.4l-2.9-8.4q-0.1-0.1-0.1-0.1 0-0.1 0.1-0.2 0-0.1 0-0.2 0.1 0 0.2-0.1l7.3-5.1q0.1-0.1 0.2-0.2 0-0.2 0-0.4-0.1-0.2-0.2-0.3-0.2-0.1-0.4-0.1z"/>
		<path id="Layer" fill-rule="evenodd" class="s3" d="m183.1 119.2q-0.1 0-0.1 0-0.1 0-0.2-0.1-0.1 0-0.1-0.1-0.1-0.1-0.1-0.2l-2.6-8.5q-0.1-0.2-0.2-0.3-0.1-0.1-0.3-0.1-0.2 0-0.3 0.1-0.2 0.1-0.2 0.3l-2.6 8.5q-0.1 0.1-0.1 0.2-0.1 0.1-0.1 0.1-0.1 0.1-0.2 0.1-0.1 0-0.2 0l-8.9-0.1q-0.1 0-0.3 0.1-0.1 0.1-0.2 0.2 0 0.2 0 0.4 0.1 0.1 0.2 0.2l7.3 5.2q0.1 0 0.1 0.1 0.1 0 0.1 0.1 0 0.1 0 0.2 0 0.1 0 0.2l-2.9 8.4q0 0.2 0 0.3 0.1 0.2 0.2 0.3 0.2 0.1 0.3 0.1 0.2 0 0.3-0.1l7.2-5.4q0 0 0.1 0 0.1-0.1 0.2-0.1 0.1 0 0.1 0.1 0.1 0 0.2 0l7.1 5.4q0.2 0.1 0.3 0.1 0.2 0 0.3-0.1 0.2-0.1 0.2-0.3 0.1-0.1 0-0.3l-2.8-8.4q-0.1-0.1-0.1-0.2 0-0.1 0.1-0.2 0-0.1 0-0.1 0.1-0.1 0.2-0.1l7.2-5.2q0.2-0.1 0.2-0.2 0.1-0.2 0-0.4 0-0.1-0.2-0.2-0.1-0.1-0.3-0.1z"/>
		<path id="Layer" fill-rule="evenodd" class="s3" d="m240.2 119.2q-0.1 0-0.2-0.1 0 0-0.1 0 0-0.1-0.1-0.1 0-0.1-0.1-0.2l-2.7-8.6q0-0.2-0.2-0.3-0.1-0.1-0.2-0.1-0.2 0-0.3 0.1-0.1 0.1-0.2 0.3l-2.7 8.6q0 0.1 0 0.2-0.1 0-0.1 0.1-0.1 0-0.2 0 0 0.1-0.1 0.1l-9.1-0.1q-0.2 0-0.3 0.1-0.1 0.1-0.1 0.2-0.1 0.1 0 0.3 0 0.1 0.1 0.2l7.4 5.3q0.1 0 0.1 0.1 0.1 0 0.1 0.1 0 0.1 0 0.2 0 0 0 0.1l-2.9 8.6q0 0.2 0 0.3 0.1 0.2 0.2 0.2 0.1 0.1 0.3 0.1 0.1 0 0.2-0.1l7.3-5.4q0.1 0 0.2-0.1 0 0 0.1 0 0.1 0 0.1 0 0.1 0.1 0.2 0.1l7.3 5.4q0.1 0.1 0.3 0.1 0.1 0 0.2-0.1 0.1-0.1 0.2-0.2 0-0.2 0-0.3l-2.9-8.6q0-0.1 0-0.2 0 0 0-0.1 0-0.1 0-0.1 0.1-0.1 0.2-0.1l7.4-5.3q0.1-0.1 0.1-0.3 0.1-0.1 0-0.2 0-0.2-0.1-0.3-0.2-0.1-0.3-0.1z"/>
		<path id="Layer" fill-rule="evenodd" class="s3" d="m297.3 119.2q0 0-0.1 0-0.1-0.1-0.2-0.1 0-0.1-0.1-0.1 0-0.1-0.1-0.2l-2.6-8.6q0-0.2-0.2-0.3-0.1-0.1-0.3-0.1-0.2 0-0.3 0.1-0.2 0.1-0.2 0.3l-2.6 8.6q0 0.1-0.1 0.2 0 0-0.1 0.1-0.1 0-0.2 0.1 0 0-0.1 0l-9-0.2q-0.2 0-0.3 0.1-0.2 0.1-0.2 0.3-0.1 0.2 0 0.3 0 0.2 0.2 0.3l7.3 5.1q0.1 0.1 0.2 0.1 0 0.1 0.1 0.2 0 0.1 0 0.2 0 0.1 0 0.1l-3 8.5q-0.1 0.2 0 0.4 0 0.1 0.2 0.2 0.1 0.1 0.3 0.1 0.2 0 0.3-0.1l7.2-5.4q0.1-0.1 0.1-0.1 0.1 0 0.2 0 0.1 0 0.2 0 0.1 0 0.1 0.1l7.2 5.4q0.1 0.1 0.3 0.1 0.2 0 0.3-0.1 0.2-0.1 0.2-0.2 0.1-0.2 0-0.4l-2.9-8.5q-0.1 0-0.1-0.1 0-0.1 0.1-0.2 0-0.1 0-0.2 0.1 0 0.2-0.1l7.3-5.1q0.2-0.1 0.2-0.3 0.1-0.1 0-0.3 0-0.2-0.2-0.3-0.1-0.1-0.3-0.1z"/>
		<path id="Layer" fill-rule="evenodd" class="s3" d="m210.3 142.9q-0.1 0.1-0.1 0-0.1 0-0.1 0-0.1-0.1-0.1-0.1-0.1-0.1-0.1-0.2l-2.8-8.6q0-0.1-0.1-0.2-0.1-0.1-0.3-0.1-0.1 0-0.3 0.1-0.1 0.1-0.1 0.2l-2.8 8.7q0 0 0 0.1-0.1 0-0.1 0.1-0.1 0-0.1 0-0.1 0.1-0.2 0.1l-9-0.1q-0.2 0-0.3 0.1-0.1 0.1-0.2 0.2 0 0.2 0 0.3 0.1 0.1 0.2 0.2l7.4 5.3q0 0 0.1 0.1 0 0 0 0.1 0.1 0.1 0.1 0.2 0 0-0.1 0.1l-2.8 8.6q-0.1 0.2 0 0.3 0 0.1 0.2 0.2 0.1 0.1 0.2 0.1 0.2 0 0.3-0.1l7.3-5.4q0 0 0.1 0 0.1-0.1 0.1-0.1 0.1 0 0.2 0.1 0.1 0 0.1 0l7.3 5.4q0.1 0.1 0.3 0.1 0.1 0 0.3-0.1 0.1-0.1 0.1-0.2 0.1-0.2 0-0.3l-2.9-8.6q0-0.1 0-0.2 0 0 0-0.1 0.1-0.1 0.1-0.1 0-0.1 0.1-0.1l7.3-5.3q0.2-0.1 0.2-0.2 0.1-0.2 0-0.3 0-0.2-0.1-0.2-0.2-0.1-0.3-0.1z"/>
		<path id="Layer" fill-rule="evenodd" class="s3" d="m267.4 142.9q-0.1 0-0.1 0-0.1 0-0.1 0-0.1-0.1-0.1-0.1-0.1-0.1-0.1-0.1l-2.8-8.8q0-0.1-0.1-0.1-0.1-0.1-0.3-0.1-0.1 0-0.2 0.1-0.1 0-0.1 0.1l-2.9 8.8q0 0 0 0.1-0.1 0-0.1 0-0.1 0.1-0.1 0.1-0.1 0-0.1 0h-9.2q-0.1 0-0.2 0.1-0.1 0.1-0.2 0.2 0 0.1 0 0.2 0.1 0.1 0.2 0.2l7.4 5.4q0 0.1 0.1 0.1 0 0.1 0 0.1 0 0.1 0 0.1 0 0.1 0 0.1l-2.8 8.8q-0.1 0.1 0 0.2 0 0.1 0.1 0.2 0.1 0.1 0.2 0.1 0.1 0 0.2-0.1l7.5-5.4q0 0 0.1 0 0.1-0.1 0.1-0.1 0.1 0 0.1 0.1 0.1 0 0.1 0l7.5 5.4q0.1 0.1 0.2 0.1 0.1 0 0.2-0.1 0.1-0.1 0.1-0.2 0.1-0.1 0-0.2l-2.8-8.7q0-0.1 0-0.2 0 0 0-0.1 0.1 0 0.1-0.1 0 0 0.1-0.1l7.4-5.4q0.1 0 0.1-0.1 0.1-0.2 0-0.3 0-0.1-0.1-0.2-0.1 0-0.2 0z"/>
		<path id="Layer" fill-rule="evenodd" class="s3" d="m324.6 143q-0.1 0-0.2 0-0.1-0.1-0.2-0.1 0-0.1-0.1-0.1 0-0.1-0.1-0.2l-2.6-8.6q-0.1-0.1-0.2-0.2-0.1-0.1-0.3-0.1-0.2 0-0.3 0.1-0.1 0.1-0.2 0.2l-2.6 8.6q-0.1 0.1-0.1 0.2-0.1 0-0.1 0.1-0.1 0-0.2 0.1 0 0-0.1 0l-9-0.1q-0.2 0-0.3 0.1-0.2 0.1-0.2 0.2-0.1 0.2 0 0.4 0 0.1 0.2 0.2l7.3 5.2q0.1 0 0.2 0.1 0 0.1 0 0.1 0.1 0.1 0.1 0.2 0 0.1-0.1 0.2l-2.9 8.5q0 0.1 0 0.3 0.1 0.2 0.2 0.3 0.2 0.1 0.3 0.1 0.2 0 0.3-0.1l7.2-5.5q0.1 0 0.2 0 0-0.1 0.1-0.1 0.1 0 0.2 0.1 0.1 0 0.1 0l7.2 5.4q0.2 0.1 0.3 0.1 0.2 0 0.4-0.1 0.1-0.1 0.1-0.2 0.1-0.2 0-0.4l-2.9-8.4q0-0.1 0-0.2 0-0.1 0-0.2 0-0.1 0.1-0.1 0-0.1 0.1-0.1l7.3-5.2q0.2-0.1 0.3-0.3 0-0.1 0-0.3-0.1-0.2-0.2-0.3-0.2-0.1-0.4-0.1z"/>
		<path id="Layer" fill-rule="evenodd" class="s3" d="m96.2 143q-0.1 0-0.2-0.1-0.1 0-0.1 0-0.1-0.1-0.1-0.1-0.1-0.1-0.1-0.2l-2.7-8.6q-0.1-0.2-0.2-0.3-0.1 0-0.3 0-0.1 0-0.3 0-0.1 0.1-0.1 0.3l-2.7 8.6q-0.1 0.1-0.1 0.2 0 0-0.1 0.1-0.1 0-0.1 0-0.1 0.1-0.2 0.1l-9.1-0.1q-0.1 0-0.3 0.1-0.1 0.1-0.1 0.2-0.1 0.2 0 0.3 0 0.2 0.2 0.3l7.4 5.2q0 0 0.1 0.1 0 0.1 0 0.1 0.1 0.1 0.1 0.2 0 0.1-0.1 0.1l-2.8 8.6q-0.1 0.2 0 0.3 0 0.2 0.1 0.3 0.2 0.1 0.3 0.1 0.2 0 0.3-0.1l7.3-5.5q0 0 0.1 0 0.1-0.1 0.1-0.1 0.1 0 0.2 0.1 0.1 0 0.1 0l7.3 5.4q0.2 0.1 0.3 0.1 0.2 0 0.3-0.1 0.1 0 0.2-0.2 0-0.1 0-0.3l-3-8.6q0-0.1 0-0.1 0-0.1 0-0.2 0.1-0.1 0.1-0.1 0.1-0.1 0.1-0.1l7.4-5.3q0.1-0.1 0.2-0.2 0-0.2 0-0.3-0.1-0.2-0.2-0.3-0.1 0-0.3-0.1z"/>
		<path id="Layer" fill-rule="evenodd" class="s3" d="m153.3 142.9q-0.1 0.1-0.2 0-0.1 0-0.1 0-0.1-0.1-0.1-0.2-0.1 0-0.1-0.1l-2.7-8.4q0-0.2-0.2-0.3-0.1-0.1-0.3-0.1-0.1 0-0.3 0.1-0.1 0.1-0.2 0.3l-2.6 8.4q-0.1 0.1-0.1 0.1-0.1 0.1-0.1 0.2-0.1 0-0.2 0 0 0.1-0.1 0h-8.9q-0.2 0-0.3 0.1-0.1 0.1-0.2 0.2 0 0.2 0 0.4 0.1 0.1 0.2 0.2l7.2 5.2q0.1 0 0.1 0.1 0.1 0.1 0.1 0.1 0 0.1 0 0.2 0 0.1 0 0.2l-2.8 8.3q-0.1 0.2 0 0.4 0.1 0.1 0.2 0.2 0.1 0.1 0.3 0.1 0.2 0 0.3-0.1l7.1-5.2q0.1-0.1 0.2-0.1 0 0 0.1 0 0.1 0 0.2 0 0.1 0 0.1 0.1l7.2 5.2q0.1 0.1 0.3 0.1 0.1 0 0.3-0.1 0.1-0.1 0.2-0.2 0-0.2 0-0.3l-2.8-8.4q-0.1-0.1-0.1-0.2 0-0.1 0.1-0.2 0 0 0-0.1 0.1-0.1 0.1-0.1l7.2-5.2q0.2-0.1 0.2-0.2 0.1-0.2 0-0.4 0-0.1-0.1-0.2-0.2-0.1-0.4-0.1z"/>
		<path id="Layer" fill-rule="evenodd" class="s3" d="m69 172q-0.1 0-0.2 0-0.1 0-0.2-0.1 0 0-0.1-0.1 0 0-0.1-0.1l-2.6-8.5q-0.1-0.2-0.2-0.3-0.1-0.1-0.3-0.1-0.2 0-0.3 0.1-0.1 0.1-0.2 0.3l-2.6 8.5q0 0.1-0.1 0.1 0 0.1-0.1 0.1-0.1 0.1-0.2 0.1 0 0.1-0.1 0.1l-8.9-0.2q-0.2 0-0.3 0.1-0.2 0.1-0.2 0.3-0.1 0.2 0 0.3 0 0.2 0.2 0.3l7.3 5.1q0 0 0.1 0.1 0 0.1 0 0.2 0.1 0 0.1 0.1 0 0.1 0 0.2l-2.9 8.4q-0.1 0.2 0 0.4 0 0.1 0.2 0.2 0.1 0.1 0.3 0.1 0.2 0 0.3-0.1l7.1-5.3q0.1-0.1 0.2-0.1 0 0 0.1 0 0.1 0 0.2 0 0.1 0 0.1 0.1l7.2 5.3q0.1 0.1 0.3 0.1 0.2 0 0.3-0.1 0.1-0.1 0.2-0.3 0-0.1 0-0.3l-2.9-8.4q0-0.1 0-0.2 0-0.1 0-0.2 0 0 0.1-0.1 0-0.1 0.1-0.1l7.3-5.2q0.1-0.1 0.2-0.2 0-0.2 0-0.4-0.1-0.1-0.2-0.2-0.2-0.1-0.3-0.1z"/>
		<path id="Layer" fill-rule="evenodd" class="s3" d="m126 172q-0.1 0-0.1 0-0.1-0.1-0.2-0.1 0 0-0.1-0.1 0-0.1 0-0.1l-2.8-8.6q0-0.2-0.1-0.3-0.1-0.1-0.3-0.1-0.2 0-0.3 0.1-0.1 0.1-0.1 0.3l-2.8 8.6q0 0 0 0.1-0.1 0.1-0.1 0.1-0.1 0-0.2 0.1 0 0-0.1 0l-9-0.1q-0.2 0-0.3 0.1-0.1 0.1-0.2 0.2 0 0.2 0 0.3 0.1 0.2 0.2 0.3l7.3 5.2q0.1 0 0.1 0.1 0.1 0.1 0.1 0.1 0 0.1 0 0.2 0 0 0 0.1l-2.8 8.6q-0.1 0.1 0 0.3 0 0.1 0.1 0.2 0.1 0.1 0.3 0.1 0.1 0 0.3-0.1l7.2-5.4q0.1 0 0.2 0 0-0.1 0.1-0.1 0.1 0 0.1 0.1 0.1 0 0.2 0l7.2 5.4q0.2 0.1 0.3 0.1 0.2 0 0.3-0.1 0.1-0.1 0.1-0.2 0.1-0.2 0.1-0.3l-2.9-8.6q0-0.1 0-0.1 0-0.1 0-0.2 0 0 0.1-0.1 0-0.1 0.1-0.1l7.3-5.3q0.1 0 0.2-0.2 0-0.1 0-0.3-0.1-0.1-0.2-0.2-0.1-0.1-0.3-0.1z"/>
		<path id="Layer" fill-rule="evenodd" class="s3" d="m183.1 172q-0.1 0-0.1 0-0.1 0-0.2-0.1 0 0-0.1-0.1 0 0-0.1-0.1l-2.7-8.6q0-0.2-0.1-0.3-0.2-0.1-0.3-0.1-0.2 0-0.3 0.1-0.1 0.1-0.2 0.3l-2.7 8.6q0 0.1 0 0.1-0.1 0.1-0.1 0.1-0.1 0.1-0.2 0.1 0 0-0.1 0l-9-0.1q-0.2 0-0.3 0.1-0.2 0.1-0.2 0.3 0 0.1 0 0.2 0 0.2 0.2 0.3l7.3 5.2q0.1 0.1 0.1 0.1 0.1 0.1 0.1 0.2 0 0 0 0.1 0 0.1 0 0.2l-2.9 8.5q0 0.2 0 0.3 0.1 0.2 0.2 0.2 0.1 0.1 0.3 0.1 0.1 0 0.2 0l7.3-5.4q0.1-0.1 0.1-0.1 0.1 0 0.2 0 0.1 0 0.1 0 0.1 0 0.2 0.1l7.2 5.4q0.2 0 0.3 0 0.2 0 0.3-0.1 0.1 0 0.2-0.2 0-0.1-0.1-0.3l-2.8-8.5q-0.1-0.1-0.1-0.2 0-0.1 0.1-0.1 0-0.1 0-0.2 0.1 0 0.1-0.1l7.4-5.2q0.1-0.1 0.2-0.3 0-0.1 0-0.2-0.1-0.2-0.2-0.3-0.1-0.1-0.3-0.1z"/>
		<path id="Layer" fill-rule="evenodd" class="s3" d="m240.2 172q-0.1 0-0.2 0 0-0.1-0.1-0.1 0 0-0.1-0.1 0 0 0-0.1l-2.8-8.8q-0.1-0.1-0.2-0.2-0.1-0.1-0.2-0.1-0.1 0-0.2 0.1-0.1 0.1-0.2 0.2l-2.8 8.8q0 0.1 0 0.1-0.1 0.1-0.1 0.1-0.1 0.1-0.1 0.1-0.1 0-0.2 0l-9.2-0.1q-0.1 0-0.2 0.1-0.1 0.1-0.2 0.2 0 0.2 0 0.3 0.1 0.1 0.2 0.2l7.5 5.4q0 0 0.1 0 0 0.1 0 0.2 0.1 0 0.1 0.1 0 0-0.1 0.1l-2.9 8.8q0 0.1 0 0.2 0.1 0.1 0.2 0.2 0.1 0.1 0.2 0.1 0.2 0 0.3-0.1l7.4-5.5q0 0 0.1 0 0.1-0.1 0.1-0.1 0.1 0 0.1 0.1 0.1 0 0.2 0l7.4 5.5q0.1 0.1 0.2 0.1 0.2 0 0.3-0.1 0.1-0.1 0.1-0.2 0.1-0.1 0-0.3l-2.9-8.7q0-0.1 0-0.1 0-0.1 0-0.2 0 0 0-0.1 0.1 0 0.1-0.1l7.5-5.4q0.1 0 0.2-0.2 0-0.1 0-0.2-0.1-0.1-0.2-0.2-0.1-0.1-0.2-0.1z"/>
		<path id="Layer" fill-rule="evenodd" class="s3" d="m297.3 172.1q-0.1 0-0.1 0-0.1 0-0.2-0.1-0.1 0-0.1-0.1-0.1-0.1-0.1-0.2l-2.6-8.5q0-0.2-0.2-0.3-0.1-0.1-0.3-0.1-0.2 0-0.3 0.1-0.2 0.1-0.2 0.3l-2.6 8.5q0 0.1 0 0.2-0.1 0.1-0.2 0.1 0 0.1-0.1 0.1-0.1 0-0.2 0l-8.9-0.2q-0.2 0-0.4 0.1-0.1 0.1-0.2 0.3 0 0.2 0 0.3 0.1 0.2 0.2 0.3l7.4 5.1q0.1 0 0.1 0.1 0.1 0.1 0.1 0.2 0 0 0 0.1 0 0.1 0 0.2l-3 8.4q0 0.2 0 0.4 0.1 0.1 0.2 0.3 0.2 0.1 0.4 0.1 0.1 0 0.3-0.1l7.1-5.5q0.1 0 0.1-0.1 0.1 0 0.2 0 0.1 0 0.2 0 0.1 0.1 0.1 0.1l7.1 5.5q0.2 0.1 0.4 0.1 0.1 0 0.3-0.1 0.1-0.2 0.2-0.3 0-0.2 0-0.4l-3-8.4q0-0.1 0-0.2 0-0.1 0-0.1 0-0.1 0.1-0.2 0.1-0.1 0.1-0.1l7.4-5.1q0.1-0.1 0.2-0.3 0-0.1 0-0.3-0.1-0.2-0.2-0.3-0.2-0.1-0.4-0.1z"/>
		<path id="Layer" fill-rule="evenodd" class="s3" d="m96.1 196.4q0 0-0.1 0-0.1 0-0.1 0-0.1-0.1-0.2-0.1 0-0.1 0-0.2l-2.7-8.7q-0.1-0.1-0.2-0.2-0.1-0.1-0.3-0.1-0.1 0-0.2 0.1-0.2 0.1-0.2 0.2l-2.7 8.7q0 0.1-0.1 0.2 0 0-0.1 0.1 0 0-0.1 0-0.1 0.1-0.1 0.1l-9.1-0.1q-0.2 0-0.3 0-0.1 0.1-0.2 0.3 0 0.1 0 0.3 0.1 0.1 0.2 0.2l7.4 5.2q0.1 0.1 0.1 0.1 0.1 0.1 0.1 0.2 0 0 0 0.1 0 0.1 0 0.2l-2.9 8.6q0 0.1 0 0.3 0 0.1 0.2 0.2 0.1 0.1 0.2 0.1 0.2 0 0.3-0.1l7.3-5.5q0 0 0.1 0 0.1 0 0.2 0 0 0 0.1 0 0.1 0 0.1 0l7.3 5.5q0.2 0 0.3 0 0.1 0 0.3 0 0.1-0.1 0.1-0.3 0.1-0.1 0-0.2l-2.9-8.7q0 0 0-0.1 0-0.1 0-0.1 0-0.1 0.1-0.2 0 0 0.1-0.1l7.4-5.3q0.1 0 0.2-0.2 0-0.1 0-0.3-0.1-0.1-0.2-0.2-0.1-0.1-0.3-0.1z"/>
		<path id="Layer" fill-rule="evenodd" class="s3" d="m267.3 196.4q0 0-0.1 0 0-0.1 0-0.1-0.1 0-0.1-0.1 0 0-0.1 0l-2.8-9q-0.1-0.1-0.2-0.2 0 0-0.1 0-0.1 0-0.2 0-0.1 0.1-0.2 0.2l-2.9 8.9q0 0.1 0 0.1 0 0.1-0.1 0.1 0 0-0.1 0.1 0 0-0.1 0l-9.4-0.1q-0.1 0-0.2 0.1 0 0.1-0.1 0.2 0 0.1 0 0.2 0.1 0.1 0.1 0.1l7.6 5.5q0.1 0.1 0.1 0.1 0 0.1 0.1 0.1 0 0.1 0 0.1 0 0.1 0 0.1l-3 8.9q0 0.1 0 0.2 0.1 0.1 0.1 0.2 0.1 0.1 0.2 0.1 0.1 0 0.2-0.1l7.6-5.5q0.1 0 0.1-0.1 0.1 0 0.1 0 0.1 0 0.1 0 0.1 0.1 0.1 0.1l7.6 5.5q0.1 0.1 0.2 0.1 0.1 0 0.2-0.1 0 0 0.1-0.1 0-0.1 0-0.2l-2.9-9q0 0 0-0.1 0 0 0-0.1 0 0 0-0.1 0.1 0 0.1 0l7.6-5.5q0.1-0.1 0.1-0.2 0.1-0.1 0-0.2 0-0.1-0.1-0.1 0-0.1-0.1-0.1z"/>
		<path id="Layer" fill-rule="evenodd" class="s3" d="m153.3 196.4q-0.1 0-0.2 0-0.1 0-0.1-0.1-0.1 0-0.2-0.1 0-0.1 0-0.1l-2.6-8.5q-0.1-0.2-0.2-0.3-0.2-0.1-0.3-0.1-0.2 0-0.4 0.1-0.1 0.1-0.2 0.3l-2.6 8.4q0 0.1-0.1 0.2 0 0.1-0.1 0.1-0.1 0.1-0.1 0.1-0.1 0-0.2 0l-8.9-0.1q-0.1 0-0.3 0.1-0.1 0.1-0.2 0.2 0 0.2 0 0.4 0.1 0.1 0.2 0.2l7.2 5.2q0.1 0 0.2 0.1 0 0.1 0 0.1 0.1 0.1 0.1 0.2 0 0.1-0.1 0.2l-2.8 8.4q-0.1 0.1 0 0.3 0 0.2 0.2 0.3 0.1 0.1 0.3 0.1 0.2 0 0.3-0.2l7.1-5.2q0.1-0.1 0.2-0.1 0 0 0.1 0 0.1 0 0.2 0 0.1 0 0.1 0.1l7.1 5.3q0.2 0.1 0.3 0.1 0.2 0 0.3-0.1 0.2-0.1 0.2-0.3 0.1-0.1 0-0.3l-2.8-8.4q0-0.1 0-0.2 0-0.1 0-0.1 0-0.1 0.1-0.2 0-0.1 0.1-0.1l7.2-5.1q0.2-0.1 0.2-0.3 0.1-0.1 0-0.3 0-0.2-0.1-0.3-0.2-0.1-0.4-0.1z"/>
		<path id="Layer" fill-rule="evenodd" class="s3" d="m210.3 196.4q0 0-0.1 0-0.1 0-0.2-0.1 0 0-0.1-0.1 0 0-0.1-0.1l-2.6-8.5q-0.1-0.2-0.2-0.3-0.1-0.1-0.3-0.1-0.2 0-0.3 0.1-0.1 0.1-0.2 0.3l-2.6 8.5q0 0.1-0.1 0.1 0 0.1-0.1 0.1-0.1 0.1-0.2 0.1 0 0-0.1 0l-8.9-0.1q-0.2 0-0.4 0.1-0.1 0.1-0.2 0.3 0 0.2 0 0.3 0.1 0.2 0.2 0.3l7.3 5.1q0.1 0 0.2 0.1 0 0.1 0 0.2 0.1 0 0.1 0.1 0 0.1-0.1 0.2l-2.8 8.4q-0.1 0.2 0 0.4 0 0.1 0.2 0.2 0.1 0.1 0.3 0.1 0.2 0 0.3-0.1l7.1-5.3q0.1-0.1 0.2-0.1 0 0 0.1 0 0.1 0 0.2 0 0.1 0 0.1 0.1l7.2 5.3q0.1 0.1 0.3 0.1 0.2 0 0.3-0.1 0.1-0.1 0.2-0.3 0-0.1 0-0.3l-2.9-8.4q0-0.1 0-0.2 0-0.1 0-0.2 0 0 0.1-0.1 0-0.1 0.1-0.1l7.3-5.2q0.1-0.1 0.2-0.2 0-0.2 0-0.3-0.1-0.2-0.2-0.3-0.2-0.1-0.3-0.1z"/>
		<path id="Layer" fill-rule="evenodd" class="s3" d="m324.5 196.4q0 0.1-0.1 0-0.1 0-0.2 0 0-0.1-0.1-0.2 0 0-0.1-0.1l-2.6-8.6q-0.1-0.2-0.2-0.3-0.1-0.1-0.3-0.1-0.2 0-0.3 0.1-0.1 0.1-0.2 0.3l-2.6 8.6q0 0.1-0.1 0.2 0 0-0.1 0.1-0.1 0-0.1 0-0.1 0.1-0.2 0.1l-9-0.2q-0.1 0-0.3 0.1-0.1 0.1-0.2 0.3 0 0.1 0 0.3 0.1 0.2 0.2 0.3l7.4 5.1q0.1 0 0.1 0.1 0.1 0.1 0.1 0.2 0 0 0 0.1 0 0.1 0 0.2l-2.9 8.5q-0.1 0.1 0 0.3 0 0.2 0.2 0.3 0.1 0.1 0.3 0.1 0.1 0 0.3-0.1l7.1-5.5q0.1 0 0.2 0 0.1-0.1 0.1-0.1 0.1 0 0.2 0.1 0.1 0 0.2 0l7.1 5.4q0.2 0.1 0.3 0.1 0.2 0 0.3-0.1 0.2-0.1 0.2-0.2 0.1-0.2 0-0.3l-2.9-8.5q0-0.1 0-0.2 0-0.1 0-0.2 0 0 0.1-0.1 0-0.1 0.1-0.1l7.3-5.2q0.2-0.1 0.2-0.2 0.1-0.2 0-0.4 0-0.1-0.2-0.2-0.1-0.1-0.3-0.1z"/>
		<path id="Layer" fill-rule="evenodd" class="s3" d="m183.1 224.8q-0.1 0-0.1 0-0.1-0.1-0.2-0.1 0-0.1-0.1-0.1 0-0.1 0-0.1l-2.8-8.7q0-0.1-0.2-0.2-0.1-0.1-0.2-0.1-0.2 0-0.3 0.1-0.1 0.1-0.2 0.2l-2.7 8.7q0 0-0.1 0.1 0 0.1-0.1 0.1 0 0-0.1 0.1-0.1 0-0.1 0l-9.1-0.1q-0.1 0.1-0.2 0.1-0.2 0.1-0.2 0.3 0 0.1 0 0.3 0 0.1 0.2 0.2l7.3 5.2q0.1 0.1 0.1 0.1 0.1 0.1 0.1 0.2 0 0 0 0.1 0 0.1 0 0.2l-2.8 8.5q-0.1 0.2 0 0.3 0 0.2 0.1 0.3 0.1 0 0.3 0 0.1 0 0.3-0.1l7.2-5.3q0.1-0.1 0.2-0.1 0 0 0.1 0 0.1 0 0.1 0 0.1 0 0.2 0.1l7.3 5.3q0.1 0.1 0.2 0.1 0.2 0 0.3-0.1 0.1-0.1 0.2-0.2 0-0.1 0-0.3l-2.9-8.6q0 0 0-0.1 0-0.1 0-0.1 0-0.1 0.1-0.2 0 0 0.1-0.1l7.3-5.3q0.1 0 0.2-0.2 0-0.1 0-0.3-0.1-0.1-0.2-0.2-0.1-0.1-0.3-0.1z"/>
		<path id="Layer" fill-rule="evenodd" class="s3" d="m297.3 224.8q-0.1 0-0.1 0-0.1-0.1-0.2-0.1 0 0-0.1-0.1 0-0.1 0-0.1l-2.8-8.7q0-0.1-0.1-0.2-0.2-0.1-0.3-0.1-0.1 0-0.3 0.1-0.1 0.1-0.1 0.2l-2.8 8.7q0 0 0 0.1-0.1 0.1-0.1 0.1-0.1 0-0.2 0.1 0 0-0.1 0l-9.1-0.1q-0.1 0-0.2 0.1-0.2 0.1-0.2 0.2-0.1 0.2 0 0.3 0 0.2 0.2 0.2l7.3 5.3q0.1 0.1 0.1 0.1 0.1 0.1 0.1 0.1 0 0.1 0 0.2 0 0.1 0 0.1l-2.9 8.6q0 0.2 0 0.3 0.1 0.1 0.2 0.2 0.1 0.1 0.3 0.1 0.1 0 0.2-0.1l7.3-5.3q0.1-0.1 0.2-0.1 0 0 0.1 0 0.1 0 0.1 0 0.1 0 0.2 0.1l7.3 5.3q0.1 0.1 0.2 0.1 0.2 0 0.3-0.1 0.1-0.1 0.2-0.2 0-0.1 0-0.3l-2.9-8.6q0 0 0-0.1 0-0.1 0-0.2 0 0 0.1-0.1 0 0 0.1-0.1l7.3-5.3q0.2 0 0.2-0.2 0.1-0.1 0-0.3 0-0.1-0.2-0.2-0.1-0.1-0.2-0.1z"/>
		<path id="Layer" fill-rule="evenodd" class="s3" d="m69 224.8q-0.1 0-0.2 0-0.1 0-0.2-0.1 0 0-0.1-0.1 0-0.1 0-0.2l-2.7-8.4q0-0.2-0.2-0.3-0.1-0.1-0.3-0.1-0.2 0-0.3 0.1-0.1 0.1-0.2 0.3l-2.6 8.4q-0.1 0.1-0.1 0.2-0.1 0.1-0.1 0.1-0.1 0.1-0.2 0.1 0 0-0.1 0l-8.9-0.1q-0.2 0-0.3 0.1-0.2 0.1-0.2 0.3-0.1 0.1 0 0.3 0 0.2 0.2 0.3l7.2 5.1q0.1 0 0.1 0.1 0.1 0.1 0.1 0.2 0 0 0 0.1 0 0.1 0 0.2l-2.8 8.4q-0.1 0.1 0 0.3 0 0.2 0.2 0.3 0.1 0.1 0.3 0.1 0.1 0 0.3-0.1l7.1-5.3q0.1-0.1 0.1-0.1 0.1 0 0.2 0 0.1 0 0.2 0 0.1 0 0.1 0.1l7.1 5.3q0.2 0.1 0.3 0.1 0.2 0 0.4-0.1 0.1-0.1 0.1-0.3 0.1-0.2 0-0.3l-2.8-8.4q0-0.1 0-0.2 0-0.1 0-0.1 0-0.1 0.1-0.2 0-0.1 0.1-0.1l7.2-5.1q0.2-0.1 0.2-0.3 0.1-0.2 0-0.3 0-0.2-0.2-0.3-0.1-0.1-0.3-0.1z"/>
		<path id="Layer" fill-rule="evenodd" class="s3" d="m126 224.8q-0.1 0-0.1 0-0.1-0.1-0.2-0.1 0 0-0.1-0.1 0-0.1 0-0.1l-2.8-8.7q0-0.1-0.1-0.2-0.1-0.1-0.3-0.1-0.2 0-0.3 0.1-0.1 0.1-0.1 0.2l-2.8 8.7q0 0 0 0.1-0.1 0.1-0.1 0.1-0.1 0-0.2 0.1 0 0-0.1 0l-9.1-0.1q-0.1 0-0.3 0.1-0.1 0.1-0.1 0.2-0.1 0.2 0 0.3 0 0.1 0.1 0.2l7.4 5.3q0.1 0 0.1 0.1 0.1 0.1 0.1 0.1 0 0.1 0 0.2 0 0 0 0.1l-2.9 8.6q0 0.2 0 0.3 0.1 0.2 0.2 0.3 0.1 0 0.3 0 0.1 0 0.2-0.1l7.3-5.4q0.1 0 0.2 0 0-0.1 0.1-0.1 0.1 0 0.1 0.1 0.1 0 0.2 0l7.3 5.4q0.1 0.1 0.2 0.1 0.2 0 0.3 0 0.1-0.1 0.2-0.3 0-0.1 0-0.3l-2.9-8.6q0-0.1 0-0.1 0-0.1 0-0.2 0 0 0.1-0.1 0-0.1 0.1-0.1l7.4-5.3q0.1-0.1 0.1-0.2 0.1-0.1 0-0.3 0-0.1-0.1-0.2-0.2-0.1-0.3-0.1z"/>
		<path id="Layer" fill-rule="evenodd" class="s3" d="m240.3 224.8q-0.1 0-0.2 0-0.1 0-0.2-0.1 0 0-0.1-0.1 0-0.1-0.1-0.2l-2.6-8.4q0-0.1-0.2-0.2-0.1-0.1-0.3-0.1-0.2 0-0.3 0.1-0.2 0.1-0.2 0.2l-2.7 8.4q0 0.1 0 0.2-0.1 0.1-0.1 0.1-0.1 0.1-0.2 0.1-0.1 0-0.2 0l-8.8-0.1q-0.2 0-0.3 0.1-0.1 0.1-0.2 0.3 0 0.2 0 0.3 0.1 0.2 0.2 0.3l7.2 5.1q0.1 0 0.1 0.1 0.1 0.1 0.1 0.2 0 0 0 0.1 0 0.1 0 0.2l-2.8 8.4q-0.1 0.1 0 0.3 0 0.2 0.2 0.3 0.1 0.1 0.3 0 0.2 0 0.3-0.1l7.1-5.2q0.1 0 0.1-0.1 0.1 0 0.2 0 0.1 0 0.2 0 0 0.1 0.1 0.1l7.1 5.2q0.1 0.1 0.3 0.1 0.2 0.1 0.3 0 0.2-0.1 0.2-0.3 0.1-0.2 0-0.3l-2.8-8.4q0-0.1 0-0.2 0-0.1 0-0.1 0-0.1 0.1-0.2 0-0.1 0.1-0.1l7.2-5.1q0.1-0.1 0.2-0.3 0-0.1 0-0.3-0.1-0.2-0.2-0.3-0.1-0.1-0.3-0.1z"/>
		<path id="Layer" fill-rule="evenodd" class="s3" d="m39.1 249.3q-0.1 0-0.2 0-0.1 0-0.2-0.1 0 0-0.1-0.1 0-0.1-0.1-0.2l-2.5-8.5q-0.1-0.1-0.2-0.2-0.2-0.2-0.3-0.2-0.2 0-0.4 0.2-0.1 0.1-0.2 0.2l-2.5 8.5q-0.1 0.1-0.1 0.2-0.1 0.1-0.2 0.1 0 0.1-0.1 0.1-0.1 0-0.2 0l-8.9-0.2q-0.2 0-0.3 0.1-0.2 0.1-0.2 0.3-0.1 0.2 0 0.4 0 0.1 0.2 0.2l7.3 5.1q0.1 0.1 0.1 0.1 0.1 0.1 0.1 0.2 0 0.1 0 0.2 0 0.1 0 0.1l-3 8.4q0 0.2 0 0.4 0.1 0.2 0.2 0.3 0.2 0.1 0.4 0.1 0.2 0 0.3-0.1l7.1-5.4q0.1-0.1 0.2-0.1 0 0 0.1 0 0.1 0 0.2 0 0.1 0 0.2 0.1l7 5.4q0.2 0.1 0.4 0.1 0.1 0 0.3-0.1 0.1-0.1 0.2-0.3 0-0.2 0-0.3l-2.9-8.4q0-0.1-0.1-0.2 0-0.1 0.1-0.2 0-0.1 0.1-0.1 0-0.1 0.1-0.2l7.3-5q0.1-0.1 0.2-0.3 0.1-0.2 0-0.3 0-0.2-0.2-0.3-0.1-0.1-0.3-0.1z"/>
		<path id="Layer" fill-rule="evenodd" class="s3" d="m96.2 249.3q-0.1 0-0.2 0-0.1-0.1-0.1-0.1-0.1-0.1-0.2-0.1 0-0.1 0-0.2l-2.6-8.5q-0.1-0.1-0.2-0.3-0.2-0.1-0.4-0.1-0.1 0-0.3 0.1-0.1 0.2-0.2 0.3l-2.6 8.5q0 0.1-0.1 0.2 0 0-0.1 0.1 0 0-0.1 0.1-0.1 0-0.2 0l-8.9-0.2q-0.1 0-0.3 0.1-0.1 0.1-0.2 0.3 0 0.2 0 0.3 0.1 0.2 0.2 0.3l7.3 5.1q0 0.1 0.1 0.1 0 0.1 0.1 0.2 0 0.1 0 0.2 0 0.1 0 0.1l-2.9 8.4q-0.1 0.2 0 0.4 0 0.1 0.2 0.2 0.1 0.1 0.3 0.1 0.2 0 0.3-0.1l7.1-5.3q0.1-0.1 0.2-0.1 0.1 0 0.1 0 0.1 0 0.2 0 0.1 0 0.2 0.1l7.1 5.3q0.1 0.1 0.3 0.1 0.2 0 0.3-0.1 0.1-0.1 0.2-0.2 0.1-0.2 0-0.4l-2.9-8.4q0 0 0-0.1 0-0.1 0-0.2 0-0.1 0.1-0.2 0 0 0.1-0.1l7.3-5.1q0.1-0.1 0.2-0.3 0-0.1 0-0.3-0.1-0.2-0.2-0.3-0.2-0.1-0.4-0.1z"/>
		<path id="Layer" fill-rule="evenodd" class="s3" d="m153.3 249.3q-0.1 0-0.2-0.1-0.1 0-0.1 0-0.1-0.1-0.1-0.1-0.1-0.1-0.1-0.2l-2.7-8.7q0-0.1-0.2-0.2-0.1-0.1-0.3-0.1-0.1 0-0.2 0.1-0.2 0.1-0.2 0.2l-2.7 8.7q0 0.1-0.1 0.2 0 0-0.1 0.1 0 0-0.1 0-0.1 0.1-0.1 0.1l-9.2-0.2q-0.1 0.1-0.2 0.1-0.2 0.1-0.2 0.3-0.1 0.1 0 0.3 0 0.1 0.2 0.2l7.4 5.3q0.1 0 0.1 0.1 0.1 0 0.1 0.1 0 0.1 0 0.1 0 0.1 0 0.2l-3 8.6q0 0.2 0 0.3 0.1 0.2 0.2 0.3 0.1 0 0.3 0 0.1 0 0.3-0.1l7.3-5.4q0-0.1 0.1-0.1 0.1 0 0.1 0 0.1 0 0.2 0 0.1 0 0.1 0.1l7.3 5.4q0.2 0.1 0.3 0.1 0.2 0 0.3 0 0.1-0.1 0.2-0.3 0-0.1 0-0.3l-3-8.6q0-0.1 0-0.2 0 0 0-0.1 0-0.1 0.1-0.1 0-0.1 0.1-0.1l7.4-5.3q0.2-0.1 0.2-0.2 0.1-0.2 0-0.3 0-0.2-0.2-0.3-0.1 0-0.2-0.1z"/>
		<path id="Layer" fill-rule="evenodd" class="s3" d="m210.4 249.3q-0.1 0-0.2 0-0.1-0.1-0.1-0.1-0.1-0.1-0.2-0.2 0 0-0.1-0.1l-2.5-8.3q-0.1-0.2-0.2-0.3-0.2-0.2-0.4-0.2-0.2 0-0.4 0.2-0.1 0.1-0.2 0.3l-2.5 8.3q0 0.1-0.1 0.1 0 0.1-0.1 0.2-0.1 0-0.2 0.1-0.1 0-0.2 0l-8.6-0.2q-0.2 0-0.4 0.2-0.2 0.1-0.2 0.3-0.1 0.2 0 0.4 0 0.1 0.2 0.3l7.1 4.9q0.1 0.1 0.2 0.1 0 0.1 0 0.2 0.1 0.1 0.1 0.2 0 0.1-0.1 0.2l-2.8 8.2q0 0.2 0 0.4 0.1 0.2 0.2 0.3 0.2 0.1 0.4 0.1 0.2 0 0.4-0.1l6.9-5.3q0 0 0.1 0 0.1-0.1 0.2-0.1 0.1 0 0.2 0.1 0.1 0 0.2 0.1l6.9 5.2q0.2 0.1 0.4 0.1 0.2 0 0.4-0.1 0.1-0.2 0.2-0.3 0-0.2 0-0.4l-2.9-8.2q0-0.1 0-0.2 0-0.1 0-0.2 0-0.1 0.1-0.2 0.1-0.1 0.2-0.1l7-5q0.2-0.1 0.3-0.3 0-0.2 0-0.4-0.1-0.2-0.2-0.3-0.2-0.1-0.4-0.1z"/>
		<path id="Layer" fill-rule="evenodd" class="s3" d="m267.5 249.3q-0.1 0-0.2 0 0-0.1-0.1-0.1-0.1-0.1-0.1-0.1-0.1-0.1-0.1-0.2l-2.6-8.5q-0.1-0.1-0.2-0.2-0.2-0.2-0.3-0.2-0.2 0-0.4 0.2-0.1 0.1-0.1 0.2l-2.7 8.5q0 0.1 0 0.2-0.1 0-0.2 0.1 0 0-0.1 0.1-0.1 0-0.2 0l-8.9-0.2q-0.1 0-0.3 0.1-0.1 0.1-0.2 0.3 0 0.2 0 0.3 0.1 0.2 0.2 0.3l7.3 5.1q0.1 0.1 0.1 0.1 0.1 0.1 0.1 0.2 0 0.1 0 0.2 0 0 0 0.1l-2.9 8.4q0 0.2 0 0.4 0.1 0.1 0.2 0.2 0.1 0.1 0.3 0.1 0.2 0 0.3-0.1l7.1-5.3q0.1 0 0.2-0.1 0.1 0 0.2 0 0 0 0.1 0 0.1 0.1 0.2 0.1l7.1 5.3q0.1 0.1 0.3 0.1 0.2 0 0.3-0.1 0.2-0.1 0.2-0.2 0.1-0.2 0-0.4l-2.9-8.4q0-0.1 0-0.1 0-0.1 0-0.2 0.1-0.1 0.1-0.2 0.1 0 0.1-0.1l7.3-5.1q0.1-0.1 0.2-0.3 0-0.1 0-0.3-0.1-0.2-0.2-0.3-0.2-0.1-0.3-0.1z"/>
		<path id="Layer" fill-rule="evenodd" class="s3" d="m324.6 249.3q-0.1 0-0.2 0-0.1-0.1-0.1-0.1-0.1-0.1-0.2-0.2 0 0-0.1-0.1l-2.5-8.3q-0.1-0.2-0.2-0.3-0.2-0.2-0.4-0.2-0.2 0-0.3 0.2-0.2 0.1-0.2 0.3l-2.6 8.3q0 0.1-0.1 0.1 0 0.1-0.1 0.2-0.1 0-0.2 0.1-0.1 0-0.2 0l-8.7-0.2q-0.2 0-0.3 0.1-0.2 0.2-0.3 0.4 0 0.1 0.1 0.3 0 0.2 0.2 0.3l7.1 5q0.1 0.1 0.2 0.1 0 0.1 0 0.2 0.1 0.1 0.1 0.2 0 0.1-0.1 0.2l-2.8 8.2q-0.1 0.2 0 0.4 0.1 0.2 0.2 0.3 0.2 0.1 0.4 0.1 0.2 0 0.3-0.1l7-5.2q0-0.1 0.1-0.1 0.1-0.1 0.2-0.1 0.1 0 0.2 0.1 0.1 0 0.2 0.1l6.9 5.2q0.2 0.1 0.4 0.1 0.2 0 0.3-0.1 0.2-0.1 0.3-0.3 0-0.2 0-0.4l-2.9-8.2q0-0.1 0-0.2 0-0.1 0-0.2 0-0.1 0.1-0.2 0.1 0 0.1-0.1l7.2-5q0.1-0.1 0.2-0.3 0.1-0.2 0-0.3-0.1-0.2-0.2-0.4-0.2-0.1-0.4-0.1z"/>
	</g>
	<path id="Layer" fill-rule="evenodd" class="s6" d="m247.9 0h15.1q63.3 2.1 116.7 31.8 47.6 26.5 79.9 69.1 44.4 58.2 51.2 132.1 0.6 6.8 1.2 13.6v16.2q-3.3 87.6-57.3 154.6c-41.5 51.5-102 84.6-167.5 92.8q-6.7 0.8-21.1 1.8h-19.3q-55.3-2.3-103.4-25.9c-42.4-20.9-79.1-53.6-104.3-94q-36.2-57.9-39.1-127.2v-18.1q0.6-8.6 1.5-17 6.2-60.6 38.2-110.7 35.3-55.3 92.2-87 48.3-27 104.6-31.2 5.7-0.4 11.4-0.9zm-90.3 41.6q-7.4 2.5-14 6.5c-0.9 0.5-1.3 1.4-1.5 2.3q0.1-0.8-0.8-1-0.5-0.1-1 0.2-4.9 2.7-6.2 3.5-2.9 1.9-10.1 7-3.9 1.7-4.6 4.8 0 0.1-0.1 0.3-0.1 0.1-0.2 0.2-0.1 0.1-0.3 0.2-0.1 0-0.3 0-3.6 0.1-6.3 3.1-9.8 7.1-18.4 15.6-3 2.4-4.4 5.4-0.2 0.4-0.8 0.5h-0.4q-0.5 0.1-0.8 0.4l-3.4 3.6q-9.5 9.3-16.8 20.1-5.8 6-8 12.8-1.4 0.3-2.2 1.7-5.6 8.8-8 13.3-0.3 0.5-0.1 1.1 0.3 1.2-0.8 1.8-0.2 0.1-0.3 0.2-0.1 0-0.2 0.1-0.1 0.1-0.1 0.2-0.1 0.1-0.2 0.2-3.2 4.4-4.6 9.4-1.8 1.6-0.7 2.8-1-0.2-1.4 0.9-7.8 17-12.7 35.1-0.6 2.3 1.8 2.5 0 0 2.2 0l-4 0.2q-0.5 0-0.7 0.4-0.7 1.5-0.5 3.1-0.7 1.1-1 2.4-8.1 35.5-5.3 71.8 1.3 17.9 5.5 35.5 4.2 18.6 11.8 36.7 7.7 19.1 18.9 36.1 12.3 19.9 28.5 36.5 20.5 21.8 45.2 36.8 0.2 0.2 0.3 0.4 0.2 0.3 0.6 0.5 49.9 30.6 106.8 34.8 74.1 5.4 138.6-32.3 2.6-1.5 3.7-3.3 1.5 0.1 2.1-0.3 24.6-15.5 44.5-36.6 0.6-0.9 1.4-1.6 0.9-0.8 1.7-1.6 13.5-14.5 24.4-31.5 0.2-0.3 0.2-0.6 0-0.3-0.1-0.6-0.2-0.3-0.5-0.4-0.2-0.2-0.5-0.2h-13 14.5q0.1 0 0.3-0.1 0.1 0 0.2-0.1 0.2-0.1 0.3-0.2 0.1-0.1 0.1-0.2 9.6-15.2 16.7-31.4 1.4-3.3 1.7-4.1 7.5-17.9 11.7-36.7 4.4-17.5 5.5-35.5 1.6-18.3 0.1-36.3-1.3-18.8-5.8-37-3.9-16.7-10.3-32.5-0.8-1.8-1.6-4-7.9-19.2-19.2-36.2-12.6-20.1-29.1-36.6-19.9-21-44.1-35.8l-20.9-11.9q-0.5-0.2-0.9 0.1l-0.5 0.4q-1.4-1.8-3.1-2.6-13.6-6.4-29.4-11.4-3.1-1-5.1-1.2-0.7-1-1.3-0.3-0.5-0.6-1.1-0.7c-28.2-7.9-57.8-9.9-86.2-7.4q-36.2 3.3-70.1 17.9-1.2 0.5-2.7 1.3-1.4 0.9-2.6 1.5z"/>
	<path id="Layer" fill-rule="evenodd" class="s7" d="m320.3 28.9l-2.4 7.8q-0.1 0.2-0.2 0.3-0.1 0.1-0.2 0.2-0.1 0.1-0.2 0.1-0.2 0.1-0.3 0.1-4.5 0.1-8.7-0.2-0.1 0-0.2 0.1-0.4 0.1-0.3 0.5 0 0 0 0.1 0 0 0 0.1 0.1 0 0.1 0.1 0.1 0 0.1 0 3.7 2.2 7.1 5.3 0.3 0.3 0.2 0.7l-2.9 8.7q-0.3 0.9 0.5 0.4l7.5-5.5q0.5-0.4 1 0l7 5.1q1.3 0.9 0.8-0.5l-2.7-8.3q0-0.1 0-0.2 0 0 0-0.1 0.1-0.1 0.1-0.1 0-0.1 0.1-0.1 3.3-3.2 7.1-5.2 0.4-0.2 0.3-0.7 0 0 0-0.1-0.1-0.1-0.1-0.1-0.1-0.1-0.2-0.1 0 0-0.1 0l-8.7 0.1q-0.2 0-0.4-0.1-0.2 0-0.3-0.1-0.2-0.1-0.3-0.3-0.1-0.1-0.1-0.3l-2.3-7.3q2 0.2 5.1 1.2 15.8 5 29.4 11.4 1.7 0.8 3.1 2.6l0.1 11.5-0.1 35.7v36.6l0.4 36.5q-0.7 2-0.7 4.2 0.3 15 0.1 30.1 0 0.4 0.2 0.8 0.1 0.4 0.3 0.8l-0.2 37.2q-0.9 18.2 0.3 36.3h-339.2q-2.8-36.2 5.3-71.7 0.3-1.3 1-2.4 1.8 1 2.8 2.4 0.3 0.4 0.1 0.9l-2.4 8.3q-0.3 1 0.5 0.4l7.3-5.4q0.4-0.4 0.9 0l6.9 5.2q1.1 0.8 0.7-0.6l-2.4-8.3q-0.2-0.7 0.4-1l6.7-4.8q0.1-0.1 0.1-0.1 0.1-0.1 0.1-0.2 0-0.1 0-0.1 0-0.1 0-0.2-0.1-0.4-0.5-0.3-3.9 0-7.8 0.1-1.5 0.1-1.9-1.4l-2-6.5q-0.8-2.4-1.4 0-1 3.9-2.9 7.9-2.2 0-2.2 0-2.4-0.2-1.8-2.5 4.9-18.1 12.7-35.1 0.4-1.1 1.4-0.9 3 2.5 0.7-2.8 1.4-5 4.6-9.4 0.1-0.1 0.2-0.2 0-0.1 0.1-0.2 0.1-0.1 0.2-0.1 0.1-0.1 0.3-0.2 1.1-0.6 0.8-1.8-0.2-0.6 0.1-1.1 2.4-4.5 8-13.3 0.8-1.4 2.2-1.7-0.8 3.7-2.2 6.9-0.2 0.5 0 0.6 0.1 0.1 0.3 0.2 0.1 0 0.3 0 0.2 0 0.3-0.1 0.2 0 0.3-0.1 3.1-2.6 6.2-4.8 0.2-0.2 0.5-0.3 0.2-0.1 0.5 0 0.3 0 0.6 0.1 0.2 0 0.4 0.2l6 4.7q1.5 1.1 1-0.7l-2.4-8q0-0.2 0-0.3 0-0.2 0-0.3 0.1-0.1 0.2-0.2 0-0.1 0.1-0.2 2.9-2.3 6.2-4.3 0.6-0.3 0.6-1 0-0.1 0-0.2 0-0.1-0.1-0.2-0.1-0.1-0.2-0.1-0.1-0.1-0.3-0.1l-8 0.3q-0.6 0-0.9-0.4-1-1.5-1.4-4.5 7.3-10.8 16.8-20.1 2 0.9 2.7 2.1 0.3 0.3 0.1 0.8l-2.3 7.7q-0.5 1.6 0.9 0.6l6.6-4.9q0.5-0.4 1 0l6.6 4.8q2 1.5 1.1-0.8-1.4-3.3-2.4-7.7-0.1-0.5 0.2-0.7l6.6-5.2q1.1-0.9-0.3-0.9l-8 0.2q-0.3 0-0.5-0.1-0.3-0.1-0.5-0.2-0.2-0.2-0.3-0.4-0.2-0.2-0.3-0.5l-1.4-4.7q8.6-8.5 18.4-15.6l4.1 2.6q0.2 0.1 0.3 0.2 0.1 0.2 0.1 0.3 0.1 0.2 0.1 0.4 0 0.2 0 0.3l-2.7 8.2q-0.4 1.5 0.8 0.5l6.9-5.2q0.2-0.1 0.3-0.1 0.1-0.1 0.3-0.1 0.1 0 0.2 0.1 0.2 0 0.3 0.1l6.9 5.2q1.2 0.9 0.8-0.6l-2.5-8q-0.1-0.2-0.1-0.4 0-0.1 0.1-0.3 0.1-0.1 0.1-0.3 0.1-0.1 0.3-0.2l6.3-4.7q1.6-1.2-0.4-1.2l-7.2 0.1q-0.5 0-0.9-0.2-0.4-0.1-0.7-0.4-0.4-0.3-0.5-0.8-0.2-0.4-0.3-0.8 0-1.5-0.8-3.3 7.2-5.1 10.1-7 1.3-0.8 6.2-3.5 0.5-0.3 1-0.2 0.9 0.2 0.8 1-0.6 1-0.6 1.9 0 0.1 0.1 0.3 0.1 0.1 0.2 0.1 0.2 0.1 0.3 0.1 0.1 0 0.3-0.1l6.2-4.7q0.2-0.2 0.5-0.3 0.2-0.1 0.5-0.1 0.3 0 0.6 0.1 0.2 0.1 0.4 0.3l6.4 4.8q1.1 0.8 0.7-0.5l-2.3-7.9q-0.1-0.5 0.2-0.8l2-2q1.2-0.6 2.6-1.5 1.5-0.8 2.7-1.3 33.9-14.6 70.1-17.9c28.4-2.5 58-0.5 86.2 7.4q0.6 0.1 1.1 0.7zm-110 8.3q-0.1 0-0.1 0-0.1 0-0.2 0 0-0.1-0.1-0.2 0 0 0-0.1l-2.8-8.6q0-0.1-0.2-0.2-0.1-0.1-0.2-0.1-0.2 0-0.3 0.1-0.1 0.1-0.2 0.2l-2.7 8.6q0 0.1 0 0.2-0.1 0-0.1 0.1-0.1 0-0.2 0 0 0.1-0.1 0.1l-9-0.1q-0.2 0-0.3 0.1-0.1 0.1-0.1 0.2-0.1 0.2 0 0.3 0 0.2 0.1 0.2l7.4 5.3q0 0 0.1 0.1 0 0 0 0.1 0.1 0.1 0.1 0.1 0 0.1-0.1 0.2l-2.8 8.6q0 0.1 0 0.2 0.1 0.2 0.2 0.3 0.1 0.1 0.3 0.1 0.1-0.1 0.2-0.1l7.3-5.4q0-0.1 0.1-0.1 0.1 0 0.1 0 0.1 0 0.2 0 0.1 0 0.1 0.1l7.3 5.3q0.1 0.1 0.3 0.1 0.1 0 0.2-0.1 0.1-0.1 0.2-0.2 0-0.2 0-0.3l-2.9-8.5q0-0.1 0-0.2 0-0.1 0-0.1 0-0.1 0.1-0.2 0 0 0.1-0.1l7.3-5.2q0.1-0.1 0.1-0.3 0.1-0.1 0-0.2 0-0.2-0.1-0.3-0.1 0-0.3 0zm57.1-0.1q0 0-0.1 0-0.1 0-0.1-0.1-0.1 0-0.1-0.1 0 0 0-0.1l-2.9-8.6q0-0.1-0.1-0.2-0.1-0.1-0.3-0.1-0.1 0-0.2 0.1-0.1 0.1-0.1 0.2l-2.9 8.6q0 0.1 0 0.1 0 0.1-0.1 0.1 0 0.1-0.1 0.1-0.1 0-0.1 0h-9.1q-0.2 0-0.2 0.1-0.1 0.1-0.2 0.2 0 0.1 0 0.2 0.1 0.1 0.1 0.2l7.4 5.4q0 0 0.1 0.1 0 0 0 0.1 0 0 0 0.1 0 0.1 0 0.1l-2.7 8.7q-0.1 0.1 0 0.2 0 0.1 0.1 0.2 0.1 0.1 0.2 0.1 0.1 0 0.2-0.1l7.4-5.3q0.1 0 0.1-0.1 0.1 0 0.1 0 0.1 0 0.2 0 0 0.1 0.1 0.1l7.4 5.3q0.1 0.1 0.2 0.1 0.1 0 0.2-0.1 0.1-0.1 0.1-0.2 0.1-0.1 0-0.2l-2.7-8.7q0 0 0-0.1 0-0.1 0-0.1 0-0.1 0-0.1 0.1-0.1 0.1-0.1l7.3-5.4q0.1-0.1 0.2-0.2 0-0.1 0-0.2-0.1-0.1-0.2-0.2 0-0.1-0.2-0.1zm-84.2 28.5q-0.1 0-0.2 0-0.1 0-0.1-0.1-0.1 0-0.2-0.1 0-0.1 0-0.2l-2.7-8.5q0-0.1-0.2-0.2-0.1-0.1-0.3-0.1-0.2 0-0.3 0.1-0.1 0.1-0.2 0.2l-2.6 8.5q0 0.1-0.1 0.2 0 0.1-0.1 0.1-0.1 0.1-0.2 0.1 0 0-0.1 0l-8.9-0.1q-0.2 0-0.3 0.1-0.2 0.1-0.2 0.3-0.1 0.1 0 0.3 0 0.2 0.2 0.3l7.2 5.1q0.1 0 0.2 0.1 0 0.1 0 0.2 0.1 0 0.1 0.1 0 0.1-0.1 0.2l-2.8 8.4q-0.1 0.2 0 0.3 0 0.2 0.2 0.3 0.1 0.1 0.3 0.1 0.1 0 0.3-0.1l7.1-5.3q0.1-0.1 0.2-0.1 0 0 0.1 0 0.1 0 0.2 0 0.1 0 0.1 0.1l7.2 5.3q0.1 0.1 0.3 0.1 0.1 0 0.3-0.1 0.1-0.1 0.2-0.3 0-0.1 0-0.3l-2.9-8.4q0-0.1 0-0.2 0-0.1 0-0.1 0-0.1 0.1-0.2 0-0.1 0.1-0.1l7.3-5.1q0.1-0.1 0.2-0.3 0-0.2 0-0.3-0.1-0.2-0.2-0.3-0.2-0.1-0.3-0.1zm57.1 0q-0.1 0-0.2-0.1-0.1 0-0.1 0-0.1-0.1-0.1-0.2-0.1 0-0.1-0.1l-2.7-8.4q0-0.2-0.1-0.3-0.2-0.1-0.4-0.1-0.1 0-0.3 0.1-0.1 0.1-0.2 0.3l-2.6 8.4q0 0.1-0.1 0.1 0 0.1-0.1 0.2-0.1 0-0.1 0-0.1 0.1-0.2 0.1l-8.9-0.1q-0.1 0-0.3 0.1-0.1 0.1-0.2 0.2 0 0.2 0 0.4 0.1 0.1 0.2 0.2l7.2 5.2q0.1 0 0.2 0.1 0 0 0 0.1 0.1 0.1 0.1 0.2 0 0.1-0.1 0.2l-2.8 8.4q0 0.1 0 0.3 0.1 0.1 0.2 0.2 0.1 0.1 0.3 0.1 0.2 0 0.3-0.1l7.1-5.2q0.1-0.1 0.2-0.1 0.1 0 0.1 0 0.1 0 0.2 0 0.1 0 0.1 0.1l7.2 5.2q0.1 0.1 0.3 0.1 0.1 0 0.3-0.1 0.1-0.1 0.2-0.2 0-0.2 0-0.3l-2.9-8.4q0-0.1 0-0.2 0-0.1 0-0.2 0.1-0.1 0.1-0.1 0.1-0.1 0.1-0.1l7.2-5.2q0.2-0.1 0.2-0.2 0.1-0.2 0.1-0.4-0.1-0.1-0.2-0.2-0.2-0.1-0.4-0.1zm57.2 0q-0.1 0-0.2 0-0.1 0-0.2-0.1 0 0-0.1-0.1-0.1-0.1-0.1-0.2l-2.5-8.3q-0.1-0.2-0.2-0.3-0.2-0.2-0.4-0.2-0.2 0-0.4 0.2-0.1 0.1-0.2 0.3l-2.5 8.3q0 0.1-0.1 0.2 0 0.1-0.1 0.1-0.1 0.1-0.2 0.1-0.1 0-0.2 0l-8.7-0.1q-0.2-0.1-0.4 0.1-0.1 0.1-0.2 0.3 0 0.2 0 0.4 0.1 0.2 0.2 0.3l7.2 4.9q0.1 0.1 0.1 0.2 0.1 0.1 0.1 0.1 0.1 0.1 0.1 0.2 0 0.1-0.1 0.2l-2.8 8.3q-0.1 0.1 0 0.3 0 0.2 0.2 0.4 0.1 0.1 0.4 0.1 0.2 0 0.3-0.2l6.9-5.2q0.1-0.1 0.2-0.1 0.1 0 0.2 0 0.1 0 0.2 0 0.1 0 0.2 0.1l6.9 5.3q0.2 0.1 0.4 0.1 0.2 0 0.3-0.1 0.2-0.2 0.3-0.4 0-0.2 0-0.4l-2.9-8.2q0-0.1 0-0.2 0-0.1 0-0.2 0 0 0.1-0.1 0-0.1 0.1-0.2l7.2-4.9q0.1-0.1 0.2-0.3 0.1-0.2 0-0.4-0.1-0.2-0.2-0.3-0.2-0.2-0.4-0.1zm-144.1 24.3q-0.1 0-0.2 0-0.1 0-0.1-0.1-0.1 0-0.1-0.1-0.1-0.1-0.1-0.1l-2.7-8.6q-0.1-0.1-0.2-0.2-0.1-0.1-0.3-0.1-0.1 0-0.2 0.1-0.2 0.1-0.2 0.2l-2.7 8.6q-0.1 0-0.1 0.1 0 0.1-0.1 0.1-0.1 0.1-0.1 0.1-0.1 0-0.2 0h-9q-0.1 0-0.3 0-0.1 0.1-0.1 0.3-0.1 0.1 0 0.3 0 0.1 0.1 0.2l7.4 5.3q0 0 0.1 0.1 0 0 0 0.1 0.1 0.1 0.1 0.1 0 0.1-0.1 0.2l-2.8 8.5q0 0.2 0 0.3 0.1 0.1 0.2 0.2 0.1 0.1 0.2 0.1 0.2 0 0.3-0.1l7.3-5.3q0 0 0.1-0.1 0.1 0 0.1 0 0.1 0 0.2 0 0.1 0.1 0.1 0.1l7.3 5.3q0.1 0.1 0.2 0.1 0.2 0 0.3-0.1 0.1-0.1 0.2-0.2 0-0.1 0-0.3l-2.9-8.5q0-0.1 0-0.2 0 0 0-0.1 0.1-0.1 0.1-0.1 0.1-0.1 0.1-0.1l7.3-5.3q0.2-0.1 0.2-0.2 0-0.2 0-0.3 0-0.2-0.2-0.3-0.1 0-0.2 0zm57.1 0q-0.1 0-0.2 0-0.1-0.1-0.2-0.1 0-0.1-0.1-0.1 0-0.1-0.1-0.2l-2.6-8.4q-0.1-0.2-0.2-0.3-0.1-0.1-0.3-0.1-0.2 0-0.3 0.1-0.2 0.1-0.2 0.3l-2.7 8.4q0 0.1 0 0.2-0.1 0-0.1 0.1-0.1 0-0.2 0.1-0.1 0-0.2 0l-8.8-0.1q-0.2 0-0.3 0.1-0.2 0.1-0.2 0.3-0.1 0.2 0 0.3 0 0.2 0.2 0.3l7.2 5.1q0.1 0.1 0.1 0.1 0.1 0.1 0.1 0.2 0 0.1 0 0.1 0 0.1 0 0.2l-2.8 8.4q-0.1 0.1 0 0.3 0 0.2 0.2 0.3 0.1 0.1 0.3 0.1 0.2 0 0.3-0.1l7.1-5.3q0.1-0.1 0.2-0.1 0 0 0.1 0 0.1 0 0.2 0 0.1 0 0.1 0.1l7.1 5.3q0.2 0.1 0.3 0.1 0.2 0 0.4-0.2 0.1-0.1 0.2-0.2 0-0.2 0-0.4l-2.9-8.3q0-0.1 0-0.2 0-0.1 0-0.1 0.1-0.1 0.1-0.2 0.1-0.1 0.1-0.1l7.2-5.1q0.2-0.1 0.2-0.3 0.1-0.2 0-0.3 0-0.2-0.2-0.3-0.1-0.1-0.3-0.1zm57-0.1q0 0-0.1 0-0.1 0-0.1-0.1-0.1 0-0.1 0 0-0.1-0.1-0.2l-2.8-8.7q0-0.1-0.1-0.2-0.1-0.1-0.3-0.1-0.1 0-0.2 0.1-0.1 0.1-0.1 0.2l-2.9 8.7q0 0.1 0 0.2-0.1 0-0.1 0-0.1 0.1-0.1 0.1-0.1 0-0.1 0h-9.2q-0.2 0-0.3 0.1-0.1 0.1-0.1 0.2 0 0.1 0 0.2 0 0.1 0.1 0.2l7.5 5.4q0 0 0.1 0.1 0 0.1 0 0.1 0 0.1 0 0.1 0 0.1 0 0.2l-2.8 8.7q-0.1 0.1 0 0.2 0 0.2 0.1 0.2 0.1 0.1 0.2 0.1 0.2 0 0.3-0.1l7.4-5.4q0.1 0 0.1 0 0.1-0.1 0.1-0.1 0.1 0 0.2 0.1 0 0 0.1 0l7.4 5.4q0.1 0.1 0.2 0.1 0.2 0 0.3-0.1 0.1 0 0.1-0.2 0-0.1 0-0.2l-2.8-8.7q-0.1-0.1-0.1-0.2 0 0 0.1-0.1 0 0 0-0.1 0-0.1 0.1-0.1l7.4-5.4q0.1-0.1 0.2-0.2 0-0.1 0-0.2-0.1-0.1-0.2-0.2-0.1-0.1-0.2-0.1zm57.2 0.1q-0.1 0-0.2-0.1-0.1 0-0.1-0.1-0.1 0-0.1-0.1-0.1 0-0.1-0.1l-2.7-8.4q0-0.2-0.2-0.3-0.1-0.1-0.3-0.1-0.2 0-0.3 0.1-0.1 0.1-0.2 0.3l-2.6 8.4q-0.1 0.1-0.1 0.1-0.1 0.1-0.1 0.1-0.1 0.1-0.2 0.1-0.1 0.1-0.1 0.1l-8.8-0.1q-0.2 0-0.4 0.1-0.1 0.1-0.2 0.2 0 0.2 0 0.4 0.1 0.1 0.2 0.2l7.2 5.2q0.1 0 0.1 0.1 0.1 0 0.1 0.1 0 0.1 0 0.2 0 0.1 0 0.2l-2.8 8.3q0 0.2 0 0.3 0.1 0.2 0.2 0.3 0.1 0.1 0.3 0.1 0.2 0 0.3-0.1l7.1-5.2q0.1-0.1 0.2-0.1 0 0 0.1 0 0.1 0 0.2 0 0.1 0 0.1 0.1l7.1 5.2q0.1 0.1 0.3 0.1 0.2 0 0.3-0.1 0.2-0.1 0.2-0.3 0.1-0.1 0-0.3l-2.8-8.3q0-0.1 0-0.2 0-0.1 0-0.2 0.1-0.1 0.1-0.1 0.1-0.1 0.1-0.1l7.2-5.2q0.1-0.1 0.2-0.2 0-0.2 0-0.4-0.1-0.1-0.2-0.2-0.1-0.1-0.3-0.1zm-198.6 29q0 0-0.1 0-0.1-0.1-0.2-0.1-0.1-0.1-0.1-0.1-0.1-0.1-0.1-0.2l-2.6-8.5q0-0.2-0.2-0.3-0.1-0.1-0.3-0.1-0.2 0-0.3 0.1-0.2 0.1-0.2 0.3l-2.6 8.5q-0.1 0.1-0.1 0.2-0.1 0-0.1 0.1-0.1 0-0.2 0.1-0.1 0-0.2 0l-8.8-0.2q-0.2 0-0.4 0.1-0.1 0.1-0.2 0.3 0 0.2 0 0.3 0.1 0.2 0.2 0.3l7.3 5.1q0.1 0.1 0.1 0.1 0.1 0.1 0.1 0.2 0 0.1 0 0.2 0 0.1 0 0.1l-2.9 8.4q-0.1 0.2 0 0.4 0 0.2 0.2 0.3 0.1 0.1 0.3 0.1 0.2 0 0.3-0.1l7.1-5.4q0.1 0 0.2-0.1 0.1 0 0.2 0 0.1 0 0.1 0 0.1 0.1 0.2 0.1l7.1 5.4q0.1 0.1 0.3 0.1 0.2 0 0.3-0.1 0.2-0.1 0.3-0.3 0-0.2-0.1-0.3l-2.8-8.4q-0.1-0.1-0.1-0.2 0-0.1 0-0.2 0.1-0.1 0.1-0.1 0.1-0.1 0.2-0.2l7.3-5q0.1-0.1 0.2-0.3 0-0.2 0-0.4-0.1-0.1-0.2-0.2-0.2-0.2-0.4-0.2zm57.1 0.1q-0.1 0-0.2 0 0-0.1-0.1-0.1-0.1-0.1-0.1-0.1-0.1-0.1-0.1-0.2l-2.6-8.5q-0.1-0.2-0.2-0.3-0.2-0.1-0.3-0.1-0.2 0-0.4 0.1-0.1 0.1-0.1 0.3l-2.7 8.5q0 0.1 0 0.2-0.1 0-0.2 0.1 0 0-0.1 0.1-0.1 0-0.2 0l-8.9-0.2q-0.2 0.1-0.3 0.2-0.1 0.1-0.2 0.2 0 0.2 0 0.3 0.1 0.2 0.2 0.3l7.3 5.1q0 0.1 0.1 0.2 0.1 0 0.1 0.1 0 0.1 0 0.2 0 0.1 0 0.1l-2.9 8.5q-0.1 0.1 0 0.3 0.1 0.2 0.2 0.3 0.1 0.1 0.3 0.1 0.2 0 0.3-0.1l7.1-5.4q0.1 0 0.2-0.1 0.1 0 0.2 0 0 0 0.1 0 0.1 0.1 0.2 0.1l7.1 5.4q0.1 0.1 0.3 0.1 0.2 0 0.3-0.1 0.2-0.1 0.2-0.3 0.1-0.2 0-0.3l-2.9-8.5q0 0 0-0.1 0-0.1 0-0.2 0.1-0.1 0.1-0.1 0.1-0.1 0.1-0.2l7.3-5.1q0.2-0.1 0.2-0.3 0.1-0.1 0-0.3 0-0.1-0.2-0.2-0.1-0.1-0.3-0.2zm57.1 0q-0.1 0-0.2 0 0-0.1-0.1-0.1-0.1 0-0.1-0.1 0-0.1-0.1-0.1l-2.7-8.7q0-0.1-0.2-0.2-0.1-0.1-0.2-0.1-0.2 0-0.3 0.1-0.1 0.1-0.2 0.2l-2.7 8.7q0 0-0.1 0.1 0 0.1-0.1 0.1 0 0.1-0.1 0.1-0.1 0-0.1 0l-9.1-0.1q-0.2 0-0.3 0.1-0.1 0.1-0.2 0.2 0 0.2 0 0.3 0.1 0.2 0.2 0.3l7.4 5.2q0.1 0.1 0.1 0.1 0.1 0.1 0.1 0.2 0 0 0 0.1 0 0.1 0 0.1l-2.9 8.7q0 0.1 0 0.2 0.1 0.2 0.2 0.3 0.1 0.1 0.2 0.1 0.2 0 0.3-0.1l7.3-5.5q0.1 0 0.1 0 0.1 0 0.2 0 0.1 0 0.1 0 0.1 0 0.2 0l7.3 5.4q0.1 0.1 0.2 0.1 0.2 0 0.3 0 0.1-0.1 0.2-0.3 0-0.1 0-0.3l-2.9-8.6q-0.1-0.1-0.1-0.1 0-0.1 0.1-0.2 0 0 0-0.1 0.1-0.1 0.1-0.1l7.4-5.3q0.2-0.1 0.2-0.2 0.1-0.2 0-0.3 0-0.1-0.2-0.2-0.1-0.1-0.2-0.1zm57.1 0q-0.1 0-0.1 0-0.1 0-0.2-0.1-0.1 0-0.1-0.1-0.1-0.1-0.1-0.1l-2.6-8.6q0-0.2-0.2-0.3-0.1-0.1-0.3-0.1-0.2 0-0.3 0.1-0.2 0.1-0.2 0.3l-2.6 8.6q-0.1 0-0.1 0.1-0.1 0.1-0.1 0.1-0.1 0.1-0.2 0.1-0.1 0-0.1 0l-9-0.1q-0.2 0-0.3 0.1-0.2 0.1-0.2 0.2-0.1 0.2 0 0.4 0 0.1 0.2 0.2l7.3 5.2q0.1 0 0.2 0.1 0 0 0 0.1 0.1 0.1 0.1 0.2 0 0.1-0.1 0.2l-2.9 8.5q-0.1 0.1 0 0.3 0 0.2 0.2 0.3 0.1 0.1 0.3 0.1 0.2 0 0.3-0.1l7.2-5.5q0 0 0.1 0 0.1-0.1 0.2-0.1 0.1 0 0.2 0.1 0 0 0.1 0l7.2 5.5q0.1 0.1 0.3 0.1 0.2 0 0.3-0.1 0.2-0.1 0.2-0.3 0.1-0.2 0-0.3l-2.9-8.5q-0.1-0.1-0.1-0.2 0-0.1 0-0.2 0.1-0.1 0.1-0.1 0.1-0.1 0.2-0.1l7.3-5.2q0.2-0.1 0.2-0.2 0.1-0.2 0-0.4 0-0.1-0.2-0.2-0.1-0.1-0.3-0.1zm-87 23.7q-0.1 0-0.1 0-0.1 0-0.2-0.1 0 0-0.1-0.1 0 0 0-0.1l-2.8-8.6q0-0.2-0.2-0.3-0.1-0.1-0.2-0.1-0.2 0-0.3 0.1-0.1 0.1-0.1 0.3l-2.8 8.6q0 0.1 0 0.1-0.1 0.1-0.1 0.1-0.1 0.1-0.2 0.1 0 0-0.1 0h-9.1q-0.1 0-0.2 0.1-0.2 0.1-0.2 0.2 0 0.1 0 0.3 0 0.1 0.2 0.2l7.3 5.3q0.1 0 0.1 0 0.1 0.1 0.1 0.2 0 0 0 0.1 0 0.1 0 0.2l-2.8 8.6q-0.1 0.1 0 0.3 0 0.1 0.1 0.2 0.1 0.1 0.3 0.1 0.1 0 0.3-0.1l7.2-5.4q0.1-0.1 0.2-0.1 0 0 0.1 0 0.1 0 0.2 0 0 0 0.1 0.1l7.3 5.3q0.1 0.1 0.2 0.1 0.2 0 0.3 0 0.1-0.1 0.2-0.3 0-0.1 0-0.3l-2.9-8.6q0 0 0-0.1 0-0.1 0-0.1 0-0.1 0.1-0.2 0 0 0.1-0.1l7.3-5.3q0.1 0 0.2-0.2 0-0.1 0-0.3-0.1-0.1-0.2-0.2-0.1-0.1-0.2-0.1zm57 0q0 0-0.1 0 0 0-0.1-0.1 0 0-0.1 0 0-0.1 0-0.1l-2.9-8.8q0-0.1-0.1-0.2-0.1 0-0.2 0-0.1 0-0.2 0-0.1 0.1-0.2 0.2l-2.8 8.7q-0.1 0.1-0.1 0.1 0 0.1-0.1 0.1 0 0.1-0.1 0.1 0 0-0.1 0h-9.2q-0.1 0-0.2 0.1-0.1 0-0.1 0.2-0.1 0.1 0 0.2 0 0.1 0.1 0.2l7.4 5.4q0.1 0 0.1 0.1 0 0 0 0.1 0.1 0 0.1 0.1 0 0.1 0 0.1l-2.9 8.7q0 0.2 0 0.3 0 0.1 0.1 0.2 0.1 0.1 0.3 0.1 0.1 0 0.2-0.1l7.4-5.4q0.1 0 0.1-0.1 0.1 0 0.1 0 0.1 0 0.2 0 0 0.1 0.1 0.1l7.4 5.4q0.1 0.1 0.2 0.1 0.1 0 0.2-0.1 0.1-0.1 0.2-0.2 0-0.1 0-0.2l-2.8-8.8q0 0 0-0.1 0 0 0-0.1 0 0 0-0.1 0.1 0 0.1-0.1l7.4-5.4q0.1 0 0.2-0.2 0-0.1 0-0.2-0.1-0.1-0.2-0.2-0.1-0.1-0.2-0.1zm57.2 0.1q-0.1 0-0.2 0-0.1-0.1-0.1-0.1-0.1-0.1-0.2-0.1 0-0.1 0-0.2l-2.7-8.6q0-0.1-0.2-0.2-0.1-0.1-0.3-0.1-0.2 0-0.3 0.1-0.1 0.1-0.2 0.2l-2.6 8.6q0 0.1-0.1 0.2 0 0-0.1 0.1-0.1 0-0.1 0.1-0.1 0-0.2 0l-9-0.1q-0.2 0-0.3 0.1-0.1 0.1-0.2 0.2 0 0.2 0 0.4 0.1 0.1 0.2 0.2l7.4 5.2q0 0 0.1 0.1 0 0.1 0 0.1 0.1 0.1 0.1 0.2 0 0.1-0.1 0.2l-2.8 8.5q-0.1 0.1 0 0.3 0 0.2 0.1 0.3 0.2 0.1 0.4 0.1 0.1 0 0.3-0.1l7.1-5.4q0.1-0.1 0.2-0.1 0.1-0.1 0.2-0.1 0 0 0.1 0.1 0.1 0 0.2 0.1l7.2 5.3q0.1 0.1 0.3 0.1 0.1 0 0.3-0.1 0.1-0.1 0.2-0.2 0-0.2 0-0.4l-3-8.4q0-0.1 0-0.2 0-0.1 0-0.2 0.1-0.1 0.1-0.1 0.1-0.1 0.1-0.1l7.4-5.2q0.1-0.1 0.2-0.3 0-0.1 0-0.3-0.1-0.2-0.2-0.3-0.2-0.1-0.3-0.1zm-228.4 0q-0.1 0-0.2 0-0.1 0-0.1-0.1-0.1 0-0.1-0.1-0.1-0.1-0.1-0.1l-2.7-8.7q-0.1-0.1-0.2-0.2-0.1-0.1-0.3-0.1-0.1 0-0.3 0.1-0.1 0.1-0.1 0.2l-2.7 8.7q-0.1 0.1-0.1 0.1 0 0.1-0.1 0.1-0.1 0.1-0.1 0.1-0.1 0-0.2 0l-9.1-0.1q-0.1 0-0.3 0.1-0.1 0.1-0.1 0.3-0.1 0.1 0 0.3 0 0.1 0.2 0.2l7.4 5.2q0 0.1 0.1 0.1 0 0.1 0 0.2 0.1 0 0.1 0.1 0 0.1-0.1 0.2l-2.8 8.6q-0.1 0.1 0 0.3 0 0.1 0.1 0.2 0.2 0.1 0.3 0.1 0.2 0 0.3-0.1l7.3-5.4q0-0.1 0.1-0.1 0.1 0 0.2 0 0 0 0.1 0 0.1 0 0.1 0.1l7.3 5.4q0.2 0.1 0.3 0.1 0.2 0 0.3-0.1 0.1-0.1 0.2-0.3 0-0.1 0-0.2l-3-8.6q0-0.1 0-0.2 0-0.1 0-0.1 0.1-0.1 0.1-0.2 0.1 0 0.1-0.1l7.4-5.3q0.1-0.1 0.2-0.2 0-0.1 0-0.3-0.1-0.1-0.2-0.2-0.1-0.1-0.3-0.1zm57.2 0q-0.1 0-0.2 0-0.1-0.1-0.1-0.1-0.1-0.1-0.2-0.1 0-0.1 0-0.2l-2.7-8.4q0-0.2-0.2-0.3-0.1-0.1-0.3-0.1-0.2 0-0.3 0.1-0.1 0.1-0.2 0.3l-2.6 8.4q-0.1 0.1-0.1 0.2-0.1 0-0.1 0.1-0.1 0-0.2 0.1-0.1 0-0.1 0l-8.9-0.1q-0.2 0-0.3 0.1-0.2 0.1-0.2 0.3-0.1 0.1 0 0.3 0.1 0.2 0.2 0.3l7.2 5.1q0.1 0 0.1 0.1 0.1 0.1 0.1 0.2 0 0 0 0.1 0 0.1 0 0.2l-2.8 8.4q-0.1 0.1 0 0.3 0 0.2 0.2 0.3 0.1 0.1 0.3 0.1 0.2 0 0.3-0.1l7.1-5.3q0.1 0 0.1-0.1 0.1 0 0.2 0 0.1 0 0.2 0 0.1 0.1 0.1 0.1l7.1 5.3q0.2 0.1 0.3 0.1 0.2 0 0.4-0.1 0.1-0.1 0.1-0.3 0.1-0.2 0-0.3l-2.8-8.4q0-0.1 0-0.2 0-0.1 0-0.1 0.1-0.1 0.1-0.2 0.1-0.1 0.1-0.1l7.2-5.1q0.2-0.1 0.2-0.3 0.1-0.2 0-0.3 0-0.2-0.2-0.3-0.1-0.1-0.3-0.1zm-84.3 29.1q-0.1 0-0.2 0-0.1-0.1-0.1-0.1-0.1-0.1-0.2-0.1 0-0.1 0-0.2l-2.7-8.5q0-0.1-0.2-0.2-0.1-0.1-0.3-0.1-0.1 0-0.3 0.1-0.1 0.1-0.2 0.2l-2.6 8.5q0 0.1-0.1 0.2 0 0.1-0.1 0.1 0 0.1-0.1 0.1-0.1 0-0.2 0l-8.9-0.1q-0.2 0-0.3 0.1-0.2 0.1-0.2 0.2-0.1 0.2 0 0.4 0 0.1 0.2 0.2l7.3 5.2q0 0 0.1 0.1 0.1 0 0.1 0.1 0 0.1 0 0.2 0 0.1 0 0.2l-2.9 8.4q0 0.2 0 0.3 0.1 0.2 0.2 0.3 0.1 0.1 0.3 0.1 0.2 0 0.3-0.1l7.2-5.4q0 0 0.1-0.1 0.1 0 0.2 0 0 0 0.1 0 0.1 0.1 0.2 0.1l7.1 5.4q0.2 0 0.3 0 0.2 0 0.3-0.1 0.2 0 0.2-0.2 0.1-0.2 0-0.3l-2.9-8.5q0 0 0-0.1 0-0.1 0-0.2 0.1-0.1 0.1-0.1 0.1-0.1 0.1-0.2l7.3-5.1q0.1-0.1 0.2-0.3 0-0.1 0-0.3-0.1-0.2-0.2-0.3-0.1 0-0.3 0zm57-0.1q0 0-0.1 0-0.1 0-0.1-0.1-0.1 0-0.1-0.1-0.1 0-0.1-0.1l-2.7-8.6q-0.1-0.2-0.2-0.3-0.1-0.1-0.3-0.1-0.1 0-0.2 0.1-0.2 0.1-0.2 0.3l-2.7 8.6q0 0.1-0.1 0.1 0 0.1-0.1 0.1 0 0.1-0.1 0.1-0.1 0-0.2 0l-9-0.1q-0.2 0-0.3 0.1-0.1 0.1-0.1 0.2-0.1 0.2 0 0.3 0 0.2 0.1 0.3l7.4 5.2q0 0.1 0.1 0.1 0 0.1 0.1 0.2 0 0 0 0.1 0 0.1 0 0.1l-2.9 8.6q-0.1 0.2 0 0.3 0 0.1 0.2 0.2 0.1 0.1 0.2 0.1 0.2 0 0.3-0.1l7.3-5.3q0-0.1 0.1-0.1 0.1 0 0.1 0 0.1 0 0.2 0 0.1 0 0.1 0.1l7.3 5.3q0.1 0.1 0.2 0.1 0.2 0 0.3-0.1 0.1-0.1 0.2-0.2 0-0.1 0-0.3l-2.9-8.6q0 0 0-0.1 0-0.1 0-0.1 0.1-0.1 0.1-0.2 0 0 0.1-0.1l7.4-5.2q0.1-0.1 0.1-0.3 0.1-0.1 0-0.3 0-0.1-0.1-0.2-0.2-0.1-0.3-0.1zm57.1 0.1q-0.1 0-0.2-0.1 0 0-0.1 0-0.1-0.1-0.1-0.1-0.1-0.1-0.1-0.2l-2.7-8.6q0-0.1-0.1-0.2-0.2-0.1-0.3-0.1-0.2 0-0.3 0.1-0.1 0.1-0.2 0.2l-2.7 8.6q0 0.1 0 0.2-0.1 0-0.2 0.1 0 0-0.1 0-0.1 0.1-0.1 0.1l-9.1-0.1q-0.1 0-0.2 0.1-0.2 0-0.2 0.2-0.1 0.1 0 0.3 0 0.1 0.2 0.2l7.3 5.3q0.1 0 0.1 0.1 0.1 0 0.1 0.1 0 0.1 0 0.1 0 0.1 0 0.2l-2.9 8.6q0 0.1 0 0.3 0.1 0.1 0.2 0.2 0.1 0.1 0.3 0.1 0.1 0 0.2-0.1l7.3-5.4q0.1 0 0.1-0.1 0.1 0 0.2 0 0 0 0.1 0 0.1 0.1 0.2 0.1l7.2 5.4q0.1 0.1 0.3 0.1 0.1 0 0.3-0.1 0.1-0.1 0.1-0.2 0.1-0.2 0-0.3l-2.8-8.6q-0.1-0.1-0.1-0.2 0 0 0-0.1 0.1-0.1 0.1-0.1 0.1-0.1 0.1-0.1l7.4-5.3q0.1-0.1 0.2-0.2 0-0.2 0-0.3-0.1-0.2-0.2-0.2-0.1-0.1-0.3-0.1zm57.1-0.1q-0.1 0-0.2 0 0 0-0.1 0 0-0.1-0.1-0.1 0-0.1 0-0.1l-2.8-8.8q-0.1-0.2-0.2-0.2-0.1-0.1-0.2-0.1-0.1 0-0.2 0.1-0.1 0-0.2 0.2l-2.8 8.8q0 0 0 0.1-0.1 0-0.1 0.1-0.1 0-0.1 0-0.1 0-0.1 0.1l-9.3-0.1q-0.1 0-0.2 0.1-0.1 0.1-0.2 0.2 0 0.1 0 0.2 0.1 0.2 0.2 0.2l7.5 5.4q0.1 0 0.1 0.1 0 0 0 0.1 0.1 0.1 0.1 0.1 0 0.1-0.1 0.2l-2.8 8.7q-0.1 0.1 0 0.3 0 0.1 0.1 0.2 0.1 0 0.2 0 0.2 0 0.3 0l7.4-5.5q0-0.1 0.1-0.1 0.1 0 0.1 0 0.1 0 0.2 0 0 0 0.1 0.1l7.4 5.4q0.1 0.1 0.2 0.1 0.2 0 0.3-0.1 0.1 0 0.1-0.2 0.1-0.1 0-0.2l-2.9-8.8q0 0 0-0.1 0-0.1 0-0.1 0-0.1 0.1-0.1 0-0.1 0.1-0.1l7.5-5.4q0.1-0.1 0.1-0.2 0-0.1 0-0.3-0.1-0.1-0.2-0.2-0.1 0-0.2 0zm57.2 0.1q-0.1 0-0.2 0-0.1-0.1-0.2-0.1 0-0.1-0.1-0.1 0-0.1-0.1-0.2l-2.5-8.6q-0.1-0.1-0.2-0.2-0.2-0.2-0.3-0.2-0.2 0-0.4 0.2-0.1 0.1-0.2 0.2l-2.5 8.6q0 0.1-0.1 0.2-0.1 0-0.1 0.1-0.1 0-0.2 0.1-0.1 0-0.2 0l-8.9-0.2q-0.2 0-0.3 0.1-0.2 0.1-0.2 0.3-0.1 0.1 0 0.3 0 0.2 0.2 0.3l7.3 5q0.1 0.1 0.2 0.2 0 0 0.1 0.1 0 0.1 0 0.2 0 0.1 0 0.2l-3 8.4q-0.1 0.2 0 0.4 0 0.1 0.2 0.2 0.1 0.1 0.3 0.1 0.2 0 0.3-0.1l7.1-5.4q0.1 0 0.2-0.1 0.1 0 0.2 0 0 0 0.1 0 0.1 0.1 0.2 0.1l7.1 5.4q0.1 0.1 0.3 0.1 0.2 0 0.3-0.1 0.2-0.1 0.2-0.2 0.1-0.2 0-0.4l-2.9-8.4q-0.1-0.1-0.1-0.2 0-0.1 0.1-0.2 0-0.1 0-0.1 0.1-0.1 0.2-0.1l7.3-5.1q0.2-0.1 0.2-0.3 0.1-0.2 0-0.3 0-0.2-0.2-0.3-0.1-0.1-0.3-0.1zm-201.2 24.3q-0.1 0-0.1 0-0.1 0-0.2-0.1 0 0-0.1-0.1 0 0 0-0.1l-2.8-8.7q0-0.1-0.1-0.2-0.1-0.1-0.3-0.1-0.2 0-0.3 0.1-0.1 0.1-0.1 0.2l-2.7 8.7q-0.1 0.1-0.1 0.1 0 0.1-0.1 0.1-0.1 0.1-0.1 0.1-0.1 0-0.2 0l-9.1-0.1q-0.1 0-0.2 0.1-0.2 0.1-0.2 0.2-0.1 0.2 0 0.3 0 0.2 0.2 0.3l7.4 5.2q0.1 0 0.1 0.1 0 0.1 0.1 0.1 0 0.1 0 0.2 0 0 0 0.1l-2.9 8.6q-0.1 0.2 0 0.3 0 0.2 0.1 0.3 0.2 0 0.3 0 0.2 0 0.3-0.1l7.3-5.4q0 0 0.1-0.1 0.1 0 0.1 0 0.1 0 0.2 0 0 0.1 0.1 0.1l7.3 5.4q0.1 0.1 0.3 0.1 0.1 0 0.2-0.1 0.2-0.1 0.2-0.2 0.1-0.1 0-0.3l-2.9-8.6q0-0.1 0-0.1 0-0.1 0-0.2 0-0.1 0-0.1 0.1-0.1 0.2-0.1l7.4-5.3q0.1-0.1 0.1-0.2 0.1-0.2 0-0.3 0-0.1-0.1-0.2-0.2-0.1-0.3-0.1zm171.2-0.1q-0.1 0-0.1 0 0 0-0.1 0 0-0.1-0.1-0.1 0-0.1 0-0.1l-2.9-9q0 0-0.1-0.1-0.1-0.1-0.2-0.1-0.1 0-0.2 0.1-0.1 0.1-0.1 0.1l-2.9 9q0 0 0 0.1-0.1 0-0.1 0.1-0.1 0-0.1 0-0.1 0-0.1 0h-9.4q-0.1 0-0.2 0-0.1 0.1-0.1 0.2 0 0.1 0 0.2 0 0.1 0.1 0.2l7.6 5.5q0 0 0.1 0.1 0 0 0 0.1 0 0 0 0.1 0 0 0 0l-2.9 9q0 0.1 0 0.2 0 0.1 0.1 0.1 0.1 0.1 0.2 0.1 0.1 0 0.2 0l7.6-5.6q0 0 0.1 0 0 0 0.1 0 0 0 0.1 0 0 0 0.1 0l7.6 5.6q0 0 0.1 0 0.1 0 0.2 0 0.1-0.1 0.1-0.2 0.1-0.1 0.1-0.2l-2.9-8.9q-0.1-0.1-0.1-0.1 0-0.1 0.1-0.1 0-0.1 0-0.1 0-0.1 0.1-0.1l7.6-5.5q0.1-0.1 0.1-0.1 0-0.1 0-0.2 0-0.1-0.1-0.2-0.1-0.1-0.2-0.1zm-114 0.1q-0.1 0-0.2 0-0.1-0.1-0.2-0.1 0-0.1-0.1-0.1 0-0.1-0.1-0.2l-2.6-8.5q0-0.1-0.2-0.2-0.1-0.1-0.3-0.1-0.1 0-0.3 0.1-0.1 0.1-0.2 0.2l-2.6 8.5q0 0.1-0.1 0.1 0 0.1-0.1 0.2-0.1 0-0.2 0-0.1 0.1-0.1 0.1l-8.9-0.2q-0.2 0-0.3 0.1-0.2 0.1-0.2 0.3-0.1 0.2 0 0.3 0 0.2 0.2 0.3l7.2 5.1q0.1 0.1 0.1 0.1 0.1 0.1 0.1 0.2 0 0.1 0 0.2 0 0 0 0.1l-2.8 8.4q-0.1 0.2-0.1 0.3 0.1 0.2 0.2 0.3 0.2 0.1 0.4 0.1 0.1 0 0.3-0.1l7.1-5.3q0 0 0.1-0.1 0.1 0 0.2 0 0.1 0 0.2 0 0 0.1 0.1 0.1l7.1 5.3q0.1 0.1 0.3 0.1 0.2 0 0.3-0.1 0.2-0.1 0.2-0.2 0.1-0.2 0-0.4l-2.8-8.4q0 0 0-0.1 0-0.1 0-0.2 0-0.1 0.1-0.1 0-0.1 0.1-0.2l7.2-5.1q0.2-0.1 0.2-0.2 0.1-0.2 0-0.4 0-0.1-0.2-0.2-0.1-0.1-0.3-0.1zm57.1 0q-0.1 0-0.2 0-0.1-0.1-0.1-0.1-0.1-0.1-0.2-0.1 0-0.1 0-0.2l-2.7-8.5q0-0.2-0.2-0.3-0.1-0.1-0.3-0.1-0.1 0-0.3 0.1-0.1 0.1-0.2 0.3l-2.6 8.5q0 0.1-0.1 0.2 0 0-0.1 0.1 0 0-0.1 0.1-0.1 0-0.2 0l-8.9-0.1q-0.2 0-0.3 0.1-0.2 0.1-0.2 0.2-0.1 0.2 0 0.4 0 0.1 0.2 0.2l7.3 5.1q0 0.1 0.1 0.2 0.1 0 0.1 0.1 0 0.1 0 0.2 0 0.1 0 0.1l-2.9 8.5q0 0.2 0 0.3 0.1 0.2 0.2 0.3 0.1 0.1 0.3 0.1 0.2 0 0.3-0.1l7.2-5.4q0 0 0.1-0.1 0.1 0 0.2 0 0 0 0.1 0 0.1 0.1 0.2 0.1l7.1 5.3q0.2 0.2 0.3 0.2 0.2 0 0.3-0.1 0.2-0.2 0.2-0.3 0.1-0.2 0-0.3l-2.9-8.5q0-0.1 0-0.1 0-0.1 0-0.2 0-0.1 0.1-0.2 0.1 0 0.1-0.1l7.3-5.1q0.1-0.1 0.2-0.3 0-0.1 0-0.3-0.1-0.2-0.2-0.3-0.1-0.1-0.3-0.1zm114.2 0.1q-0.1 0-0.2-0.1-0.1 0-0.1 0-0.1-0.1-0.1-0.2-0.1 0-0.1-0.1l-2.6-8.6q-0.1-0.2-0.2-0.3-0.2 0-0.3-0.1-0.2 0.1-0.4 0.1-0.1 0.1-0.1 0.3l-2.6 8.6q-0.1 0.1-0.1 0.2-0.1 0-0.1 0.1-0.1 0-0.2 0.1-0.1 0-0.1 0l-9-0.2q-0.2 0-0.3 0.1-0.2 0.1-0.2 0.3-0.1 0.1 0 0.3 0 0.2 0.2 0.3l7.3 5.1q0.1 0 0.2 0.1 0 0.1 0 0.2 0.1 0 0.1 0.1 0 0.1-0.1 0.2l-2.9 8.5q0 0.2 0 0.3 0.1 0.2 0.2 0.3 0.1 0.1 0.3 0.1 0.2 0 0.3-0.1l7.2-5.5q0 0 0.1 0 0.1-0.1 0.2-0.1 0.1 0 0.2 0.1 0 0 0.1 0l7.2 5.4q0.1 0.2 0.3 0.2 0.2 0 0.3-0.1 0.1-0.2 0.2-0.3 0-0.2 0-0.3l-3-8.5q0-0.1 0-0.2 0-0.1 0-0.2 0.1 0 0.1-0.1 0.1-0.1 0.1-0.1l7.4-5.2q0.1-0.1 0.2-0.2 0-0.2 0-0.4-0.1-0.1-0.2-0.2-0.2-0.1-0.3-0.1zm-141.5 28.3q0 0-0.1 0-0.1 0-0.1-0.1-0.1 0-0.1-0.1-0.1 0-0.1-0.1l-2.8-8.6q0-0.2-0.1-0.2-0.2-0.1-0.3-0.1-0.2 0-0.3 0.1-0.1 0-0.1 0.2l-2.8 8.6q0 0.1 0 0.1-0.1 0.1-0.1 0.1-0.1 0.1-0.2 0.1 0 0-0.1 0h-9q-0.2 0-0.3 0.1-0.1 0.1-0.2 0.2 0 0.1 0 0.3 0.1 0.1 0.2 0.2l7.3 5.3q0.1 0 0.1 0.1 0.1 0 0.1 0.1 0 0.1 0 0.1 0 0.1 0 0.2l-2.8 8.6q-0.1 0.1 0 0.3 0 0.1 0.2 0.2 0.1 0.1 0.2 0.1 0.2 0 0.3-0.1l7.3-5.4q0 0 0.1-0.1 0.1 0 0.1 0 0.1 0 0.2 0 0 0.1 0.1 0.1l7.3 5.4q0.1 0 0.3 0.1 0.1 0 0.2-0.1 0.2-0.1 0.2-0.3 0-0.1 0-0.3l-2.9-8.5q0-0.1 0-0.2 0 0 0-0.1 0.1-0.1 0.1-0.1 0-0.1 0.1-0.2l7.3-5.2q0.2-0.1 0.2-0.3 0.1-0.1 0-0.3 0-0.1-0.2-0.2-0.1-0.1-0.2-0.1zm114.2 0q-0.1 0-0.2 0 0 0-0.1-0.1-0.1 0-0.1-0.1 0 0-0.1-0.1l-2.7-8.6q0-0.2-0.2-0.3-0.1 0-0.2 0-0.2 0-0.3 0-0.1 0.1-0.2 0.3l-2.7 8.6q0 0.1-0.1 0.1 0 0.1-0.1 0.1 0 0.1-0.1 0.1-0.1 0-0.1 0h-9.1q-0.2 0-0.3 0.1-0.1 0-0.1 0.2-0.1 0.1 0 0.3 0 0.1 0.1 0.2l7.4 5.3q0.1 0 0.1 0.1 0 0 0.1 0.1 0 0.1 0 0.1 0 0.1 0 0.2l-2.9 8.6q0 0.1 0 0.3 0.1 0.1 0.2 0.2 0.1 0.1 0.2 0.1 0.2 0 0.3-0.1l7.3-5.4q0.1 0 0.1-0.1 0.1 0 0.2 0 0 0 0.1 0 0.1 0.1 0.1 0.1l7.3 5.4q0.2 0.1 0.3 0.1 0.2 0 0.3-0.1 0.1-0.1 0.1-0.2 0.1-0.2 0-0.3l-2.8-8.6q-0.1-0.1-0.1-0.2 0 0 0.1-0.1 0-0.1 0-0.1 0.1-0.1 0.1-0.1l7.4-5.3q0.1-0.1 0.2-0.2 0-0.2 0-0.3-0.1-0.2-0.2-0.2-0.1-0.1-0.2-0.1zm-228.4 0q-0.1 0-0.2 0-0.1 0-0.1-0.1-0.1 0-0.1-0.1-0.1-0.1-0.1-0.2l-2.6-8.4q-0.1-0.2-0.2-0.3-0.2-0.1-0.3-0.1-0.2 0-0.4 0.1-0.1 0.1-0.1 0.3l-2.7 8.4q0 0.1-0.1 0.2 0 0.1-0.1 0.1 0 0.1-0.1 0.1-0.1 0-0.2 0l-8.9-0.1q-0.1 0-0.3 0.1-0.1 0.1-0.2 0.3 0 0.1 0 0.3 0.1 0.2 0.2 0.3l7.3 5.1q0 0 0.1 0.1 0 0.1 0.1 0.1 0 0.1 0 0.2 0 0.1 0 0.2l-2.9 8.4q0 0.1 0 0.3 0.1 0.2 0.2 0.3 0.1 0.1 0.3 0.1 0.2 0 0.3-0.1l7.1-5.3q0.1-0.1 0.2-0.1 0.1 0 0.2 0 0 0 0.1 0 0.1 0 0.2 0.1l7.1 5.3q0.1 0.1 0.3 0.1 0.2 0 0.3-0.1 0.1-0.1 0.2-0.3 0-0.2 0-0.3l-2.9-8.4q0-0.1 0-0.2 0-0.1 0-0.2 0.1 0 0.1-0.1 0.1-0.1 0.1-0.1l7.3-5.1q0.1-0.1 0.2-0.3 0-0.2 0-0.3-0.1-0.2-0.2-0.3-0.2-0.1-0.3-0.1zm57 0q-0.1 0-0.1 0-0.1-0.1-0.2-0.1 0-0.1-0.1-0.1 0-0.1 0-0.1l-2.7-8.7q-0.1-0.2-0.2-0.2-0.1-0.1-0.3-0.1-0.1 0-0.3 0.1-0.1 0-0.1 0.2l-2.7 8.7q-0.1 0-0.1 0.1 0 0-0.1 0.1-0.1 0-0.1 0.1-0.1 0-0.2 0l-9.1-0.1q-0.1 0-0.2 0.1-0.2 0.1-0.2 0.2 0 0.1 0 0.3 0 0.1 0.2 0.2l7.4 5.3q0 0 0.1 0.1 0 0.1 0 0.1 0.1 0.1 0.1 0.2 0 0-0.1 0.1l-2.9 8.6q0 0.2 0 0.3 0.1 0.2 0.2 0.2 0.1 0.1 0.3 0.1 0.1 0 0.3-0.1l7.3-5.4q0 0 0.1 0 0-0.1 0.1-0.1 0.1 0 0.2 0.1 0 0 0.1 0l7.3 5.4q0.1 0.1 0.3 0.1 0.1 0 0.2-0.1 0.2 0 0.2-0.2 0-0.1 0-0.3l-2.9-8.6q0-0.1 0-0.1 0-0.1 0-0.2 0 0 0.1-0.1 0-0.1 0.1-0.1l7.4-5.3q0.1-0.1 0.1-0.2 0.1-0.2 0-0.3 0-0.1-0.1-0.2-0.1-0.1-0.3-0.1zm114.3 0q-0.1 0-0.2 0-0.1 0-0.1-0.1-0.1 0-0.2-0.1 0-0.1 0-0.2l-2.7-8.4q0-0.1-0.2-0.2-0.1-0.1-0.3-0.1-0.2 0-0.3 0.1-0.1 0.1-0.2 0.2l-2.6 8.4q-0.1 0.1-0.1 0.2-0.1 0.1-0.1 0.1-0.1 0.1-0.2 0.1-0.1 0-0.1 0l-8.9-0.1q-0.1 0-0.3 0.1-0.1 0.1-0.2 0.3 0 0.2 0 0.3 0.1 0.2 0.2 0.3l7.2 5.1q0.1 0 0.1 0.1 0.1 0.1 0.1 0.2 0 0 0 0.1 0 0.1 0 0.2l-2.8 8.4q-0.1 0.1 0 0.3 0.1 0.2 0.2 0.3 0.1 0.1 0.3 0 0.2 0 0.3-0.1l7.1-5.2q0.1 0 0.1-0.1 0.1 0 0.2 0 0.1 0 0.2 0 0.1 0.1 0.1 0.1l7.1 5.2q0.1 0.1 0.3 0.1 0.2 0.1 0.3 0 0.2-0.1 0.2-0.3 0.1-0.2 0-0.3l-2.8-8.4q0-0.1 0-0.2 0-0.1 0-0.1 0-0.1 0.1-0.2 0-0.1 0.1-0.1l7.2-5.1q0.1-0.1 0.2-0.3 0-0.1 0-0.3-0.1-0.2-0.2-0.3-0.1-0.1-0.3-0.1zm-201.2 24.6q-0.1 0-0.2-0.1 0 0-0.1 0-0.1-0.1-0.1-0.2-0.1 0-0.1-0.1l-2.6-8.5q0-0.2-0.2-0.3-0.1-0.1-0.3-0.1-0.2 0-0.3 0.1-0.2 0.1-0.2 0.3l-2.6 8.5q0 0-0.1 0.1 0 0.1-0.1 0.1-0.1 0.1-0.2 0.1-0.1 0.1-0.1 0l-8.9-0.2q-0.2 0-0.4 0.1-0.1 0.1-0.2 0.3 0 0.2 0 0.4 0.1 0.1 0.2 0.2l7.3 5.1q0.1 0.1 0.2 0.2 0 0 0 0.1 0.1 0.1 0.1 0.2 0 0.1-0.1 0.2l-2.9 8.4q-0.1 0.1 0 0.3 0 0.2 0.2 0.3 0.1 0.1 0.3 0.1 0.2 0 0.3-0.1l7.1-5.4q0.1 0 0.2-0.1 0.1 0 0.2 0 0.1 0 0.1 0 0.1 0.1 0.2 0.1l7.1 5.4q0.1 0.1 0.3 0.1 0.2 0 0.3-0.1 0.2-0.1 0.2-0.3 0.1-0.1 0-0.3l-2.9-8.4q0-0.1 0-0.2 0-0.1 0-0.2 0-0.1 0.1-0.1 0-0.1 0.1-0.2l7.3-5q0.2-0.1 0.2-0.3 0.1-0.2 0-0.3 0-0.2-0.2-0.3-0.1-0.1-0.3-0.1zm57.1-0.1q-0.1 0-0.2 0 0 0-0.1-0.1-0.1 0-0.1-0.1-0.1-0.1-0.1-0.2l-2.6-8.4q-0.1-0.2-0.2-0.3-0.1-0.1-0.3-0.1-0.2 0-0.3 0.1-0.2 0.1-0.2 0.3l-2.6 8.4q-0.1 0.1-0.1 0.2-0.1 0.1-0.1 0.1-0.1 0.1-0.2 0.1-0.1 0-0.2 0l-8.8-0.1q-0.2 0-0.4 0.1-0.1 0.1-0.2 0.3 0 0.1 0.1 0.3 0 0.2 0.2 0.3l7.2 5.1q0.1 0 0.1 0.1 0.1 0.1 0.1 0.1 0 0.1 0 0.2 0 0.1 0 0.2l-2.9 8.4q0 0.1 0 0.3 0.1 0.2 0.2 0.3 0.2 0.1 0.3 0.1 0.2 0 0.4-0.1l7.1-5.4q0 0 0.1 0 0.1-0.1 0.2-0.1 0.1 0 0.1 0.1 0.1 0 0.2 0l7.1 5.4q0.1 0.1 0.3 0.1 0.2 0 0.3-0.1 0.2-0.1 0.2-0.3 0.1-0.2 0-0.3l-2.8-8.4q-0.1-0.1-0.1-0.2 0-0.1 0-0.2 0.1 0 0.1-0.1 0.1-0.1 0.2-0.1l7.2-5.1q0.2-0.1 0.2-0.3 0.1-0.2 0-0.3 0-0.2-0.2-0.3-0.1-0.1-0.3-0.1zm57.1 0q-0.1 0-0.2-0.1-0.1 0-0.1 0-0.1-0.1-0.1-0.1-0.1-0.1-0.1-0.2l-2.7-8.7q0-0.1-0.2-0.2-0.1-0.1-0.2-0.1-0.2 0-0.3 0.1-0.1 0.1-0.2 0.2l-2.7 8.7q0 0.1-0.1 0.2 0 0-0.1 0.1 0 0-0.1 0-0.1 0.1-0.1 0.1l-9.2-0.2q-0.1 0.1-0.2 0.1-0.2 0.1-0.2 0.3-0.1 0.1 0 0.3 0 0.1 0.2 0.2l7.4 5.3q0.1 0 0.1 0.1 0.1 0 0.1 0.1 0 0.1 0 0.1 0 0.1 0 0.2l-2.9 8.6q-0.1 0.2-0.1 0.3 0.1 0.2 0.2 0.3 0.1 0 0.3 0 0.2 0 0.3-0.1l7.3-5.4q0-0.1 0.1-0.1 0.1 0 0.2 0 0 0 0.1 0 0.1 0 0.1 0.1l7.3 5.4q0.2 0.1 0.3 0.1 0.2 0 0.3 0 0.1-0.1 0.2-0.3 0-0.1 0-0.3l-3-8.6q0-0.1 0-0.2 0 0 0-0.1 0.1-0.1 0.1-0.1 0-0.1 0.1-0.1l7.5-5.3q0.1-0.1 0.1-0.2 0.1-0.2 0-0.3 0-0.2-0.1-0.3-0.2 0-0.3-0.1zm57.2 0.1q-0.1 0-0.2-0.1-0.1 0-0.2 0-0.1-0.1-0.2-0.2 0-0.1 0-0.2l-2.6-8.3q0-0.1-0.2-0.3-0.2-0.1-0.4-0.1-0.2 0-0.3 0.1-0.2 0.2-0.2 0.3l-2.5 8.3q-0.1 0.1-0.1 0.2-0.1 0.1-0.2 0.2-0.1 0-0.2 0.1-0.1 0-0.1 0l-8.7-0.2q-0.2 0-0.4 0.1-0.1 0.2-0.2 0.4-0.1 0.1 0 0.3 0.1 0.2 0.2 0.3l7.1 5q0.1 0 0.2 0.1 0 0.1 0.1 0.2 0 0.1 0 0.2 0 0.1 0 0.2l-2.8 8.2q-0.1 0.2-0.1 0.4 0.1 0.2 0.3 0.3 0.1 0.1 0.3 0.1 0.2 0 0.4-0.1l6.9-5.3q0.1 0 0.2-0.1 0.1 0 0.2 0 0.1 0 0.2 0 0.1 0.1 0.1 0.1l7 5.2q0.1 0.2 0.3 0.2 0.2 0 0.4-0.2 0.1-0.1 0.2-0.3 0.1-0.2 0-0.4l-2.8-8.1q-0.1-0.1-0.1-0.2 0-0.1 0-0.2 0.1-0.1 0.1-0.2 0.1-0.1 0.2-0.1l7.1-5q0.1-0.1 0.2-0.3 0.1-0.2 0-0.4-0.1-0.2-0.2-0.3-0.2-0.1-0.4-0.1zm57.1 0q-0.1 0-0.2 0 0-0.1-0.1-0.1-0.1-0.1-0.1-0.1-0.1-0.1-0.1-0.2l-2.6-8.5q-0.1-0.1-0.2-0.2-0.2-0.2-0.3-0.2-0.2 0-0.4 0.2-0.1 0.1-0.1 0.2l-2.7 8.5q0 0.1 0 0.2-0.1 0-0.2 0.1 0 0-0.1 0.1-0.1 0-0.2 0l-8.8-0.2q-0.2 0-0.4 0.1-0.1 0.1-0.2 0.3 0 0.2 0 0.3 0.1 0.2 0.2 0.3l7.3 5.1q0.1 0.1 0.1 0.1 0.1 0.1 0.1 0.2 0 0.1 0 0.2 0 0 0 0.1l-2.9 8.4q0 0.2 0 0.4 0.1 0.1 0.2 0.2 0.1 0.1 0.3 0.1 0.2 0 0.3-0.1l7.1-5.3q0.1 0 0.2-0.1 0.1 0 0.2 0 0 0 0.1 0 0.1 0.1 0.2 0.1l7.1 5.3q0.1 0.1 0.3 0.1 0.2 0 0.3-0.1 0.2-0.1 0.2-0.2 0.1-0.2 0-0.4l-2.9-8.4q0-0.1 0-0.1 0-0.1 0-0.2 0.1-0.1 0.1-0.2 0.1 0 0.1-0.1l7.3-5.1q0.1-0.1 0.2-0.3 0-0.1 0-0.3-0.1-0.2-0.2-0.3-0.2-0.1-0.3-0.1zm57.1 0.1q-0.1 0-0.2-0.1-0.1 0-0.2 0-0.1-0.1-0.1-0.2-0.1-0.1-0.1-0.2l-2.5-8.3q-0.1-0.2-0.2-0.3-0.2-0.1-0.4-0.1-0.2 0-0.4 0.1-0.1 0.1-0.2 0.3l-2.5 8.3q0 0.1-0.1 0.2 0 0.1-0.1 0.2-0.1 0-0.2 0-0.1 0.1-0.2 0.1l-8.7-0.2q-0.2 0-0.4 0.1-0.1 0.1-0.2 0.3 0 0.2 0 0.4 0.1 0.2 0.3 0.3l7.1 5q0.1 0 0.1 0.1 0.1 0.1 0.1 0.2 0 0.1 0 0.2 0 0.1 0 0.2l-2.8 8.2q-0.1 0.2 0 0.4 0 0.2 0.2 0.3 0.1 0.1 0.3 0.1 0.2 0 0.4-0.1l6.9-5.3q0.1 0 0.2-0.1 0.1 0 0.2 0 0.1 0 0.2 0 0.1 0.1 0.2 0.1l6.9 5.3q0.2 0.1 0.4 0.1 0.2 0 0.3-0.1 0.2-0.1 0.2-0.3 0.1-0.2 0-0.4l-2.8-8.2q0-0.1 0-0.2 0-0.1 0-0.2 0-0.1 0.1-0.2 0-0.1 0.1-0.1l7.2-5q0.1-0.1 0.2-0.3 0-0.2 0-0.4-0.1-0.2-0.2-0.3-0.2-0.1-0.4-0.1z"/>
	<path id="Layer" class="s8" d="m210.3 37.3h9q0.2 0 0.3 0 0.1 0.1 0.1 0.3 0.1 0.1 0 0.2 0 0.2-0.1 0.3l-7.3 5.2q-0.1 0.1-0.1 0.1-0.1 0.1-0.1 0.2 0 0 0 0.1 0 0.1 0 0.1l2.9 8.6q0 0.1 0 0.3-0.1 0.1-0.2 0.2-0.1 0.1-0.2 0.1-0.2 0-0.3-0.1l-7.3-5.3q0-0.1-0.1-0.1-0.1 0-0.2 0 0 0-0.1 0-0.1 0-0.1 0.1l-7.3 5.4q-0.1 0-0.2 0.1-0.2 0-0.3-0.1-0.1-0.1-0.2-0.3 0-0.1 0-0.2l2.8-8.6q0.1-0.1 0.1-0.2 0 0-0.1-0.1 0-0.1 0-0.1-0.1-0.1-0.1-0.1l-7.4-5.2q-0.1-0.1-0.1-0.3-0.1-0.1 0-0.3 0-0.1 0.1-0.2 0.1-0.1 0.3-0.1l9 0.1q0.1 0 0.1-0.1 0.1 0 0.2 0 0-0.1 0.1-0.1 0-0.1 0-0.2l2.7-8.6q0.1-0.1 0.2-0.2 0.1-0.1 0.3-0.1 0.1 0 0.2 0.1 0.2 0.1 0.2 0.2l2.8 8.6q0 0.1 0 0.1 0.1 0.1 0.1 0.2 0.1 0 0.2 0 0 0 0.1 0z"/>
	<path id="Layer" class="s8" d="m267.4 37.3h9.1q0.1 0 0.2 0.1 0.1 0.1 0.2 0.2 0 0.1 0 0.2-0.1 0.1-0.2 0.2l-7.3 5.4q-0.1 0-0.1 0.1 0 0-0.1 0.1 0 0 0 0.1 0 0.1 0.1 0.1l2.7 8.7q0.1 0.1 0 0.2 0 0.1-0.1 0.2-0.1 0.1-0.2 0.1-0.2 0-0.2-0.1l-7.4-5.3q-0.1 0-0.2-0.1 0 0-0.1 0 0 0-0.1 0 0 0.1-0.1 0.1l-7.4 5.3q-0.1 0.1-0.2 0.1-0.1 0-0.2-0.1-0.1-0.1-0.2-0.2 0-0.1 0-0.2l2.8-8.7q0 0 0-0.1 0-0.1 0-0.1 0-0.1 0-0.1-0.1-0.1-0.1-0.1l-7.4-5.4q-0.1-0.1-0.1-0.2 0-0.1 0-0.2 0-0.1 0.1-0.2 0.1-0.1 0.3-0.1h9.1q0 0 0.1 0 0-0.1 0.1-0.1 0 0 0.1-0.1 0 0 0-0.1l2.9-8.6q0-0.1 0.1-0.2 0.1-0.1 0.2-0.1 0.1 0 0.2 0.1 0.1 0.1 0.2 0.2l2.8 8.6q0.1 0.1 0.1 0.1 0 0.1 0.1 0.1 0 0 0.1 0.1 0 0 0.1 0z"/>
	<path id="Layer" class="s8" d="m321.6 29.3l2.3 7.3q0 0.2 0.1 0.3 0.1 0.2 0.3 0.3 0.1 0.1 0.3 0.1 0.2 0.1 0.4 0.1l8.7-0.1q0.1 0 0.1 0 0.1 0 0.2 0.1 0 0 0.1 0.1 0 0.1 0 0.1 0.1 0.5-0.3 0.7-3.8 2-7.1 5.2-0.1 0-0.1 0.1 0 0-0.1 0.1 0 0.1 0 0.1 0 0.1 0 0.2l2.7 8.3q0.5 1.4-0.8 0.5l-7-5.1q-0.5-0.4-1 0l-7.5 5.4q-0.8 0.6-0.5-0.3l2.9-8.7q0.1-0.4-0.2-0.8-3.4-3-7.1-5.2 0 0-0.1 0 0-0.1-0.1-0.1 0-0.1 0-0.1 0-0.1 0-0.1-0.1-0.4 0.3-0.6 0.1 0 0.2 0 4.2 0.3 8.7 0.2 0.1 0 0.3-0.1 0.1 0 0.2-0.1 0.1-0.1 0.2-0.2 0.1-0.1 0.2-0.3l2.4-7.8q0.6-0.6 1.3 0.4z"/>
	<path id="Layer" class="s8" d="m157.6 41.6l-2 1.9q-0.3 0.4-0.2 0.9l2.3 7.9q0.4 1.3-0.7 0.5l-6.3-4.8q-0.3-0.2-0.5-0.3-0.3-0.1-0.6-0.1-0.3 0-0.5 0.1-0.3 0.1-0.5 0.3l-6.2 4.7q-0.2 0.1-0.3 0.1-0.1 0-0.3-0.1-0.1 0-0.2-0.1-0.1-0.2-0.1-0.3 0-0.9 0.6-1.9c0.2-0.9 0.6-1.8 1.5-2.3q6.6-4 14-6.5z"/>
	<path id="Layer" class="s9" d="m381.5 55.9l-22.2 0.1-0.1-11.5 0.5-0.4q0.4-0.3 0.9-0.1z"/>
	<path id="Layer" class="s8" d="m359.3 56l22.2-0.1q24.2 14.8 44.1 35.8h-66.4z"/>
	<path id="Layer" class="s8" d="m183.1 65.8l8.9-0.2q0.2 0 0.3 0.1 0.2 0.1 0.2 0.3 0.1 0.2 0 0.3 0 0.2-0.2 0.3l-7.2 5.1q-0.1 0.1-0.2 0.1 0 0.1 0 0.2-0.1 0.1-0.1 0.2 0 0 0.1 0.1l2.8 8.4q0.1 0.2 0 0.4 0 0.1-0.2 0.2-0.1 0.1-0.3 0.1-0.1 0-0.3-0.1l-7.1-5.3q-0.1 0-0.2-0.1 0 0-0.1 0-0.1 0-0.2 0-0.1 0.1-0.1 0.1l-7.2 5.3q-0.1 0.1-0.3 0.1-0.1 0-0.3-0.1-0.1-0.1-0.2-0.2 0-0.2 0-0.4l2.9-8.4q0-0.1 0-0.1 0-0.1 0-0.2 0-0.1-0.1-0.2 0 0-0.1-0.1l-7.3-5.1q-0.1-0.1-0.2-0.3 0-0.1 0-0.3 0.1-0.2 0.2-0.3 0.2-0.1 0.3-0.1l8.9 0.2q0.1 0 0.2-0.1 0.1 0 0.1 0 0.1-0.1 0.2-0.2 0 0 0-0.1l2.7-8.5q0-0.2 0.2-0.3 0.1-0.1 0.3-0.1 0.2 0 0.3 0.1 0.1 0.1 0.2 0.3l2.6 8.5q0 0.1 0.1 0.1 0 0.1 0.1 0.2 0.1 0 0.2 0 0 0.1 0.1 0.1z"/>
	<path id="Layer" class="s8" d="m240.3 65.7l8.8-0.1q0.2 0 0.3 0.1 0.2 0.1 0.2 0.3 0.1 0.2 0 0.3 0 0.2-0.2 0.3l-7.2 5.1q-0.1 0.1-0.1 0.1-0.1 0.1-0.1 0.2 0 0.1 0 0.1 0 0.1 0 0.2l2.8 8.4q0.1 0.2 0 0.3 0 0.2-0.2 0.3-0.1 0.1-0.3 0.1-0.1 0-0.3-0.1l-7.1-5.3q-0.1 0-0.1-0.1-0.1 0-0.2 0-0.1 0-0.2 0 0 0.1-0.1 0.1l-7.1 5.3q-0.2 0.1-0.3 0.1-0.2 0-0.3-0.1-0.2-0.1-0.2-0.3-0.1-0.1 0-0.3l2.8-8.4q0-0.1 0-0.2 0 0 0-0.1 0-0.1-0.1-0.2 0 0-0.1-0.1l-7.2-5.1q-0.2-0.1-0.2-0.3-0.1-0.1 0-0.3 0-0.2 0.2-0.3 0.1-0.1 0.3-0.1l8.8 0.1q0.1 0 0.2 0 0.1 0 0.2-0.1 0 0 0.1-0.1 0-0.1 0-0.2l2.7-8.4q0-0.2 0.2-0.3 0.1-0.1 0.3-0.1 0.2 0 0.3 0.1 0.2 0.1 0.2 0.3l2.6 8.4q0.1 0.1 0.1 0.2 0.1 0.1 0.1 0.1 0.1 0.1 0.2 0.1 0.1 0 0.1 0z"/>
	<path id="Layer" class="s8" d="m297.4 65.8l8.7-0.2q0.2 0 0.4 0.1 0.1 0.1 0.2 0.3 0.1 0.2 0 0.4-0.1 0.2-0.2 0.3l-7.2 5q-0.1 0-0.1 0.1-0.1 0.1-0.1 0.2 0 0.1 0 0.2 0 0.1 0 0.2l2.9 8.2q0 0.2 0 0.4-0.1 0.2-0.3 0.3-0.1 0.1-0.3 0.1-0.2 0-0.4-0.1l-6.9-5.3q-0.1 0-0.2-0.1-0.1 0-0.2 0-0.1 0-0.2 0-0.1 0.1-0.2 0.1l-6.9 5.3q-0.1 0.1-0.3 0.1-0.3 0-0.4-0.1-0.2-0.1-0.2-0.3-0.1-0.2 0-0.4l2.8-8.2q0.1-0.1 0.1-0.2 0-0.1-0.1-0.2 0-0.1-0.1-0.2 0-0.1-0.1-0.1l-7.1-5q-0.2-0.1-0.3-0.3 0-0.2 0-0.4 0.1-0.2 0.2-0.3 0.2-0.1 0.4-0.1l8.7 0.2q0.1 0 0.2 0 0.1-0.1 0.2-0.1 0.1-0.1 0.1-0.2 0.1-0.1 0.1-0.2l2.5-8.3q0.1-0.2 0.2-0.3 0.2-0.1 0.4-0.1 0.2 0 0.4 0.1 0.1 0.1 0.2 0.3l2.5 8.3q0 0.1 0.1 0.2 0.1 0.1 0.1 0.2 0.1 0 0.2 0.1 0.1 0 0.2 0z"/>
	<path id="Layer" class="s8" d="m124 60.1q0.8 1.8 0.8 3.3 0.1 0.4 0.3 0.8 0.1 0.5 0.5 0.8 0.3 0.3 0.7 0.4 0.4 0.2 0.9 0.2l7.2-0.1q2 0 0.4 1.2l-6.3 4.7q-0.2 0.1-0.3 0.2 0 0.2-0.1 0.3-0.1 0.2-0.1 0.3 0 0.2 0.1 0.4l2.5 8q0.4 1.5-0.8 0.6l-6.9-5.2q-0.1-0.1-0.3-0.1-0.1-0.1-0.2-0.1-0.2 0-0.3 0.1-0.1 0-0.3 0.1l-6.9 5.2q-1.2 1-0.8-0.5l2.7-8.2q0-0.1 0-0.3 0-0.2-0.1-0.4 0-0.1-0.1-0.3-0.1-0.1-0.3-0.2l-4.1-2.6q2.7-3 6.3-3.1 0.2 0 0.3 0 0.2-0.1 0.3-0.2 0.1-0.1 0.2-0.2 0.1-0.2 0.1-0.3 0.8-3.1 4.6-4.8z"/>
	<path id="Layer" class="s8" d="m153.3 90.1h9q0.1 0 0.2 0.1 0.2 0.1 0.2 0.2 0.1 0.1 0 0.3 0 0.1-0.2 0.2l-7.3 5.3q0 0-0.1 0.1 0 0 0 0.1-0.1 0.1-0.1 0.2 0 0 0.1 0.1l2.8 8.6q0 0.1 0 0.2-0.1 0.2-0.2 0.3-0.1 0-0.3 0-0.1 0-0.2 0l-7.3-5.4q0 0-0.1 0-0.1-0.1-0.2-0.1 0 0-0.1 0.1-0.1 0-0.1 0l-7.3 5.4q-0.1 0-0.2 0-0.2 0-0.3 0-0.1-0.1-0.2-0.3 0-0.1 0-0.3l2.8-8.5q0.1-0.1 0.1-0.1 0-0.1-0.1-0.2 0-0.1 0-0.1-0.1-0.1-0.1-0.1l-7.4-5.3q-0.1-0.1-0.1-0.2-0.1-0.2 0-0.3 0-0.1 0.2-0.2 0.1-0.1 0.2-0.1h9q0.1 0 0.2 0 0 0 0.1-0.1 0.1 0 0.1-0.1 0 0 0.1-0.1l2.7-8.6q0.1-0.1 0.2-0.2 0.1-0.1 0.2-0.1 0.2 0 0.3 0.1 0.1 0.1 0.2 0.2l2.7 8.6q0.1 0.1 0.1 0.1 0 0.1 0.1 0.1 0.1 0.1 0.1 0.1 0.1 0 0.2 0z"/>
	<path id="Layer" class="s8" d="m210.4 90.2l8.8-0.2q0.2 0 0.3 0.2 0.2 0.1 0.2 0.2 0.1 0.2 0 0.4 0 0.1-0.2 0.2l-7.2 5.2q0 0-0.1 0.1 0 0-0.1 0.1 0 0.1 0 0.2 0 0.1 0 0.2l2.9 8.3q0 0.2 0 0.3-0.1 0.2-0.2 0.3-0.2 0.1-0.3 0.1-0.2 0-0.4-0.1l-7-5.2q-0.1-0.1-0.2-0.1-0.1 0-0.2 0-0.1 0-0.1 0-0.1 0-0.2 0.1l-7.1 5.2q-0.1 0.2-0.3 0.2-0.2 0-0.3-0.1-0.2-0.1-0.2-0.3-0.1-0.2 0-0.4l2.8-8.3q0-0.1 0-0.2 0-0.1 0-0.2 0 0-0.1-0.1 0-0.1-0.1-0.1l-7.2-5.1q-0.1-0.1-0.2-0.3-0.1-0.2 0-0.3 0.1-0.2 0.2-0.3 0.1-0.1 0.3-0.1l8.8 0.1q0.1 0 0.2-0.1 0.1 0 0.2 0 0-0.1 0.1-0.2 0 0 0.1-0.1l2.6-8.4q0-0.2 0.2-0.3 0.1-0.1 0.3-0.1 0.2 0 0.3 0.1 0.2 0.1 0.2 0.3l2.7 8.4q0 0.1 0 0.1 0.1 0.1 0.2 0.2 0 0 0.1 0 0.1 0.1 0.2 0.1z"/>
	<path id="Layer" class="s8" d="m267.4 90.1h9.2q0.1 0 0.2 0.1 0.1 0 0.2 0.2 0 0.1 0 0.2-0.1 0.1-0.2 0.2l-7.4 5.4q-0.1 0-0.1 0.1 0 0-0.1 0.1 0 0.1 0 0.1 0 0.1 0.1 0.1l2.8 8.8q0 0.1 0 0.2 0 0.1-0.1 0.2-0.1 0.1-0.3 0.1-0.1 0-0.2-0.1l-7.4-5.4q-0.1 0-0.1-0.1-0.1 0-0.2 0 0 0-0.1 0-0.1 0.1-0.1 0.1l-7.4 5.4q-0.1 0.1-0.3 0.1-0.1 0-0.2-0.1-0.1-0.1-0.1-0.2-0.1-0.1 0-0.2l2.8-8.8q0 0 0-0.1 0 0 0-0.1 0-0.1 0-0.1-0.1-0.1-0.1-0.1l-7.5-5.4q-0.1-0.1-0.1-0.2 0-0.1 0-0.2 0-0.2 0.1-0.2 0.1-0.1 0.3-0.1h9.2q0 0 0.1 0 0 0 0.1-0.1 0 0 0.1-0.1 0 0 0-0.1l2.9-8.7q0-0.1 0.1-0.2 0.1-0.1 0.2-0.1 0.2 0 0.3 0.1 0.1 0.1 0.1 0.2l2.8 8.7q0 0.1 0.1 0.1 0 0.1 0.1 0.1 0 0.1 0.1 0.1 0 0 0.1 0z"/>
	<path id="Layer" class="s8" d="m324.6 90.2l8.8-0.1q0.2 0 0.3 0.1 0.1 0.1 0.2 0.2 0 0.2 0 0.4-0.1 0.1-0.2 0.2l-7.2 5.2q0 0-0.1 0.1 0 0-0.1 0.1 0 0.1 0 0.2 0 0.1 0 0.1l2.8 8.4q0.1 0.2 0 0.3 0 0.2-0.2 0.3-0.1 0.1-0.3 0.1-0.2 0-0.3-0.1l-7.1-5.2q0-0.1-0.1-0.1-0.1 0-0.2 0-0.1 0-0.1 0-0.1 0-0.2 0.1l-7.1 5.2q-0.1 0.1-0.3 0.1-0.2 0-0.3-0.1-0.1-0.1-0.2-0.3 0-0.1 0-0.3l2.8-8.4q0 0 0-0.1 0-0.1 0-0.2 0-0.1-0.1-0.1 0-0.1-0.1-0.1l-7.2-5.2q-0.1-0.1-0.2-0.2 0-0.2 0-0.4 0.1-0.1 0.2-0.2 0.2-0.1 0.4-0.1l8.7 0.1q0.1 0 0.2-0.1 0.1 0 0.2-0.1 0 0 0.1-0.1 0 0 0.1-0.1l2.6-8.4q0.1-0.2 0.2-0.3 0.1-0.1 0.3-0.1 0.2 0 0.3 0.1 0.2 0.1 0.2 0.3l2.7 8.4q0 0.1 0.1 0.1 0 0.1 0.1 0.1 0 0.1 0.1 0.1 0.1 0.1 0.2 0.1z"/>
	<path id="Layer" class="s8" d="m93.8 84.3l1.4 4.7q0.1 0.3 0.3 0.5 0.1 0.2 0.3 0.4 0.2 0.1 0.5 0.2 0.2 0.1 0.5 0.1l8-0.2q1.5 0 0.3 0.9l-6.6 5.2q-0.3 0.2-0.2 0.7 1 4.4 2.4 7.7 0.9 2.3-1.1 0.8l-6.6-4.8q-0.5-0.4-1 0l-6.6 4.9q-1.4 1-0.9-0.6l2.3-7.7q0.2-0.5-0.1-0.8-0.7-1.2-2.7-2.1l3.4-3.6q0.3-0.3 0.8-0.4h0.5q0.5-0.1 0.7-0.5 1.4-3 4.4-5.4z"/>
	<path id="Layer" class="s9" d="m425.6 91.7q16.5 16.5 29.1 36.6h-95.5v-36.6z"/>
	<path id="Layer" class="s8" d="m126 119.2l8.9-0.2q0.2 0 0.4 0.1 0.1 0.1 0.2 0.3 0 0.2 0 0.4-0.1 0.1-0.2 0.2l-7.3 5.1q-0.1 0.1-0.2 0.1 0 0.1 0 0.2-0.1 0.1-0.1 0.2 0 0 0.1 0.1l2.9 8.4q0 0.2 0 0.4-0.1 0.2-0.2 0.3-0.2 0.1-0.4 0.1-0.2 0-0.3-0.1l-7.1-5.4q-0.1-0.1-0.1-0.1-0.1 0-0.2 0-0.1 0-0.2 0-0.1 0-0.2 0.1l-7 5.3q-0.2 0.1-0.4 0.1-0.2 0-0.3-0.1-0.1-0.1-0.2-0.2-0.1-0.2 0-0.4l2.9-8.4q0-0.1 0-0.2 0 0 0-0.1 0-0.1-0.1-0.2 0-0.1-0.1-0.1l-7.3-5.1q-0.1-0.1-0.2-0.3 0-0.2 0-0.3 0.1-0.2 0.2-0.3 0.2-0.1 0.4-0.1l8.8 0.2q0.1 0 0.2-0.1 0.1 0 0.2 0 0-0.1 0.1-0.2 0.1 0 0.1-0.1l2.6-8.5q0-0.2 0.2-0.3 0.1-0.1 0.3-0.1 0.2 0 0.3 0.1 0.2 0.1 0.2 0.3l2.6 8.5q0 0.1 0.1 0.1 0 0.1 0.1 0.2 0.1 0 0.2 0 0.1 0.1 0.1 0.1z"/>
	<path id="Layer" class="s8" d="m183.1 119.2l8.9-0.1q0.2 0 0.3 0.1 0.2 0.1 0.2 0.2 0.1 0.2 0 0.4 0 0.1-0.2 0.2l-7.2 5.2q-0.1 0-0.2 0.1 0 0 0 0.1-0.1 0.1-0.1 0.2 0 0.1 0.1 0.2l2.8 8.4q0.1 0.2 0 0.3 0 0.2-0.2 0.3-0.1 0.1-0.3 0.1-0.1 0-0.3-0.1l-7.1-5.4q-0.1 0-0.2 0 0-0.1-0.1-0.1-0.1 0-0.2 0.1-0.1 0-0.1 0l-7.2 5.4q-0.1 0.1-0.3 0.1-0.1 0-0.3-0.1-0.1-0.1-0.2-0.3 0-0.1 0-0.3l2.9-8.4q0-0.1 0-0.2 0-0.1 0-0.2 0-0.1-0.1-0.1 0-0.1-0.1-0.1l-7.3-5.2q-0.1-0.1-0.2-0.2 0-0.2 0-0.4 0.1-0.1 0.2-0.2 0.2-0.1 0.3-0.1l8.9 0.1q0.1 0 0.2 0 0.1 0 0.2-0.1 0 0 0.1-0.1 0-0.1 0-0.2l2.7-8.5q0-0.2 0.2-0.3 0.1-0.1 0.3-0.1 0.2 0 0.3 0.1 0.1 0.1 0.2 0.3l2.6 8.5q0 0.1 0.1 0.2 0 0.1 0.1 0.1 0.1 0.1 0.2 0.1 0 0 0.1 0z"/>
	<path id="Layer" class="s8" d="m240.2 119.2l9.1-0.2q0.1 0 0.3 0.1 0.1 0.1 0.1 0.3 0.1 0.1 0 0.2 0 0.2-0.1 0.3l-7.4 5.3q-0.1 0-0.2 0.1 0 0 0 0.1 0 0.1 0 0.1 0 0.1 0 0.2l2.9 8.6q0 0.1 0 0.3-0.1 0.1-0.2 0.2-0.1 0.1-0.2 0.1-0.2 0-0.3-0.1l-7.3-5.4q-0.1 0-0.2-0.1 0 0-0.1 0-0.1 0-0.1 0-0.1 0.1-0.2 0.1l-7.3 5.4q-0.1 0.1-0.2 0.1-0.2 0-0.3-0.1-0.1 0-0.2-0.2 0-0.1 0-0.3l2.9-8.6q0-0.1 0-0.1 0-0.1 0-0.2 0-0.1-0.1-0.1 0-0.1-0.1-0.1l-7.4-5.3q-0.1-0.1-0.1-0.2-0.1-0.2 0-0.3 0-0.1 0.1-0.2 0.1-0.1 0.3-0.1l9.1 0.1q0.1 0 0.1-0.1 0.1 0 0.2 0 0-0.1 0.1-0.1 0-0.1 0-0.2l2.7-8.6q0.1-0.2 0.2-0.3 0.1-0.1 0.3-0.1 0.1 0 0.2 0.1 0.2 0.1 0.2 0.3l2.7 8.6q0.1 0.1 0.1 0.2 0.1 0 0.1 0.1 0.1 0 0.1 0 0.1 0.1 0.2 0.1z"/>
	<path id="Layer" class="s8" d="m297.3 119.2l9-0.2q0.2 0 0.3 0.1 0.2 0.1 0.2 0.3 0.1 0.2 0 0.3 0 0.2-0.2 0.3l-7.3 5.1q-0.1 0.1-0.2 0.1 0 0.1 0 0.2-0.1 0.1-0.1 0.2 0 0.1 0.1 0.1l2.9 8.5q0.1 0.2 0 0.4 0 0.1-0.2 0.2-0.1 0.1-0.3 0.1-0.2 0-0.3-0.1l-7.2-5.4q0-0.1-0.1-0.1-0.1 0-0.2 0-0.1 0-0.2 0 0 0-0.1 0.1l-7.2 5.4q-0.1 0.1-0.3 0.1-0.2 0-0.3-0.1-0.2-0.1-0.2-0.2-0.1-0.2 0-0.4l3-8.5q0 0 0-0.1 0-0.1 0-0.2-0.1-0.1-0.1-0.2-0.1 0-0.2-0.1l-7.3-5.1q-0.2-0.1-0.2-0.3-0.1-0.1 0-0.3 0-0.2 0.2-0.3 0.1-0.1 0.3-0.1l9 0.2q0.1 0 0.1 0 0.1-0.1 0.2-0.1 0.1-0.1 0.1-0.1 0.1-0.1 0.1-0.2l2.6-8.6q0-0.2 0.2-0.3 0.1-0.1 0.3-0.1 0.2 0 0.3 0.1 0.2 0.1 0.2 0.3l2.6 8.6q0.1 0.1 0.1 0.2 0.1 0 0.1 0.1 0.1 0 0.2 0.1 0.1 0 0.1 0z"/>
	<path id="Layer" class="s8" d="m67.3 114.3q0.4 3 1.4 4.5 0.2 0.4 0.8 0.4l8-0.3q0.2 0 0.3 0.1 0.1 0 0.2 0.1 0.1 0.1 0.1 0.2 0 0.1 0 0.2 0 0.7-0.6 1-3.3 2-6.2 4.3-0.1 0.1-0.1 0.2-0.1 0.1-0.2 0.2 0 0.1 0 0.3 0 0.1 0 0.3l2.4 8q0.5 1.8-1 0.7l-5.9-4.7q-0.3-0.2-0.5-0.2-0.3-0.1-0.6-0.1-0.3-0.1-0.5 0-0.3 0.1-0.5 0.3-3.1 2.2-6.2 4.8-0.1 0.1-0.3 0.1-0.1 0.1-0.3 0.1-0.2 0-0.3 0-0.2-0.1-0.3-0.2-0.2-0.1 0-0.6 1.4-3.2 2.2-6.9 2.2-6.8 8.1-12.8z"/>
	<path id="Layer" class="s8" d="m359.2 128.3h95.5q11.3 17 19.2 36.2l-114.3 0.3z"/>
	<path id="Layer" class="s8" d="m210.3 142.9h9.1q0.1 0 0.3 0.1 0.1 0 0.1 0.2 0.1 0.1 0 0.3 0 0.1-0.2 0.2l-7.3 5.3q-0.1 0-0.1 0.1 0 0-0.1 0.1 0 0.1 0 0.1 0 0.1 0 0.2l2.9 8.6q0.1 0.1 0 0.3 0 0.1-0.1 0.2-0.2 0.1-0.3 0.1-0.2 0-0.3-0.1l-7.3-5.4q0 0-0.1 0-0.1-0.1-0.2-0.1 0 0-0.1 0.1-0.1 0-0.1 0l-7.3 5.4q-0.1 0.1-0.3 0.1-0.1 0-0.2-0.1-0.2-0.1-0.2-0.2-0.1-0.1 0-0.3l2.8-8.6q0.1-0.1 0.1-0.1 0-0.1-0.1-0.2 0-0.1 0-0.1-0.1-0.1-0.1-0.1l-7.4-5.3q-0.1-0.1-0.2-0.2 0-0.1 0-0.3 0.1-0.1 0.2-0.2 0.1-0.1 0.3-0.1l9 0.1q0.1 0 0.2-0.1 0 0 0.1 0 0-0.1 0.1-0.1 0-0.1 0.1-0.1l2.7-8.7q0-0.1 0.1-0.2 0.2-0.1 0.3-0.1 0.2 0 0.3 0.1 0.1 0.1 0.1 0.2l2.8 8.6q0 0.1 0.1 0.2 0 0 0.1 0.1 0 0 0.1 0 0 0.1 0.1 0z"/>
	<path id="Layer" class="s8" d="m267.4 142.9l9.2 0.1q0.1 0 0.2 0 0.1 0.1 0.1 0.2 0.1 0.1 0 0.3 0 0.1-0.1 0.1l-7.4 5.4q-0.1 0.1-0.1 0.1 0 0.1-0.1 0.1 0 0.1 0 0.1 0 0.1 0 0.2l2.8 8.7q0.1 0.1 0 0.2 0 0.1-0.1 0.2-0.1 0.1-0.2 0.1-0.1 0-0.2-0.1l-7.5-5.4q0 0-0.1 0 0-0.1-0.1-0.1 0 0-0.1 0.1-0.1 0-0.1 0l-7.4 5.4q-0.2 0.1-0.3 0.1-0.1 0-0.2-0.1-0.1-0.1-0.1-0.2-0.1-0.1 0-0.2l2.8-8.8q0 0 0-0.1 0 0 0-0.1 0 0 0-0.1-0.1 0-0.1-0.1l-7.4-5.4q-0.1-0.1-0.2-0.2 0-0.1 0-0.2 0.1-0.1 0.2-0.2 0.1-0.1 0.2-0.1h9.2q0 0 0.1 0 0 0 0.1-0.1 0 0 0.1 0 0-0.1 0-0.1l2.9-8.8q0-0.1 0.1-0.1 0.1-0.1 0.2-0.1 0.2 0 0.3 0.1 0.1 0 0.1 0.1l2.8 8.8q0 0 0.1 0.1 0 0 0.1 0.1 0 0 0.1 0 0 0 0.1 0z"/>
	<path id="Layer" class="s8" d="m324.6 143l8.9-0.2q0.2 0 0.4 0.1 0.1 0.1 0.2 0.3 0 0.2 0 0.3-0.1 0.2-0.2 0.3l-7.4 5.2q-0.1 0-0.1 0.1-0.1 0-0.1 0.1 0 0.1 0 0.2 0 0.1 0 0.1l2.9 8.5q0.1 0.2 0 0.4 0 0.1-0.1 0.2-0.2 0.1-0.4 0.1-0.1 0-0.3-0.1l-7.2-5.4q0 0-0.1 0-0.1-0.1-0.2-0.1-0.1 0-0.1 0.1-0.1 0-0.2 0.1l-7.2 5.4q-0.1 0.1-0.3 0.1-0.1 0-0.3-0.1-0.1-0.1-0.2-0.3 0-0.2 0-0.3l2.9-8.5q0.1-0.1 0.1-0.2 0-0.1-0.1-0.2 0 0 0-0.1-0.1-0.1-0.2-0.1l-7.3-5.2q-0.2-0.1-0.2-0.2-0.1-0.2 0-0.4 0-0.1 0.2-0.2 0.1-0.1 0.3-0.1l9 0.1q0.1 0 0.1 0 0.1-0.1 0.2-0.1 0-0.1 0.1-0.1 0-0.1 0.1-0.2l2.6-8.6q0.1-0.1 0.2-0.2 0.1-0.1 0.3-0.1 0.2 0 0.3 0.1 0.1 0.1 0.2 0.2l2.6 8.6q0.1 0.1 0.1 0.2 0.1 0 0.1 0.1 0.1 0 0.2 0.1 0.1 0 0.2 0z"/>
	<path id="Layer" class="s8" d="m96.2 143l9-0.2q0.2 0.1 0.3 0.1 0.1 0.1 0.2 0.3 0 0.1 0 0.3-0.1 0.1-0.2 0.2l-7.4 5.3q0 0-0.1 0.1 0 0-0.1 0.1 0 0.1 0 0.2 0 0 0 0.1l3 8.6q0 0.2 0 0.3-0.1 0.2-0.2 0.2-0.1 0.1-0.3 0.1-0.1 0-0.3-0.1l-7.3-5.4q0 0-0.1 0-0.1-0.1-0.2-0.1 0 0-0.1 0.1-0.1 0-0.1 0l-7.3 5.5q-0.1 0.1-0.3 0.1-0.1 0-0.3-0.1-0.1-0.1-0.1-0.3-0.1-0.1 0-0.3l2.8-8.6q0.1 0 0.1-0.1 0-0.1-0.1-0.2 0 0 0-0.1-0.1-0.1-0.1-0.1l-7.4-5.2q-0.2-0.1-0.2-0.3-0.1-0.1 0-0.3 0-0.1 0.1-0.2 0.2-0.1 0.3-0.1l9.1 0.1q0.1 0 0.2-0.1 0 0 0.1 0 0.1-0.1 0.1-0.1 0-0.1 0.1-0.2l2.7-8.6q0-0.2 0.1-0.3 0.2 0 0.3 0 0.2 0 0.3 0 0.1 0.1 0.2 0.3l2.7 8.6q0 0.1 0.1 0.2 0 0 0.1 0.1 0 0 0.1 0 0.1 0.1 0.2 0.1z"/>
	<path id="Layer" class="s8" d="m153.3 142.9h8.8q0.2 0 0.4 0.1 0.1 0.1 0.1 0.2 0.1 0.2 0 0.4 0 0.1-0.2 0.2l-7.2 5.2q0 0-0.1 0.1 0 0.1 0 0.1-0.1 0.1-0.1 0.2 0 0.1 0.1 0.2l2.8 8.3q0 0.2 0 0.4-0.1 0.1-0.2 0.2-0.2 0.1-0.3 0.1-0.2 0-0.4-0.1l-7.1-5.2q0-0.1-0.1-0.1-0.1 0-0.2 0-0.1 0-0.1 0-0.1 0-0.2 0.1l-7.1 5.2q-0.1 0.1-0.3 0.1-0.2 0-0.3-0.1-0.1-0.1-0.2-0.2-0.1-0.2 0-0.3l2.8-8.4q0-0.1 0-0.2 0-0.1 0-0.2 0 0-0.1-0.1 0-0.1-0.1-0.1l-7.2-5.2q-0.1-0.1-0.2-0.2 0-0.2 0-0.4 0.1-0.1 0.2-0.2 0.1-0.1 0.3-0.1h8.9q0.1 0.1 0.1 0 0.1 0 0.2 0 0-0.1 0.1-0.2 0 0 0.1-0.1l2.6-8.4q0.1-0.2 0.2-0.3 0.2-0.1 0.3-0.1 0.2 0 0.3 0.1 0.2 0.1 0.2 0.3l2.7 8.4q0 0.1 0.1 0.1 0 0.1 0.1 0.2 0 0 0.1 0 0.1 0.1 0.2 0z"/>
	<path id="Layer" class="s8" d="m42.7 155.1q2.3 5.3-0.7 2.8-1.1-1.2 0.7-2.8z"/>
	<path id="Layer" class="s8" d="m69 172l8.9-0.1q0.1 0 0.3 0.1 0.1 0.1 0.2 0.2 0 0.2 0 0.4-0.1 0.1-0.2 0.2l-7.3 5.2q-0.1 0-0.1 0.1-0.1 0.1-0.1 0.1 0 0.1 0 0.2 0 0.1 0 0.2l2.9 8.4q0 0.2 0 0.3-0.1 0.2-0.2 0.3-0.1 0.1-0.3 0.1-0.2 0-0.3-0.1l-7.2-5.3q0-0.1-0.1-0.1-0.1 0-0.2 0-0.1 0-0.1 0-0.1 0-0.2 0.1l-7.1 5.3q-0.1 0.1-0.3 0.1-0.2 0-0.3-0.1-0.2-0.1-0.2-0.2-0.1-0.2 0-0.4l2.9-8.4q0-0.1 0-0.2 0-0.1-0.1-0.1 0-0.1 0-0.2-0.1-0.1-0.2-0.1l-7.2-5.1q-0.2-0.1-0.2-0.3-0.1-0.1 0-0.3 0-0.2 0.2-0.3 0.1-0.1 0.3-0.1l8.9 0.2q0.1 0 0.1-0.1 0.1 0 0.2-0.1 0.1 0 0.1-0.1 0.1 0 0.1-0.1l2.6-8.5q0.1-0.2 0.2-0.3 0.1-0.1 0.3-0.1 0.2 0 0.3 0.1 0.1 0.1 0.2 0.3l2.6 8.5q0.1 0.1 0.1 0.1 0.1 0.1 0.1 0.1 0.1 0.1 0.2 0.1 0.1 0 0.2 0z"/>
	<path id="Layer" class="s8" d="m126 172l9-0.1q0.2 0 0.3 0.1 0.1 0.1 0.2 0.2 0 0.2 0 0.3-0.1 0.2-0.2 0.3l-7.3 5.2q-0.1 0-0.1 0.1-0.1 0.1-0.1 0.1 0 0.1 0 0.2 0 0 0 0.1l2.9 8.6q0 0.1-0.1 0.3 0 0.1-0.1 0.2-0.1 0.1-0.3 0.1-0.1 0-0.3-0.1l-7.2-5.4q-0.1 0-0.2 0 0-0.1-0.1-0.1-0.1 0-0.1 0.1-0.1 0-0.2 0l-7.2 5.4q-0.2 0.1-0.3 0.1-0.2 0-0.3-0.1-0.1-0.1-0.1-0.2-0.1-0.2 0-0.3l2.8-8.6q0-0.1 0-0.1 0-0.1 0-0.2 0 0-0.1-0.1 0-0.1-0.1-0.1l-7.3-5.3q-0.1 0-0.2-0.2 0-0.1 0-0.3 0.1-0.1 0.2-0.2 0.1-0.1 0.3-0.1l9 0.1q0.1 0 0.1 0 0.1-0.1 0.2-0.1 0 0 0.1-0.1 0-0.1 0-0.1l2.8-8.6q0-0.2 0.1-0.3 0.1-0.1 0.3-0.1 0.2 0 0.3 0.1 0.1 0.1 0.1 0.3l2.8 8.6q0 0 0 0.1 0.1 0.1 0.1 0.1 0.1 0 0.2 0.1 0 0 0.1 0z"/>
	<path id="Layer" class="s8" d="m183.1 172l9-0.1q0.2 0 0.3 0.1 0.1 0.1 0.2 0.3 0 0.1 0 0.2-0.1 0.2-0.2 0.3l-7.4 5.2q0 0.1-0.1 0.1 0 0.1 0 0.2-0.1 0-0.1 0.1 0 0.1 0.1 0.2l2.9 8.5q0 0.2 0 0.3-0.1 0.2-0.2 0.2-0.1 0.1-0.3 0.1-0.1 0-0.3 0l-7.2-5.4q-0.1-0.1-0.2-0.1 0 0-0.1 0-0.1 0-0.2 0 0 0-0.1 0.1l-7.3 5.4q-0.1 0-0.2 0-0.2 0-0.3-0.1-0.1 0-0.2-0.2 0-0.1 0-0.3l2.9-8.5q0-0.1 0-0.2 0-0.1 0-0.1 0-0.1-0.1-0.2 0 0-0.1-0.1l-7.3-5.2q-0.2-0.1-0.2-0.3 0-0.1 0-0.2 0-0.2 0.2-0.3 0.1-0.1 0.3-0.1l9 0.1q0.1 0 0.1 0 0.1 0 0.2-0.1 0 0 0.1-0.1 0 0 0-0.1l2.7-8.6q0.1-0.2 0.2-0.3 0.1-0.1 0.3-0.1 0.1 0 0.3 0.1 0.1 0.1 0.1 0.3l2.7 8.6q0.1 0.1 0.1 0.1 0.1 0.1 0.1 0.1 0.1 0.1 0.2 0.1 0 0 0.1 0z"/>
	<path id="Layer" class="s8" d="m240.2 172l9.2-0.1q0.1 0 0.2 0.1 0.1 0.1 0.2 0.2 0 0.1 0 0.2-0.1 0.2-0.2 0.2l-7.5 5.4q0 0.1-0.1 0.1 0 0.1 0 0.1 0 0.1 0 0.2 0 0 0 0.1l2.9 8.7q0.1 0.2 0 0.3 0 0.1-0.1 0.2-0.1 0.1-0.3 0.1-0.1 0-0.2-0.1l-7.4-5.5q-0.1 0-0.2 0 0-0.1-0.1-0.1 0 0-0.1 0.1-0.1 0-0.1 0l-7.4 5.5q-0.1 0.1-0.3 0.1-0.1 0-0.2-0.1-0.1-0.1-0.2-0.2 0-0.1 0-0.2l2.9-8.8q0.1-0.1 0.1-0.1 0-0.1-0.1-0.1 0-0.1 0-0.2-0.1 0-0.1 0l-7.5-5.4q-0.1-0.1-0.2-0.2 0-0.1 0-0.3 0.1-0.1 0.2-0.2 0.1-0.1 0.2-0.1l9.2 0.1q0.1 0 0.2 0 0 0 0.1-0.1 0 0 0.1-0.1 0 0 0-0.1l2.8-8.8q0.1-0.1 0.2-0.2 0.1-0.1 0.2-0.1 0.1 0 0.2 0.1 0.1 0.1 0.2 0.2l2.8 8.8q0 0.1 0 0.1 0.1 0.1 0.1 0.1 0.1 0 0.1 0.1 0.1 0 0.2 0z"/>
	<path id="Layer" class="s8" d="m297.3 172.1l8.9-0.2q0.2 0 0.4 0.1 0.1 0.1 0.2 0.3 0 0.2 0 0.3-0.1 0.2-0.2 0.3l-7.4 5.1q0 0-0.1 0.1-0.1 0.1-0.1 0.2 0 0 0 0.1 0 0.1 0 0.2l3 8.4q0 0.2 0 0.4-0.1 0.1-0.2 0.3-0.2 0.1-0.3 0.1-0.2 0-0.4-0.1l-7.1-5.5q0 0-0.1-0.1-0.1 0-0.2 0-0.1 0-0.2 0 0 0.1-0.1 0.1l-7.1 5.5q-0.2 0.1-0.3 0.1-0.2 0-0.4-0.1-0.1-0.2-0.2-0.3 0-0.2 0-0.4l3-8.4q0-0.1 0-0.2 0-0.1 0-0.1 0-0.1-0.1-0.2 0-0.1-0.1-0.1l-7.4-5.1q-0.1-0.1-0.2-0.3 0-0.1 0-0.3 0.1-0.2 0.2-0.3 0.2-0.1 0.4-0.1l8.9 0.2q0.1 0 0.2 0 0.1 0 0.1-0.1 0.1 0 0.2-0.1 0-0.1 0-0.2l2.6-8.5q0-0.2 0.2-0.3 0.1-0.1 0.3-0.1 0.2 0 0.3 0.1 0.2 0.1 0.2 0.3l2.6 8.5q0 0.1 0.1 0.2 0 0.1 0.1 0.1 0.1 0.1 0.2 0.1 0 0 0.1 0z"/>
	<path id="Layer" class="s9" d="m473.9 164.5q0.9 2.2 1.6 4 6.4 15.8 10.3 32.5c-2.8 0.3-6.2 0-8.2 0q-58.3 0.1-116.6 0-0.5 0-1.5-0.3-0.2-0.4-0.3-0.8-0.2-0.4-0.2-0.8 0.2-15.1 0-30.1-0.1-2.2 0.6-4.2z"/>
	<path id="Layer" class="s8" d="m96.1 196.4l9.1-0.1q0.2 0 0.3 0.1 0.1 0.1 0.2 0.2 0 0.2 0 0.3-0.1 0.2-0.2 0.3l-7.4 5.2q-0.1 0.1-0.1 0.1-0.1 0.1-0.1 0.2 0 0 0 0.1 0 0.1 0 0.1l2.9 8.7q0.1 0.1 0 0.2 0 0.2-0.1 0.3-0.2 0-0.3 0-0.1 0-0.3 0l-7.3-5.5q0 0-0.1 0-0.1 0-0.1 0-0.1 0-0.2 0-0.1 0-0.1 0l-7.3 5.5q-0.1 0.1-0.3 0.1-0.1 0-0.2-0.1-0.2-0.1-0.2-0.2 0-0.2 0-0.3l2.9-8.6q0-0.1 0-0.2 0-0.1 0-0.1 0-0.1-0.1-0.2 0 0-0.1-0.1l-7.4-5.2q-0.1-0.1-0.2-0.2 0-0.2 0-0.3 0.1-0.2 0.2-0.3 0.1 0 0.3 0l9.1 0.1q0 0 0.1-0.1 0.1 0 0.1 0 0.1-0.1 0.1-0.1 0.1-0.1 0.1-0.2l2.7-8.7q0-0.1 0.2-0.2 0.1-0.1 0.2-0.1 0.2 0 0.3 0.1 0.1 0.1 0.2 0.2l2.7 8.7q0 0.1 0 0.2 0.1 0 0.2 0.1 0 0 0.1 0 0.1 0 0.1 0z"/>
	<path id="Layer" class="s8" d="m267.3 196.4h9.4q0.2 0 0.2 0.1 0.1 0 0.1 0.1 0.1 0.1 0 0.2 0 0.1-0.1 0.2l-7.6 5.5q0 0-0.1 0 0 0.1 0 0.1 0 0.1 0 0.1 0 0.1 0 0.1l2.9 9q0 0.1 0 0.2-0.1 0.1-0.1 0.1-0.1 0.1-0.2 0.1-0.1 0-0.2-0.1l-7.6-5.5q0 0-0.1-0.1 0 0-0.1 0 0 0-0.1 0 0 0.1-0.1 0.1l-7.6 5.5q-0.1 0.1-0.2 0.1-0.1 0-0.2-0.1 0-0.1-0.1-0.2 0-0.1 0-0.2l3-8.9q0 0 0-0.1 0 0 0-0.1-0.1 0-0.1-0.1 0 0-0.1-0.1l-7.6-5.5q0 0-0.1-0.1 0-0.1 0-0.2 0.1-0.1 0.1-0.2 0.1-0.1 0.2-0.1l9.4 0.1q0.1 0 0.1 0 0.1-0.1 0.1-0.1 0.1 0 0.1-0.1 0 0 0 0l2.9-9q0.1-0.1 0.2-0.2 0.1 0 0.2 0 0.1 0 0.1 0 0.1 0.1 0.2 0.2l2.8 9q0.1 0 0.1 0 0 0.1 0.1 0.1 0 0 0 0.1 0.1 0 0.1 0z"/>
	<path id="Layer" class="s8" d="m26.7 200.1q-0.2-1.6 0.5-3.1 0.2-0.4 0.8-0.4l3.9-0.2q1.9-4 2.9-7.9 0.7-2.4 1.4 0l2 6.5q0.4 1.5 1.9 1.4 3.9-0.1 7.9-0.1 0.3-0.1 0.4 0.3 0 0.1 0 0.2 0 0 0 0.1 0 0.1-0.1 0.2 0 0-0.1 0.1l-6.7 4.8q-0.6 0.3-0.4 1l2.4 8.4q0.4 1.3-0.7 0.5l-6.9-5.2q-0.4-0.4-0.9 0l-7.3 5.4q-0.8 0.6-0.5-0.4l2.4-8.3q0.2-0.5-0.1-0.9-1-1.4-2.8-2.4z"/>
	<path id="Layer" class="s8" d="m153.3 196.4l8.8-0.1q0.2 0 0.4 0.1 0.1 0.1 0.1 0.3 0.1 0.2 0 0.3 0 0.2-0.2 0.3l-7.2 5.1q-0.1 0-0.1 0.1-0.1 0.1-0.1 0.2 0 0 0 0.1 0 0.1 0 0.2l2.8 8.4q0.1 0.2 0 0.3 0 0.2-0.2 0.3-0.1 0.1-0.3 0.1-0.1 0-0.3-0.1l-7.1-5.3q0-0.1-0.1-0.1-0.1 0-0.2 0-0.1 0-0.1 0-0.1 0-0.2 0.1l-7.1 5.2q-0.1 0.2-0.3 0.2-0.2 0-0.3-0.1-0.2-0.1-0.2-0.3-0.1-0.2 0-0.3l2.8-8.4q0.1-0.1 0.1-0.2 0-0.1-0.1-0.2 0 0 0-0.1-0.1-0.1-0.2-0.1l-7.2-5.2q-0.1-0.1-0.2-0.2 0-0.2 0-0.4 0.1-0.1 0.2-0.2 0.2-0.1 0.3-0.1l8.9 0.1q0.1 0 0.2 0 0 0 0.1-0.1 0.1 0 0.1-0.1 0.1-0.1 0.1-0.2l2.6-8.4q0.1-0.2 0.2-0.3 0.2-0.1 0.4-0.1 0.1 0 0.3 0.1 0.1 0.1 0.2 0.3l2.6 8.5q0 0 0 0.1 0.1 0.1 0.2 0.1 0 0.1 0.1 0.1 0.1 0 0.2 0z"/>
	<path id="Layer" class="s8" d="m210.3 196.4l9-0.1q0.1 0 0.3 0.1 0.1 0.1 0.2 0.3 0 0.1 0 0.3-0.1 0.1-0.2 0.2l-7.3 5.2q-0.1 0-0.1 0.1-0.1 0.1-0.1 0.1 0 0.1 0 0.2 0 0.1 0 0.2l2.9 8.4q0 0.2 0 0.3-0.1 0.2-0.2 0.3-0.1 0.1-0.3 0.1-0.2 0-0.3-0.1l-7.2-5.3q0-0.1-0.1-0.1-0.1 0-0.2 0-0.1 0-0.1 0-0.1 0-0.2 0.1l-7.1 5.3q-0.1 0.1-0.3 0.1-0.2 0-0.3-0.1-0.2-0.1-0.2-0.2-0.1-0.2 0-0.4l2.8-8.4q0.1-0.1 0.1-0.2 0-0.1-0.1-0.1 0-0.1 0-0.2-0.1-0.1-0.2-0.1l-7.3-5.1q-0.1-0.1-0.2-0.3 0-0.1 0-0.3 0.1-0.2 0.2-0.3 0.2-0.1 0.4-0.1l8.9 0.1q0.1 0 0.1 0 0.1 0 0.2-0.1 0.1 0 0.1-0.1 0.1 0 0.1-0.1l2.6-8.5q0.1-0.2 0.2-0.3 0.1-0.1 0.3-0.1 0.2 0 0.3 0.1 0.1 0.1 0.2 0.3l2.6 8.5q0.1 0.1 0.1 0.1 0.1 0.1 0.1 0.1 0.1 0.1 0.2 0.1 0.1 0 0.1 0z"/>
	<path id="Layer" class="s8" d="m324.5 196.4l9-0.1q0.2 0 0.3 0.1 0.2 0.1 0.2 0.2 0.1 0.2 0 0.4 0 0.1-0.2 0.2l-7.3 5.2q-0.1 0-0.1 0.1-0.1 0.1-0.1 0.1 0 0.1 0 0.2 0 0.1 0 0.2l2.9 8.4q0.1 0.2 0 0.4 0 0.1-0.2 0.2-0.1 0.1-0.3 0.1-0.1 0-0.3-0.1l-7.2-5.4q0 0-0.1 0-0.1-0.1-0.2-0.1 0 0-0.1 0.1-0.1 0-0.2 0l-7.1 5.5q-0.2 0.1-0.3 0.1-0.2 0-0.3-0.1-0.2-0.1-0.2-0.3-0.1-0.2 0-0.3l2.9-8.5q0-0.1 0-0.2 0-0.1 0-0.1 0-0.1-0.1-0.2 0-0.1-0.1-0.1l-7.4-5.1q-0.1-0.1-0.2-0.3 0-0.2 0-0.3 0.1-0.2 0.2-0.3 0.2-0.1 0.3-0.1l9 0.2q0.1 0 0.2-0.1 0 0 0.1 0 0.1-0.1 0.1-0.1 0.1-0.1 0.1-0.2l2.6-8.6q0.1-0.2 0.2-0.3 0.1-0.1 0.3-0.1 0.2 0 0.3 0.1 0.1 0.1 0.2 0.3l2.6 8.6q0.1 0.1 0.1 0.1 0.1 0.1 0.1 0.2 0.1 0 0.2 0 0.1 0.1 0.1 0z"/>
	<path id="Layer" class="s8" d="m359.5 200.7q1 0.3 1.5 0.3 58.3 0.1 116.6 0c2 0 5.4 0.3 8.2 0q4.5 18.2 5.8 37l-132.3-0.1z"/>
	<path id="Layer" class="s8" d="m183.1 224.8l9-0.1q0.2 0 0.3 0.1 0.1 0.1 0.2 0.2 0 0.2 0 0.3-0.1 0.2-0.2 0.2l-7.3 5.3q-0.1 0.1-0.1 0.1-0.1 0.1-0.1 0.2 0 0 0 0.1 0 0.1 0 0.1l2.9 8.6q0 0.2 0 0.3-0.1 0.1-0.2 0.2-0.1 0.1-0.3 0.1-0.1 0-0.2-0.1l-7.3-5.3q-0.1-0.1-0.2-0.1 0 0-0.1 0-0.1 0-0.1 0-0.1 0-0.2 0.1l-7.2 5.3q-0.2 0.1-0.3 0.1-0.2 0-0.3 0-0.1-0.1-0.1-0.3-0.1-0.1 0-0.3l2.8-8.5q0-0.1 0-0.2 0-0.1 0-0.1 0-0.1-0.1-0.2 0 0-0.1-0.1l-7.3-5.2q-0.2-0.1-0.2-0.2 0-0.2 0-0.3 0-0.2 0.2-0.3 0.1 0 0.2-0.1l9.1 0.1q0 0 0.1 0 0.1-0.1 0.1-0.1 0.1 0 0.1-0.1 0.1-0.1 0.1-0.1l2.7-8.7q0.1-0.1 0.2-0.2 0.1-0.1 0.3-0.1 0.1 0 0.2 0.1 0.2 0.1 0.2 0.2l2.8 8.7q0 0 0 0.1 0.1 0 0.1 0.1 0.1 0 0.2 0.1 0 0 0.1 0z"/>
	<path id="Layer" class="s8" d="m297.3 224.8l9.1-0.1q0.1 0 0.2 0.1 0.2 0.1 0.2 0.2 0.1 0.2 0 0.3 0 0.2-0.2 0.2l-7.3 5.3q-0.1 0.1-0.1 0.1-0.1 0.1-0.1 0.1 0 0.1 0 0.2 0 0.1 0 0.1l2.9 8.6q0 0.2 0 0.3-0.1 0.1-0.2 0.2-0.1 0.1-0.3 0.1-0.1 0-0.2-0.1l-7.3-5.3q-0.1-0.1-0.2-0.1 0 0-0.1 0-0.1 0-0.1 0-0.1 0-0.2 0.1l-7.3 5.3q-0.1 0.1-0.2 0.1-0.2 0-0.3-0.1-0.1-0.1-0.2-0.2 0-0.1 0-0.3l2.9-8.6q0 0 0-0.1 0-0.1 0-0.2 0 0-0.1-0.1 0 0-0.1-0.1l-7.3-5.3q-0.2 0-0.2-0.2-0.1-0.1 0-0.3 0-0.1 0.2-0.2 0.1-0.1 0.2-0.1l9.1 0.1q0.1 0 0.1 0 0.1-0.1 0.2-0.1 0 0 0.1-0.1 0-0.1 0-0.1l2.8-8.7q0-0.1 0.1-0.2 0.2-0.1 0.3-0.1 0.1 0 0.3 0.1 0.1 0.1 0.1 0.2l2.8 8.7q0 0 0 0.1 0.1 0.1 0.1 0.1 0.1 0 0.2 0.1 0 0 0.1 0z"/>
	<path id="Layer" class="s8" d="m69 224.8l8.8-0.1q0.2 0 0.3 0.1 0.2 0.1 0.2 0.3 0.1 0.1 0 0.3 0 0.2-0.2 0.3l-7.2 5.1q-0.1 0-0.1 0.1-0.1 0.1-0.1 0.2 0 0 0 0.1 0 0.1 0 0.2l2.8 8.4q0.1 0.1 0 0.3 0 0.2-0.1 0.3-0.2 0.1-0.4 0.1-0.1 0-0.3-0.1l-7.1-5.3q0-0.1-0.1-0.1-0.1 0-0.2 0-0.1 0-0.2 0 0 0-0.1 0.1l-7.1 5.3q-0.2 0.1-0.3 0.1-0.2 0-0.3-0.1-0.2-0.1-0.2-0.3-0.1-0.2 0-0.3l2.8-8.4q0-0.1 0-0.2 0-0.1 0-0.1 0-0.1-0.1-0.2 0-0.1-0.1-0.1l-7.2-5.1q-0.2-0.1-0.2-0.3-0.1-0.2 0-0.3 0-0.2 0.2-0.3 0.1-0.1 0.3-0.1l8.9 0.1q0.1 0 0.1 0 0.1 0 0.2-0.1 0 0 0.1-0.1 0-0.1 0.1-0.2l2.6-8.4q0.1-0.2 0.2-0.3 0.1-0.1 0.3-0.1 0.2 0 0.3 0.1 0.2 0.1 0.2 0.3l2.7 8.4q0 0.1 0 0.2 0.1 0.1 0.1 0.1 0.1 0.1 0.2 0.1 0.1 0 0.2 0z"/>
	<path id="Layer" class="s8" d="m126 224.8l9.1-0.1q0.1 0 0.3 0.1 0.1 0.1 0.1 0.2 0.1 0.2 0 0.3 0 0.1-0.1 0.2l-7.4 5.3q-0.1 0-0.1 0.1-0.1 0.1-0.1 0.1 0 0.1 0 0.2 0 0 0 0.1l2.9 8.6q0 0.2 0 0.3-0.1 0.2-0.2 0.3-0.1 0-0.3 0-0.1 0-0.2-0.1l-7.3-5.4q-0.1 0-0.2 0 0-0.1-0.1-0.1-0.1 0-0.1 0.1-0.1 0-0.2 0l-7.3 5.4q-0.1 0.1-0.2 0.1-0.2 0-0.3 0-0.1-0.1-0.2-0.3 0-0.1 0-0.3l2.9-8.6q0-0.1 0-0.1 0-0.1 0-0.2 0 0-0.1-0.1 0-0.1-0.1-0.1l-7.4-5.3q-0.1-0.1-0.1-0.2-0.1-0.1 0-0.3 0-0.1 0.1-0.2 0.2-0.1 0.3-0.1l9.1 0.1q0.1 0 0.1 0 0.1-0.1 0.2-0.1 0 0 0.1-0.1 0-0.1 0-0.1l2.8-8.7q0-0.1 0.1-0.2 0.1-0.1 0.3-0.1 0.2 0 0.3 0.1 0.1 0.1 0.1 0.2l2.8 8.7q0 0 0 0.1 0.1 0.1 0.1 0.1 0.1 0 0.2 0.1 0 0 0.1 0z"/>
	<path id="Layer" class="s8" d="m240.3 224.8l8.8-0.1q0.2 0 0.3 0.1 0.1 0.1 0.2 0.3 0 0.2 0 0.3-0.1 0.2-0.2 0.3l-7.2 5.1q-0.1 0-0.1 0.1-0.1 0.1-0.1 0.2 0 0 0 0.1 0 0.1 0 0.2l2.8 8.4q0.1 0.1 0 0.3 0 0.2-0.2 0.3-0.1 0.1-0.3 0-0.2 0-0.3-0.1l-7.1-5.2q-0.1 0-0.1-0.1-0.1 0-0.2 0-0.1 0-0.2 0 0 0.1-0.1 0.1l-7.1 5.2q-0.1 0.1-0.3 0.1-0.2 0.1-0.3 0-0.2-0.1-0.2-0.3-0.1-0.2 0-0.3l2.8-8.4q0-0.1 0-0.2 0-0.1 0-0.1 0-0.1-0.1-0.2 0-0.1-0.1-0.1l-7.2-5.1q-0.1-0.1-0.2-0.3 0-0.1 0-0.3 0.1-0.2 0.2-0.3 0.1-0.1 0.3-0.1l8.8 0.1q0.1 0 0.2 0 0.1 0 0.2-0.1 0 0 0.1-0.1 0-0.1 0-0.2l2.7-8.4q0-0.1 0.2-0.2 0.1-0.1 0.3-0.1 0.2 0 0.3 0.1 0.2 0.1 0.2 0.2l2.6 8.4q0.1 0.1 0.1 0.2 0.1 0.1 0.1 0.1 0.1 0.1 0.2 0.1 0.1 0 0.1 0z"/>
	<path id="Layer" class="s9" d="m359.3 237.9l132.3 0.1q1.5 18-0.1 36.3l-131.9-0.1q-1.2-18.1-0.3-36.3z"/>
	<path id="Layer" class="s8" d="m39.1 249.3l8.9-0.1q0.2 0 0.3 0.1 0.2 0.1 0.2 0.3 0.1 0.1 0 0.3-0.1 0.2-0.2 0.3l-7.3 5q-0.1 0.1-0.1 0.2-0.1 0-0.1 0.1-0.1 0.1-0.1 0.2 0.1 0.1 0.1 0.2l2.9 8.4q0 0.1 0 0.3-0.1 0.2-0.2 0.3-0.2 0.1-0.3 0.1-0.2 0-0.4-0.1l-7-5.4q-0.1-0.1-0.2-0.1-0.1 0-0.2 0-0.1 0-0.1 0-0.1 0-0.2 0.1l-7.1 5.4q-0.1 0.1-0.3 0.1-0.2 0-0.4-0.1-0.1-0.1-0.2-0.3 0-0.2 0-0.4l3-8.4q0 0 0-0.1 0-0.1 0-0.2 0-0.1-0.1-0.2 0 0-0.1-0.1l-7.3-5.1q-0.2-0.1-0.2-0.2-0.1-0.2 0-0.4 0-0.2 0.2-0.3 0.1-0.1 0.3-0.1l8.9 0.2q0.1 0 0.2 0 0.1 0 0.1-0.1 0.1 0 0.2-0.1 0-0.1 0-0.2l2.6-8.5q0.1-0.1 0.2-0.2 0.2-0.2 0.4-0.2 0.1 0 0.3 0.2 0.1 0.1 0.2 0.2l2.5 8.5q0.1 0.1 0.1 0.2 0.1 0.1 0.1 0.1 0.1 0.1 0.2 0.1 0.1 0 0.2 0z"/>
	<path id="Layer" class="s8" d="m96.2 249.3l8.8-0.2q0.2 0 0.4 0.1 0.1 0.1 0.2 0.3 0 0.2 0 0.3-0.1 0.2-0.2 0.3l-7.3 5.1q-0.1 0.1-0.1 0.1-0.1 0.1-0.1 0.2 0 0.1 0 0.2 0 0.1 0 0.1l2.9 8.4q0.1 0.2 0 0.4-0.1 0.1-0.2 0.2-0.1 0.1-0.3 0.1-0.2 0-0.4-0.1l-7-5.3q-0.1-0.1-0.2-0.1-0.1 0-0.2 0 0 0-0.1 0-0.1 0-0.2 0.1l-7.1 5.3q-0.1 0.1-0.3 0.1-0.2 0-0.3-0.1-0.2-0.1-0.2-0.2-0.1-0.2 0-0.4l2.9-8.4q0 0 0-0.1 0-0.1 0-0.2-0.1-0.1-0.1-0.2-0.1 0-0.1-0.1l-7.3-5.1q-0.1-0.1-0.2-0.3 0-0.1 0-0.3 0.1-0.2 0.2-0.3 0.2-0.1 0.3-0.1l8.9 0.2q0.1 0 0.2 0 0.1-0.1 0.1-0.1 0.1-0.1 0.1-0.1 0.1-0.1 0.1-0.2l2.6-8.5q0.1-0.1 0.2-0.3 0.2-0.1 0.3-0.1 0.2 0 0.4 0.1 0.1 0.2 0.2 0.3l2.6 8.5q0 0.1 0 0.2 0.1 0 0.2 0.1 0 0 0.1 0.1 0.1 0 0.2 0z"/>
	<path id="Layer" class="s8" d="m153.3 249.3l9.1-0.2q0.1 0.1 0.2 0.1 0.2 0.1 0.2 0.3 0.1 0.1 0 0.3 0 0.1-0.2 0.2l-7.4 5.3q-0.1 0-0.1 0.1-0.1 0-0.1 0.1 0 0.1 0 0.1 0 0.1 0 0.2l3 8.6q0 0.2 0 0.3-0.1 0.2-0.2 0.3-0.1 0-0.3 0-0.1 0-0.3-0.1l-7.3-5.4q0-0.1-0.1-0.1-0.1 0-0.2 0 0 0-0.1 0-0.1 0-0.1 0.1l-7.3 5.4q-0.2 0.1-0.3 0.1-0.2 0-0.3 0-0.1-0.1-0.2-0.3 0-0.1 0-0.3l3-8.6q0-0.1 0-0.2 0 0 0-0.1 0-0.1-0.1-0.1 0-0.1-0.1-0.1l-7.5-5.3q-0.1-0.1-0.1-0.2-0.1-0.2 0-0.3 0-0.2 0.2-0.3 0.1 0 0.2-0.1l9.2 0.2q0 0 0.1-0.1 0.1 0 0.1 0 0.1-0.1 0.1-0.1 0.1-0.1 0.1-0.2l2.7-8.7q0-0.1 0.2-0.2 0.1-0.1 0.2-0.1 0.2 0 0.3 0.1 0.2 0.1 0.2 0.2l2.7 8.7q0 0.1 0.1 0.2 0 0 0.1 0.1 0 0 0.1 0 0.1 0.1 0.1 0.1z"/>
	<path id="Layer" class="s8" d="m210.4 249.3l8.7-0.2q0.2 0 0.4 0.1 0.1 0.1 0.2 0.3 0 0.2 0 0.4-0.1 0.2-0.3 0.3l-7.1 5q0 0-0.1 0.1-0.1 0.1-0.1 0.2 0 0.1 0 0.2 0 0.1 0 0.2l2.9 8.2q0 0.2 0 0.4-0.1 0.1-0.2 0.3-0.2 0.1-0.4 0.1-0.2 0-0.4-0.1l-6.9-5.2q-0.1-0.1-0.2-0.1-0.1-0.1-0.2-0.1-0.1 0-0.2 0.1-0.1 0-0.1 0.1l-6.9 5.2q-0.2 0.1-0.4 0.1-0.2 0-0.4-0.1-0.1-0.1-0.2-0.3 0-0.2 0-0.4l2.8-8.2q0.1-0.1 0.1-0.2 0-0.1-0.1-0.2 0-0.1 0-0.2-0.1 0-0.2-0.1l-7.1-4.9q-0.2-0.2-0.2-0.3-0.1-0.2 0-0.4 0-0.2 0.2-0.3 0.2-0.2 0.4-0.2l8.6 0.2q0.1 0 0.2 0 0.1-0.1 0.2-0.1 0.1-0.1 0.1-0.2 0.1 0 0.1-0.1l2.5-8.3q0.1-0.2 0.2-0.3 0.2-0.2 0.4-0.2 0.2 0 0.4 0.2 0.1 0.1 0.2 0.3l2.5 8.3q0.1 0.1 0.1 0.1 0.1 0.1 0.2 0.2 0 0 0.1 0.1 0.1 0 0.2 0z"/>
	<path id="Layer" class="s8" d="m267.5 249.3l8.9-0.2q0.1 0 0.3 0.1 0.1 0.1 0.2 0.3 0 0.2 0 0.3-0.1 0.2-0.2 0.3l-7.3 5.1q0 0.1-0.1 0.1 0 0.1-0.1 0.2 0 0.1 0 0.2 0 0 0 0.1l2.9 8.4q0.1 0.2 0 0.4 0 0.1-0.2 0.2-0.1 0.1-0.3 0.1-0.2 0-0.3-0.1l-7.1-5.3q-0.1 0-0.2-0.1-0.1 0-0.1 0-0.1 0-0.2 0-0.1 0.1-0.2 0.1l-7.1 5.3q-0.1 0.1-0.3 0.1-0.2 0-0.3-0.1-0.1-0.1-0.2-0.2 0-0.2 0-0.4l2.9-8.4q0-0.1 0-0.1 0-0.1 0-0.2 0-0.1-0.1-0.2 0 0-0.1-0.1l-7.3-5.1q-0.1-0.1-0.2-0.3 0-0.1 0-0.3 0.1-0.2 0.2-0.3 0.2-0.1 0.3-0.1l8.9 0.2q0.1 0 0.2 0 0.1-0.1 0.1-0.1 0.1-0.1 0.2-0.1 0-0.1 0-0.2l2.7-8.5q0-0.1 0.1-0.2 0.2-0.2 0.4-0.2 0.1 0 0.3 0.2 0.1 0.1 0.2 0.2l2.6 8.5q0 0.1 0.1 0.2 0 0 0.1 0.1 0.1 0 0.1 0.1 0.1 0 0.2 0z"/>
	<path id="Layer" class="s8" d="m324.6 249.3l8.7-0.2q0.2 0 0.4 0.1 0.1 0.2 0.2 0.4 0.1 0.1 0 0.3-0.1 0.2-0.2 0.3l-7.2 5q0 0.1-0.1 0.1-0.1 0.1-0.1 0.2 0 0.1 0 0.2 0 0.1 0 0.2l2.9 8.2q0 0.2 0 0.4-0.1 0.2-0.3 0.3-0.1 0.1-0.3 0.1-0.2 0-0.4-0.1l-6.9-5.2q-0.1-0.1-0.2-0.1-0.1-0.1-0.2-0.1-0.1 0-0.2 0.1-0.1 0-0.1 0.1l-7 5.2q-0.1 0.1-0.3 0.1-0.2 0-0.4-0.1-0.1-0.1-0.2-0.3-0.1-0.2 0-0.4l2.8-8.2q0.1-0.1 0.1-0.2 0-0.1-0.1-0.2 0-0.1 0-0.2-0.1 0-0.2-0.1l-7.1-5q-0.2-0.1-0.2-0.3-0.1-0.2-0.1-0.3 0.1-0.2 0.3-0.4 0.1-0.1 0.3-0.1l8.7 0.2q0.1 0 0.2 0 0.1-0.1 0.2-0.1 0.1-0.1 0.1-0.2 0.1 0 0.1-0.1l2.6-8.3q0-0.2 0.2-0.3 0.1-0.2 0.3-0.2 0.2 0 0.4 0.2 0.1 0.1 0.2 0.3l2.5 8.3q0.1 0.1 0.1 0.1 0.1 0.1 0.2 0.2 0 0 0.1 0.1 0.1 0 0.2 0z"/>
	<path id="Layer" class="s8" d="m20.4 274.3l339.2-0.1 131.9 0.1q-1.1 17.9-5.4 35.5h-460.2q-4.2-17.6-5.5-35.6z"/>
	<path id="Layer" class="s9" d="m25.9 309.8h460.2q-4.3 18.8-11.8 36.7h-436.6q-7.6-18.1-11.8-36.7z"/>
	<path id="Layer" class="s8" d="m37.7 346.5h436.6q-0.3 0.8-1.7 4.1-7.1 16.2-16.7 31.4 0 0.1-0.1 0.2-0.1 0.1-0.3 0.2-0.1 0.1-0.2 0.1-0.2 0.1-0.3 0.1h-14.5-383.9q-11.2-17-18.9-36.1z"/>
	<path id="Layer" class="s9" d="m56.6 382.6h383.9 13q0.3 0 0.5 0.2 0.3 0.1 0.5 0.4 0.1 0.3 0.1 0.6 0 0.3-0.2 0.6-10.9 17-24.4 31.5-0.8 0.8-1.7 1.6-0.8 0.7-1.4 1.5l-341.7 0.1q-16.2-16.6-28.6-36.5z"/>
	<path id="Layer" class="s8" d="m426.9 419.1q-19.9 21.1-44.5 36.6-0.6 0.4-2.1 0.3l-250-0.1q-24.7-15-45.1-36.8z"/>
	<path id="Layer" class="s9" d="m380.3 456q-1.1 1.8-3.7 3.3-64.5 37.7-138.6 32.3-56.9-4.2-106.8-34.8-0.4-0.2-0.6-0.5-0.1-0.2-0.3-0.4z"/>
</svg>