<svg width="133" height="66" viewBox="0 0 133 66" fill="none" xmlns="http://www.w3.org/2000/svg">
<mask id="mask0_1_23" style="mask-type:luminance" maskUnits="userSpaceOnUse" x="33" y="21" width="68" height="23">
<path d="M100.727 21H33.7266V44H100.727V21Z" fill="white"/>
</mask>
<g mask="url(#mask0_1_23)">
<path d="M67.0852 36.6789L64.3047 27.8223H67.3184L68.969 34.2517L68.0723 34.2707L70.0107 27.8223H72.8102L74.7654 34.2707L73.8686 34.2517L75.5382 27.8223H78.5519L75.7713 36.6789H72.9551L71.0881 30.5759H71.7874L69.8679 36.6789H67.0873H67.0852Z" fill="white"/>
<path d="M83.0217 36.8615C82.1964 36.8615 81.4697 36.6622 80.8418 36.2637C80.2139 35.8652 79.7182 35.3183 79.3528 34.6251C78.9874 33.9319 78.8047 33.137 78.8047 32.2445C78.8047 31.3521 78.9874 30.5762 79.3528 29.8809C79.7182 29.1878 80.216 28.6408 80.8502 28.2423C81.4844 27.8438 82.2027 27.6445 83.0028 27.6445C83.5656 27.6445 84.0739 27.7442 84.5275 27.9434C84.9811 28.1427 85.3549 28.4204 85.649 28.7765C85.943 29.1326 86.1194 29.546 86.1782 30.0166V34.4725C86.1068 34.9431 85.9241 35.3607 85.6301 35.721C85.336 36.0835 84.9622 36.3633 84.5086 36.5626C84.0529 36.7619 83.5572 36.8615 83.0196 36.8615H83.0217ZM83.6854 34.0549C84.1999 34.0549 84.6115 33.8853 84.9223 33.5482C85.2331 33.2112 85.3885 32.7766 85.3885 32.2445C85.3885 31.9075 85.3171 31.6022 85.1722 31.3309C85.0294 31.0596 84.832 30.8455 84.58 30.6886C84.328 30.5317 84.0361 30.4533 83.7001 30.4533C83.364 30.4533 83.0679 30.5317 82.8117 30.6886C82.5534 30.8455 82.3518 31.0596 82.2006 31.3309C82.0515 31.6022 81.9759 31.9075 81.9759 32.2445C81.9759 32.5816 82.0473 32.9059 82.1901 33.1773C82.3329 33.4486 82.5366 33.6627 82.7991 33.8196C83.0616 33.9764 83.3556 34.0549 83.6791 34.0549H83.6854ZM85.2814 36.6813V34.2902L85.7309 32.1534L85.2814 29.9975V27.8247H88.3686V36.6813H85.2814Z" fill="white"/>
<path d="M89.4414 30.4493V27.8229H96.439V30.4493H89.4414ZM91.3609 36.6795V24.1641H94.5006V36.6795H91.3609Z" fill="white"/>
<path d="M99.096 26.8093C98.6172 26.8093 98.2224 26.644 97.9115 26.3112C97.6007 25.9784 97.4453 25.5777 97.4453 25.1071C97.4453 24.6365 97.6007 24.238 97.9115 23.9116C98.2224 23.5851 98.6172 23.4219 99.096 23.4219C99.5748 23.4219 99.9508 23.5851 100.262 23.9116C100.572 24.238 100.728 24.6365 100.728 25.1071C100.728 25.5777 100.572 25.9805 100.262 26.3112C99.9508 26.644 99.5622 26.8093 99.096 26.8093ZM97.4999 36.6792V27.8226H100.64V36.6792H97.4999Z" fill="white"/>
<path opacity="0.15" d="M41.4038 39.3011H49.2015L53.8617 44.0007V39.3011H55.8526C58.2278 39.3011 60.1704 37.3402 60.1704 34.9427V28.7529C60.1704 26.3554 58.2278 24.3945 55.8526 24.3945H41.4038C39.0285 24.3945 37.0859 26.3554 37.0859 28.7529V34.9427C37.0859 37.3402 39.0285 39.3011 41.4038 39.3011Z" fill="white"/>
<path d="M51.3465 42.6582L46.3357 37.6045H38.8844C36.0409 37.6045 33.7266 35.2685 33.7266 32.3982V26.2063C33.7266 23.336 36.0409 21 38.8844 21H53.3332C56.1768 21 58.4911 23.336 58.4911 26.2063V32.3961C58.4911 35.2664 56.1768 37.6024 53.3332 37.6024H51.3423V35.9065H53.3332C55.2507 35.9065 56.811 34.3315 56.811 32.3961V26.2063C56.811 24.2709 55.2507 22.6959 53.3332 22.6959H38.8844C36.967 22.6959 35.4067 24.2709 35.4067 26.2063V32.3961C35.4067 34.3315 36.967 35.9065 38.8844 35.9065H47.0308L51.3612 40.2734L51.3465 42.656V42.6582Z" fill="white"/>
</g>
</svg>
