<svg width="24" height="24" viewBox="0 0 24 24" fill="none" xmlns="http://www.w3.org/2000/svg">
<path d="M10.0168 8.9285L14.9897 11.9028L10.0168 14.919V8.9285ZM12.0153 6C12.0153 6 8.68523 6 6.42121 6.15253C6.12049 6.15918 5.82407 6.22528 5.54903 6.34701C5.274 6.46874 5.02581 6.64369 4.81877 6.86177C4.45618 7.3577 4.22683 7.93823 4.15261 8.54795C4.15261 8.54795 4 9.92069 4 11.3216V12.612C4 13.9847 4.15261 15.3849 4.15261 15.3849C4.22673 15.9947 4.45609 16.5752 4.81877 17.0711C5.2845 17.5289 5.89915 17.8044 6.55093 17.8475C7.83747 18 11.9886 18 11.9886 18C11.9886 18 15.3186 18 17.5826 17.8002C17.8827 17.793 18.1784 17.7267 18.4527 17.605C18.7271 17.4833 18.9746 17.3086 19.1812 17.0909C19.5439 16.5948 19.7732 16.014 19.8474 15.404C19.8474 15.404 20 14.0313 20 12.6311V11.3255C19.9964 10.3989 19.9455 9.47312 19.8474 8.55176C19.7732 7.94226 19.5439 7.36195 19.1812 6.86635C18.9889 6.63132 18.744 6.44465 18.4664 6.32134C18.1888 6.19803 17.8861 6.14152 17.5826 6.15634C15.3407 6.00381 12.0122 6.00381 12.0122 6.00381L12.0153 6Z" fill="white"/>
</svg>
